<svg width="86" height="86" viewBox="0 0 86 86" fill="none" xmlns="http://www.w3.org/2000/svg">
<path fill-rule="evenodd" clip-rule="evenodd" d="M43.4598 13.0415C43.9292 13.0415 44.3095 12.6611 44.3095 12.1917V4.90713C44.3095 4.43771 43.9292 4.05737 43.4598 4.05737C42.9903 4.05737 42.61 4.43771 42.61 4.90713V12.19C42.61 12.6594 42.9903 13.0397 43.4598 13.0397V13.0415ZM36.2608 13.4098L36.254 13.4167L36.2523 13.4184L35.0273 9.63559C34.8817 9.19187 35.1267 8.70875 35.5704 8.56312C36.0227 8.4175 36.4973 8.66249 36.6429 9.10621L37.8678 12.889C38.0135 13.3327 37.7685 13.8158 37.3247 13.9615C37.2408 13.9837 37.1483 13.9991 37.0643 13.9991C36.7131 13.9991 36.3756 13.7696 36.2608 13.4098ZM30.2252 16.6478C30.3931 16.8773 30.6466 17.0007 30.9139 17.0007C31.0904 17.0007 31.2582 16.9476 31.4124 16.8397C31.7876 16.5638 31.8716 16.0362 31.6043 15.6524L27.3316 9.76237C27.0557 9.38718 26.5281 9.29466 26.1443 9.57049C25.7691 9.84632 25.6852 10.374 25.9524 10.7577L30.2252 16.6478ZM25.4847 21.587L22.2759 19.2519H22.2742C21.899 18.976 21.815 18.4466 22.0908 18.0646C22.3667 17.6808 22.8961 17.5969 23.2781 17.8727L26.487 20.2078C26.8707 20.4837 26.9547 21.0113 26.6788 21.3951C26.5109 21.6247 26.2505 21.748 25.9901 21.748C25.8137 21.748 25.6441 21.6949 25.4916 21.587H25.4847ZM15.5909 25.5017L15.5978 25.5085L22.514 27.7597C22.598 27.7905 22.6905 27.7974 22.7744 27.7974C23.1342 27.7974 23.4631 27.5678 23.5779 27.208C23.7235 26.7643 23.4786 26.2812 23.0348 26.1355L16.1186 23.8844C15.6749 23.7388 15.1917 23.9837 15.0461 24.4275C14.9005 24.8712 15.1455 25.3543 15.5892 25.4999L15.5909 25.5017ZM16.7696 33.7028C16.7696 33.2368 17.1517 32.8531 17.6194 32.8531H21.5872C22.0532 32.8531 22.4369 33.2368 22.4369 33.7028C22.4369 34.1688 22.0549 34.5526 21.5872 34.5526H17.6194C17.1534 34.5526 16.7696 34.1688 16.7696 33.7028ZM15.6132 43.5915C15.6971 43.5915 15.7897 43.576 15.8736 43.5538L22.7898 41.3026C23.2336 41.157 23.4786 40.6739 23.3329 40.2301L23.3398 40.2233C23.1942 39.7796 22.711 39.5346 22.2673 39.6802L15.3511 41.9314C14.9074 42.077 14.6624 42.5601 14.808 43.0038C14.9228 43.3636 15.2603 43.5932 15.6115 43.5932L15.6132 43.5915ZM26.2214 46.1493H26.2283H26.23C26.4972 46.5331 26.4133 47.0607 26.0381 47.3366L22.8292 49.6717C22.6751 49.7796 22.5072 49.8327 22.3307 49.8327C22.0634 49.8327 21.8099 49.7094 21.642 49.4798C21.3662 49.096 21.4501 48.5684 21.8253 48.2925L25.0342 45.9574C25.4179 45.6902 25.9456 45.7655 26.2214 46.1493ZM25.5087 58.1572C25.6612 58.2651 25.8308 58.3182 26.0073 58.3182C26.2677 58.3182 26.5281 58.1966 26.696 57.9653L30.9687 52.0753C31.2445 51.6915 31.1606 51.1639 30.7768 50.888C30.3931 50.6122 29.8654 50.6962 29.5896 51.0799H29.5982L25.3254 56.9699C25.0496 57.352 25.1335 57.8814 25.5087 58.1572ZM35.5173 54.5355L34.2924 58.3182C34.1467 58.762 34.3917 59.2451 34.8354 59.3907C34.9194 59.4216 35.0119 59.4284 35.0958 59.4284C35.4556 59.4284 35.7846 59.1988 35.8993 58.8391L37.1243 55.0563C37.2699 54.6126 37.0249 54.1294 36.5812 53.9838L36.5881 53.9907C36.1443 53.8451 35.6612 54.09 35.5156 54.5338L35.5173 54.5355ZM50.3297 14.1979L50.3229 14.191C50.7666 14.3366 51.2497 14.0917 51.3954 13.6479L52.6203 9.86516C52.7659 9.42144 52.5209 8.93832 52.0772 8.79269C51.9933 8.76186 51.9008 8.755 51.8168 8.755C51.457 8.755 51.1281 8.98457 51.0133 9.34435L49.7884 13.1271C49.6427 13.5708 49.8877 14.054 50.3314 14.1996L50.3297 14.1979ZM57.3145 17.1001C57.0387 17.4838 56.511 17.5678 56.1272 17.2919H56.129C55.7452 17.0161 55.6612 16.4884 55.9371 16.1047L60.2115 10.2147C60.3794 9.98509 60.6398 9.86174 60.9003 9.86174C61.075 9.86174 61.2446 9.91485 61.3971 10.0228C61.7723 10.2986 61.8562 10.8263 61.5804 11.21L57.3076 17.1001H57.3145ZM60.6844 22.0324H60.6912C60.9671 22.4162 61.4947 22.4915 61.8785 22.2243L65.0873 19.8892C65.4625 19.6133 65.5465 19.0857 65.2707 18.7019C65.1028 18.4723 64.8492 18.349 64.582 18.349C64.4055 18.349 64.2376 18.4021 64.0834 18.51L60.8746 20.8451C60.4994 21.121 60.4154 21.6486 60.6827 22.0324H60.6844ZM63.5643 27.9515L63.5712 27.9447L63.5729 27.943C63.4272 27.4993 63.6722 27.0161 64.116 26.8705L71.0322 24.6194C71.1161 24.5971 71.2087 24.5817 71.2926 24.5817C71.6438 24.5817 71.9813 24.8112 72.0961 25.171C72.2417 25.6147 71.9967 26.0979 71.553 26.2435L64.6368 28.4946C64.1913 28.6403 63.7099 28.3953 63.5643 27.9515ZM69.2916 35.3269C69.7593 35.3269 70.1413 34.9432 70.1413 34.4772C70.1413 34.0112 69.7593 33.6274 69.2916 33.6274H65.3238C64.8561 33.6274 64.474 34.0112 64.474 34.4772C64.474 34.9432 64.8578 35.3269 65.3238 35.3269H69.2916ZM71.3149 42.68C71.7586 42.8257 72.0036 43.3088 71.858 43.7525L71.8597 43.7542C71.7141 44.1979 71.2309 44.4429 70.7872 44.2973L63.871 42.0462C63.4272 41.9005 63.1823 41.4174 63.3279 40.9737C63.4427 40.6139 63.7716 40.3843 64.1314 40.3843C64.2153 40.3843 64.3078 40.3912 64.3918 40.422L71.308 42.6732L71.3149 42.68ZM64.8201 50.1085C65.0959 49.7248 65.012 49.1971 64.6368 48.9213L61.4279 46.5862H61.4194C61.2669 46.4782 61.0973 46.4251 60.9208 46.4251C60.6604 46.4251 60.4 46.5485 60.2321 46.778C59.9563 47.1618 60.0402 47.6895 60.424 47.9653L63.6328 50.3004C64.0149 50.5762 64.5443 50.4923 64.8201 50.1085ZM55.4916 51.342C55.6441 51.2341 55.812 51.181 55.9885 51.181C56.2557 51.181 56.5093 51.3044 56.6772 51.5339L60.9517 57.4239C61.2189 57.8077 61.135 58.3354 60.7598 58.6112C60.376 58.887 59.8483 58.7945 59.5725 58.4193L55.2998 52.5293C55.0325 52.1455 55.1165 51.6179 55.4916 51.342ZM50.6518 54.7719C50.537 54.4121 50.1995 54.1825 49.8483 54.1825C49.7644 54.1825 49.6719 54.198 49.5879 54.2202C49.1442 54.3659 48.8992 54.849 49.0448 55.2927L50.2698 59.0755C50.4154 59.5192 50.89 59.7642 51.3422 59.6186C51.786 59.4729 52.031 58.9898 51.8853 58.5461L50.6604 54.7633L50.6535 54.7702L50.6518 54.7719ZM42.61 55.99C42.61 55.5206 42.9903 55.1402 43.4598 55.1402C43.9292 55.1402 44.3095 55.5206 44.3095 55.99V63.2729C44.3095 63.7423 43.9292 64.1226 43.4598 64.1226C42.9903 64.1226 42.61 63.7423 42.61 63.2729V55.99ZM43.4512 51.1416C34.0319 51.1416 26.3962 43.5058 26.3962 34.0866C26.3962 24.6673 34.0319 17.0315 43.4512 17.0315C52.8704 17.0315 60.5062 24.6673 60.5062 34.0866C60.5062 43.5058 52.8704 51.1416 43.4512 51.1416ZM43.9343 30.7938L45.872 22.5686C46.0022 22.0393 45.2655 21.7566 44.9982 22.2311L38.1128 34.347C37.9603 34.6228 38.1128 34.9672 38.4195 35.0357L41.8116 35.8169C42.0875 35.8786 42.2485 36.1613 42.156 36.4217L39.0774 45.5668C38.9009 46.0945 39.6444 46.4405 39.9357 45.9574L47.9467 32.8531H47.9398C48.1008 32.5772 47.9552 32.226 47.6417 32.1489L44.2872 31.3608C44.0337 31.2992 43.8726 31.0473 43.9343 30.7938ZM61.3988 73.0896L60.7615 72.5807C60.7204 72.5482 60.6797 72.5156 60.639 72.4831C60.5983 72.4505 60.5576 72.418 60.5165 72.3854C60.4207 72.3097 60.3249 72.2327 60.2301 72.1565L60.1739 72.1113C60.1531 72.0947 60.1323 72.0783 60.1116 72.0619L60.1109 72.0614L60.1102 72.0609L60.1096 72.0603C60.0712 72.03 60.0331 71.9999 59.9957 71.9691C59.994 71.9678 59.9924 71.9665 59.9908 71.9653C59.9893 71.964 59.9879 71.9628 59.9864 71.9616L59.986 71.9612C59.9831 71.9587 59.9802 71.9562 59.9768 71.9537C58.9695 71.1502 57.9621 70.3467 56.953 69.5432C56.5107 69.1915 56.0696 68.8387 55.6285 68.4861L55.6285 68.4861L55.6284 68.486L55.6259 68.484C55.2837 68.2103 54.9415 67.9367 54.5991 67.6638C54.3531 67.4677 54.1062 67.2725 53.8597 67.0774L53.8588 67.0768L53.5334 66.8192C53.4084 66.7207 53.2837 66.6218 53.1591 66.5228C53.0345 66.4239 52.9098 66.3249 52.7848 66.2264C52.6965 66.157 52.6086 66.0872 52.5208 66.0173L52.3685 65.8964L52.2571 65.8084C51.469 65.1899 50.7512 65.2293 50.1618 65.9523C49.8758 66.3033 49.5878 66.653 49.2998 67.0027L49.2996 67.003L49.2994 67.0032L49.2981 67.0048C48.2257 68.3072 47.1526 69.6104 46.1752 70.9806C44.3866 73.4853 44.6744 77.03 47.0918 78.7397C48.0443 79.413 48.9694 80.1394 49.8329 80.9241C52.6015 83.4442 56.3688 82.173 58.2362 79.7899C58.8984 78.9442 59.5702 78.1063 60.2419 77.2684L60.2421 77.2683C60.7052 76.6906 61.1684 76.1129 61.6284 75.5326C62.4147 74.5407 62.3513 73.8554 61.3988 73.0913V73.0896ZM79.7496 46.9689C79.7691 46.9721 79.7897 46.9755 79.8073 46.9819H79.8056C79.9889 47.0419 80.0386 47.1001 79.9717 47.3263C79.9523 47.3908 79.931 47.4562 79.91 47.5212L79.9098 47.5217L79.8844 47.6004L79.8719 47.6387C79.8141 47.8168 79.7546 47.9997 79.713 48.1932C79.1854 50.643 78.644 52.6081 78.0067 54.3779C77.9214 54.6143 77.8664 54.8568 77.8132 55.0911L77.8028 55.1368L77.7977 55.1593L77.7977 55.1595C77.7516 55.3618 77.7081 55.5531 77.6486 55.7364C77.575 55.9609 77.5081 56.1887 77.4413 56.4183L77.4405 56.4213C77.2592 57.0404 77.0879 57.6252 76.7903 58.1281C75.5893 60.1548 74.2753 62.1336 73.2628 63.6309C72.2006 65.2036 70.693 66.2538 68.7571 67.3486C68.2876 67.6141 67.7959 67.8677 67.3762 68.0818L67.1038 68.2206L66.9509 68.2985L66.9485 68.2998C66.7512 68.4004 66.5525 68.5016 66.3517 68.6061C66.3294 68.6129 66.3072 68.6215 66.2849 68.6318L62.2537 70.6602C62.2383 70.6671 62.2246 70.6756 62.2109 70.6859C61.9864 70.8435 61.8065 70.9874 61.6472 71.1365C61.4793 71.2941 61.3114 71.4603 61.1487 71.6368L60.878 71.4209L60.8591 71.4055C60.3555 71.0037 59.8513 70.602 59.3472 70.2002C58.8431 69.7985 58.339 69.3967 57.8353 68.995C57.5472 68.7663 57.2597 68.5364 56.972 68.3064C56.7876 68.159 56.6032 68.0115 56.4185 67.8643L55.4814 67.1156C55.2325 66.9162 54.9836 66.7196 54.7335 66.522L54.733 66.5216L54.7325 66.5211L54.6522 66.4577L54.6059 66.4217C55.1901 64.8045 56.0759 63.3739 57.2426 62.1627C58.2448 61.1228 59.5451 60.4683 61.3371 60.1051C63.1052 59.7453 64.6368 59.1697 66.0211 58.3457L66.3705 58.1384C67.1895 57.6518 68.0341 57.1481 68.8564 56.6324C69.3241 56.3378 69.7918 56.0277 70.2424 55.7279C70.5988 55.4897 70.9568 55.2516 71.3183 55.0203C71.4262 54.9501 71.5342 54.8798 71.6404 54.8096C72.0361 54.5492 72.4113 54.3025 72.8139 54.1311C73.1789 53.977 73.5609 53.929 73.871 54.6177C74.0252 54.9603 74.0286 55.2584 73.8813 55.584C73.0966 57.3177 71.8751 58.7037 70.1448 59.8242C68.8633 60.6534 67.5252 61.5699 66.4785 62.8291C66.2164 63.1444 66.0022 63.4904 65.7949 63.8262L65.7684 63.8689C65.685 64.0034 65.6024 64.1365 65.5157 64.2682C65.4163 64.4207 65.4523 64.6246 65.5996 64.7325L65.7881 64.8713C65.9303 64.9758 66.129 64.9535 66.2472 64.8216C66.2781 64.7862 66.3089 64.7523 66.3398 64.7183L66.386 64.6674C66.4922 64.5526 66.6001 64.4327 66.7029 64.3042C66.8453 64.1262 66.9776 63.9382 67.1065 63.7551L67.1107 63.7491L67.119 63.7372C67.3814 63.3648 67.6279 63.0149 67.9398 62.7606C68.6598 62.1717 69.4626 61.6471 70.239 61.1397L70.2391 61.1396L70.2544 61.1296L70.7941 60.775L71.0356 60.6157L71.039 60.6134C72.1533 59.8809 73.3046 59.1239 74.02 57.8694C74.0814 57.7606 74.145 57.653 74.2091 57.5446L74.253 57.4702L74.2579 57.462L74.2579 57.4619C74.5871 56.9025 74.9273 56.3243 75.1182 55.6902C75.3426 54.9432 75.1628 54.1774 74.6385 53.6446C74.1023 53.0998 73.3245 52.9062 72.5535 53.1238C72.0838 53.2565 71.658 53.4958 71.2459 53.7274L71.2458 53.7275L71.2378 53.732C71.2199 53.7421 71.2018 53.7523 71.1836 53.7624L71.1602 53.7755L71.1308 53.7918L71.0819 53.8193C71.2309 53.5332 71.3748 53.2506 71.5068 52.9679C71.6455 52.6698 71.7723 52.3614 71.8939 52.0633C72.0875 51.5922 72.2709 51.1467 72.5056 50.7253C72.9596 49.9132 73.4393 49.6237 74.1108 49.7607C74.2804 49.795 74.4466 49.6991 74.5032 49.5363C74.8852 48.421 75.3615 47.734 75.8429 47.6021C76.1256 47.525 76.446 47.6364 76.7972 47.9362C76.8811 48.0081 76.9959 48.0355 77.1038 48.0081C77.2118 47.9807 77.3008 47.9036 77.3402 47.7991L77.3865 47.6809L77.4073 47.6269L77.4073 47.6267C77.4255 47.5796 77.4412 47.5391 77.455 47.4976C77.6298 46.9956 77.933 46.6787 78.3836 46.5262C78.8068 46.384 79.0997 46.4577 79.3618 46.7746C79.4766 46.9151 79.6394 46.9477 79.7456 46.9682L79.7496 46.9689ZM24.8457 71.6385L24.8524 71.6331L24.8543 71.6351L24.8457 71.6385ZM24.8524 71.6331L28.159 68.9967L28.1598 68.9961C28.6392 68.6143 29.1187 68.2324 29.5964 67.8489L30.513 67.1173C30.782 66.9032 31.051 66.6907 31.3199 66.4783L31.3885 66.4235C30.8042 64.8062 29.9185 63.3757 28.7518 62.1644C27.7496 61.1245 26.4493 60.47 24.6572 60.1068C22.8892 59.7471 21.3576 59.1731 19.9733 58.3474L19.6358 58.1469C18.8135 57.6587 17.9637 57.1516 17.138 56.6342C16.6708 56.3416 16.2054 56.0319 15.7554 55.7324L15.7552 55.7323L15.7537 55.7313C15.3956 55.4932 15.0376 55.255 14.6761 55.022C14.5682 54.9535 14.462 54.8833 14.3558 54.8131L14.3557 54.813C13.9599 54.5509 13.5847 54.3042 13.1821 54.1329C12.8172 53.9787 12.4352 53.9307 12.1251 54.6194C11.9709 54.9621 11.9675 55.2602 12.1148 55.584C12.8995 57.3177 14.121 58.7037 15.8513 59.8242C17.1328 60.6534 18.4708 61.5682 19.5176 62.8291C19.7711 63.134 19.9797 63.4692 20.1822 63.7947L20.1822 63.7947L20.2029 63.8279C20.2937 63.9753 20.3862 64.1243 20.4821 64.2682C20.5832 64.4207 20.5455 64.6246 20.3999 64.7325L20.2115 64.8713C20.0693 64.9758 19.8688 64.9552 19.7523 64.8216L19.6135 64.6674L19.6049 64.6579C19.503 64.546 19.3966 64.4292 19.2983 64.3042C19.1561 64.1247 19.0239 63.9369 18.8951 63.7539L18.8951 63.7539L18.8906 63.7474C18.6267 63.3705 18.3766 63.0159 18.0631 62.7589C17.3384 62.1678 16.5298 61.6385 15.7485 61.1279C15.6885 61.0885 15.6285 61.0493 15.5685 61.01C15.4487 60.9316 15.3288 60.8532 15.2089 60.7733L14.9673 60.614C13.8537 59.8824 12.7007 59.1235 11.9846 57.8677C11.9263 57.7657 11.866 57.6626 11.806 57.5601L11.8059 57.56L11.7533 57.4702L11.7485 57.4619C11.4193 56.9026 11.0791 56.3244 10.8882 55.6902C10.6637 54.9432 10.8419 54.1774 11.3679 53.6446C11.9041 53.0998 12.6836 52.9062 13.4528 53.1238C13.9226 53.2566 14.3484 53.4959 14.7605 53.7275L14.7686 53.732C14.7943 53.7465 14.8204 53.7611 14.8465 53.7757C14.8727 53.7902 14.8988 53.8048 14.9245 53.8194C14.7754 53.5315 14.6332 53.2506 14.4996 52.9679C14.3757 52.7034 14.2637 52.4322 14.1544 52.1673L14.1107 52.0616L14.092 52.0161C13.9054 51.5617 13.728 51.1298 13.5008 50.7236C13.0468 49.9115 12.5671 49.622 11.8955 49.759C11.7276 49.7933 11.5597 49.6974 11.5032 49.5346C11.1194 48.4193 10.6449 47.7323 10.1635 47.6004C9.88078 47.5233 9.5587 47.6364 9.20749 47.9345C9.12354 48.0064 9.00876 48.0338 8.90083 48.0064C8.79289 47.979 8.70552 47.9002 8.6644 47.7974L8.61643 47.6758C8.58908 47.6057 8.56855 47.5509 8.54804 47.4963L8.54799 47.4961L8.5479 47.4959C8.37316 46.9956 8.0682 46.677 7.61934 46.5245C7.19618 46.3806 6.90322 46.456 6.6411 46.7729C6.52784 46.9098 6.36788 46.9433 6.26161 46.9656L6.25734 46.9665C6.23678 46.9699 6.21451 46.9751 6.19566 46.9802C6.01064 47.0402 5.96095 47.0984 6.02948 47.3228C6.04865 47.3875 6.0695 47.4514 6.09026 47.515L6.11686 47.597C6.18024 47.7871 6.24363 47.9841 6.28818 48.1897C6.81413 50.6396 7.35551 52.6047 7.99454 54.3744C8.08534 54.6263 8.14359 54.885 8.19841 55.1334L8.20358 55.1561C8.24961 55.3584 8.29314 55.5498 8.3526 55.7347C8.42627 55.9592 8.49308 56.187 8.5599 56.4149L8.56079 56.4179C8.74206 57.037 8.91331 57.6218 9.21092 58.1264C10.4102 60.1548 11.7259 62.1319 12.7384 63.6292C13.8006 65.2019 15.3082 66.2521 17.2442 67.3469C17.717 67.6141 18.207 67.866 18.6284 68.0818L18.894 68.2172C18.9934 68.2682 19.0933 68.3193 19.1936 68.3706L19.2005 68.374L19.2021 68.3749C19.3515 68.4512 19.5019 68.528 19.6529 68.6061C19.6752 68.6112 19.6975 68.6198 19.7181 68.6301L23.7492 70.6585C23.7647 70.6654 23.7784 70.6739 23.7921 70.6842C24.0182 70.8418 24.1964 70.9857 24.3557 71.1348C24.523 71.2918 24.6903 71.459 24.8524 71.6331ZM33.739 65.8084C34.5288 65.1917 35.2466 65.2311 35.8342 65.9523L35.8325 65.9506C36.1163 66.2988 36.402 66.6458 36.6876 66.9929C37.7625 68.2987 38.8379 69.6051 39.8192 70.9789C41.6095 73.4836 41.3217 77.0282 38.9026 78.738C37.9501 79.4113 37.0249 80.1377 36.1615 80.9224C33.3929 83.4425 29.6256 82.173 27.7582 79.7882C27.0959 78.9425 26.4241 78.1045 25.7523 77.2665C25.2892 76.6888 24.826 76.1111 24.366 75.5309C23.5796 74.5407 23.643 73.8537 24.5956 73.0896C24.7372 72.9753 24.8788 72.8627 25.0204 72.75C25.0913 72.6936 25.1621 72.6373 25.2329 72.5807C25.274 72.5482 25.3147 72.5156 25.3554 72.483C25.3961 72.4505 25.4368 72.418 25.4779 72.3854C25.5353 72.34 25.5927 72.2942 25.6501 72.2483C25.7075 72.2025 25.7649 72.1567 25.8222 72.1113C25.8596 72.0806 25.8976 72.0505 25.9359 72.0203C25.9573 72.0034 25.9789 71.9864 26.0004 71.9691C26.0048 71.9658 26.0085 71.9625 26.0124 71.9592C26.0145 71.9574 26.0168 71.9556 26.0192 71.9537C26.5232 71.5517 27.0276 71.1498 27.532 70.7478C28.0358 70.3463 28.5397 69.9447 29.0431 69.5432C29.8277 68.9179 30.6124 68.2909 31.397 67.6638C31.6429 67.4678 31.8896 67.2726 32.136 67.0777C32.245 66.9915 32.3539 66.9054 32.4626 66.8192C32.5878 66.7206 32.7126 66.6216 32.8373 66.5226C32.9618 66.4237 33.0864 66.3249 33.2113 66.2264C33.2995 66.1571 33.3873 66.0873 33.475 66.0175C33.5629 65.9477 33.6507 65.8778 33.739 65.8084Z" fill="url(#paint0_linear_336_366)"/>
<defs>
<linearGradient id="paint0_linear_336_366" x1="72.617" y1="11.7451" x2="12.3353" y2="68.8625" gradientUnits="userSpaceOnUse">
<stop stop-color="#FFCC00"/>
<stop offset="1" stop-color="#FF6633"/>
</linearGradient>
</defs>
</svg>
