<svg width="86" height="86" viewBox="0 0 86 86" fill="none" xmlns="http://www.w3.org/2000/svg">
<path fill-rule="evenodd" clip-rule="evenodd" d="M15.5034 66.0558V17.2076C15.5034 15.3934 16.9824 13.9144 18.7965 13.9144H24.3395V9.41464C24.3395 8.90768 24.7439 8.50337 25.2508 8.50337H38.7188C39.2257 8.50337 39.63 8.90978 39.63 9.41464V13.9144H45.1731C46.9872 13.9144 48.4662 15.3934 48.4662 17.2076V30.73C49.1575 30.4744 49.9033 30.334 50.6805 30.334C50.7329 30.334 50.7852 30.3361 50.8376 30.3403C50.8654 30.3403 50.894 30.3426 50.9224 30.3449C50.9411 30.3464 50.9597 30.3479 50.978 30.3487V17.2285C50.978 14.0255 48.3845 11.4215 45.1814 11.4215H42.1418V9.42512C42.1418 7.53973 40.6125 6 38.7271 6H25.2529C23.3675 6 21.8383 7.52926 21.8383 9.42512V11.4215H18.7986C15.5935 11.4215 13 14.0171 13 17.2285V66.0768C13 69.2798 15.5935 71.8838 18.7965 71.8838H36.9109V69.3511H18.7965C16.9824 69.3511 15.5034 67.8721 15.5034 66.0579V66.0558ZM34.5395 53.2771H36.7998C36.8543 53.2771 36.9088 53.2792 36.9612 53.2834C39.1 53.3357 40.9896 54.423 42.1564 56.0696V51.685H33.1548C33.6952 52.1291 34.1666 52.6633 34.5374 53.275L34.5395 53.2771ZM34.5625 59.8005H36.8019L36.804 59.8026C36.848 59.8026 36.913 59.8571 36.913 59.943V66.5334H20.6023C19.3475 66.5334 18.3315 65.5153 18.3315 64.2626V53.9558C18.3315 52.701 19.3496 51.685 20.6023 51.685H25.3618C23.9604 52.8351 23.0617 54.5906 23.0617 56.5556C23.0617 60.0142 25.8437 62.8255 29.2604 62.8255C31.4684 62.8255 33.4585 61.6524 34.5625 59.8005ZM37.7425 38.1626C39.9631 38.1626 41.9721 39.3546 43.0719 41.2316C44.0083 41.3803 44.8798 41.7302 45.6423 42.2329V41.0095C44.7352 39.8741 44.2073 38.4349 44.2073 36.8889C44.2073 36.1452 44.333 35.4309 44.5593 34.7626C44.2136 34.5489 43.8072 34.4253 43.3715 34.4253H20.6002C19.3475 34.4253 18.3294 35.4413 18.3294 36.6962V46.5965C18.3294 47.8493 19.3454 48.8674 20.6002 48.8674H33.3664C32.2414 47.732 31.5438 46.1629 31.5438 44.4325C31.5438 40.976 34.3237 38.1626 37.7425 38.1626ZM42.1415 48.8535L42.1504 48.8453L42.158 48.8381V48.8689H42.125C42.1302 48.8638 42.1358 48.8586 42.1415 48.8535ZM43.3736 17.1678H20.6023C19.3481 17.1678 18.3315 18.1845 18.3315 19.4386V29.339C18.3315 30.5931 19.3481 31.6098 20.6023 31.6098H43.3736C44.6277 31.6098 45.6444 30.5931 45.6444 29.339V19.4386C45.6444 18.1845 44.6277 17.1678 43.3736 17.1678ZM55.0399 38.3951C55.0001 38.5124 54.9561 38.6276 54.9079 38.7408H54.9142C54.866 38.8539 54.8137 38.9649 54.7571 39.0739C54.7005 39.1828 54.6398 39.2896 54.5748 39.3923C54.3863 39.6939 54.1643 39.9725 53.9129 40.2239C53.9088 40.2267 53.9056 40.2303 53.9021 40.2342C53.9002 40.2363 53.8983 40.2385 53.8961 40.2407C53.7683 40.3685 53.6322 40.4879 53.4897 40.5989C53.0623 40.9341 52.5742 41.1939 52.0484 41.3594V79.8589C51.1812 79.8883 50.2783 79.9071 49.3377 79.9176V41.3531C49.0339 41.2588 48.7469 41.1289 48.4746 40.976C47.0605 40.1799 46.0969 38.6486 46.0969 36.891C46.0969 36.5684 46.1304 36.2542 46.1912 35.9504C46.2373 35.7221 46.3001 35.5 46.3776 35.2863C46.4279 35.1439 46.4865 35.0035 46.5515 34.8673C46.6039 34.7542 46.6625 34.6474 46.7233 34.5405C46.7735 34.4526 46.8259 34.3646 46.8825 34.2808C46.9244 34.22 46.9663 34.1593 47.0103 34.0985C47.0982 33.9791 47.1925 33.8639 47.291 33.7529C47.3978 33.6356 47.5067 33.5224 47.6241 33.4177C47.7414 33.313 47.8629 33.2124 47.9886 33.1181C48.1436 33.0029 48.3049 32.8982 48.4746 32.8039C49.1303 32.4331 49.8865 32.2215 50.6889 32.2215L50.691 32.2257H50.693C50.7915 32.2257 50.89 32.2299 50.9863 32.2362C52.0568 32.3053 53.0309 32.7494 53.7788 33.4407C53.8333 33.491 53.8856 33.5434 53.938 33.5958C54.7676 34.4421 55.2829 35.6089 55.2829 36.8973C55.2829 37.421 55.197 37.9238 55.0399 38.3951ZM50.6868 39.0927C50.7873 39.0927 50.8858 39.0822 50.9842 39.0697V39.0739C52.0652 38.9272 52.901 38.0034 52.901 36.8805C52.901 35.7577 52.0673 34.8338 50.9842 34.6872C50.8879 34.6725 50.7873 34.6641 50.6868 34.6641C49.4634 34.6641 48.4725 35.655 48.4725 36.8784C48.4725 38.1018 49.4634 39.0927 50.6868 39.0927ZM41.1174 58.045C41.0818 57.9612 41.0441 57.8795 41.0043 57.7999C40.8115 57.4124 40.5685 57.0541 40.2836 56.7357C39.4226 55.7742 38.1804 55.1688 36.804 55.1688V55.1646H33.3496C33.2784 54.9467 33.1904 54.7393 33.0877 54.5382C33.0437 54.4502 32.9956 54.3643 32.9453 54.2805C32.4404 53.4405 31.6632 52.7848 30.7415 52.4412C30.2806 52.2695 29.782 52.1752 29.2646 52.1752C28.8938 52.1752 28.5335 52.2234 28.1878 52.3134C28.0579 52.347 27.9323 52.3868 27.8087 52.4329C27.5908 52.5125 27.3813 52.6088 27.1823 52.7219C26.5832 53.0592 26.072 53.5369 25.6886 54.1109C25.2236 54.8105 24.9512 55.6527 24.9512 56.5598C24.9512 58.9772 26.8869 60.9443 29.2646 60.9443C30.3099 60.9443 31.2694 60.5652 32.0152 59.9325C32.122 59.8424 32.2246 59.7461 32.321 59.6476C32.5158 59.4465 32.6897 59.2265 32.8447 58.9919C32.9704 58.7992 33.0835 58.596 33.1778 58.3844C33.226 58.2775 33.27 58.1686 33.3098 58.0576C33.3138 58.0465 33.318 58.0355 33.3222 58.0245L33.327 58.012L33.327 58.0119C33.3387 57.9817 33.3503 57.9514 33.3601 57.9193H36.8061C37.9038 57.9193 38.8005 58.8285 38.8005 59.9451V79.5112C39.4247 79.5719 40.0762 79.6285 40.7529 79.6767C40.778 79.6767 40.8032 79.6809 40.8283 79.683C41.0524 79.6997 41.2787 79.7144 41.5091 79.729V59.9493C41.5091 59.3585 41.4023 58.7929 41.2096 58.2692C41.1823 58.1938 41.153 58.1204 41.1216 58.0471L41.1174 58.045ZM29.2583 58.7719C28.0349 58.7719 27.044 57.7811 27.044 56.5577C27.044 55.3343 28.0349 54.3434 29.2583 54.3434C30.4817 54.3434 31.4726 55.3343 31.4726 56.5577C31.4726 57.7811 30.4817 58.7719 29.2583 58.7719ZM45.6444 44.7426C45.9963 45.1657 46.2792 45.6497 46.4698 46.1776L46.4677 46.1755C46.5138 46.3033 46.5557 46.4352 46.5913 46.5672C46.6981 46.9673 46.7547 47.3863 46.7547 47.8178V79.9176H46.7463C45.8099 79.9071 44.9112 79.8862 44.046 79.8526V47.8178C44.046 47.6817 44.0314 47.5497 44.0062 47.4219C43.9622 47.2041 43.8868 46.9967 43.78 46.8102C43.7255 46.7118 43.6606 46.6175 43.5893 46.5295C43.5076 46.429 43.4176 46.3368 43.3191 46.2551C42.9734 45.966 42.5314 45.7921 42.0517 45.7921H41.8464C41.8108 45.901 41.7731 46.01 41.7291 46.1147C41.3834 46.961 40.7822 47.6733 40.026 48.153C39.8374 48.2745 39.6384 48.3793 39.431 48.4694C39.121 48.6055 38.7921 48.704 38.4485 48.7605C38.2202 48.8003 37.9855 48.8192 37.7467 48.8192C37.4493 48.8192 37.1602 48.7878 36.8795 48.7291C36.5987 48.6705 36.3285 48.5846 36.0708 48.4735C34.6526 47.8639 33.6177 46.5023 33.4564 44.8829C33.4418 44.7342 33.4334 44.5855 33.4334 44.4346C33.4334 42.0171 35.3691 40.0501 37.7467 40.0501C38.2642 40.0501 38.7627 40.1443 39.2236 40.3161C40.1454 40.6597 40.9226 41.3154 41.4274 42.1554C41.4777 42.2392 41.5259 42.3251 41.5699 42.4131C41.6725 42.6142 41.7605 42.8216 41.8317 43.0394H42.0517C43.4909 43.0394 44.7813 43.7035 45.6444 44.7426ZM35.5283 44.4346C35.5283 45.658 36.5191 46.6489 37.7425 46.6489C38.9659 46.6489 39.9568 45.658 39.9568 44.4346C39.9568 43.2112 38.9659 42.2203 37.7425 42.2203C36.5191 42.2203 35.5283 43.2112 35.5283 44.4346ZM71.7486 50.2102C71.6523 49.9379 71.5307 49.676 71.3883 49.4309C71.294 49.2696 71.1893 49.1146 71.0762 48.9658C71.0604 48.9459 71.0447 48.9255 71.029 48.905C71.0133 48.8846 70.9976 48.8642 70.9819 48.8443C70.9316 48.7836 70.8813 48.727 70.829 48.6684C70.4624 48.2703 70.0224 47.9415 69.5322 47.7026C69.3228 47.6 69.1028 47.5162 68.8765 47.4492C68.4974 47.3381 68.0993 47.2795 67.6867 47.2795V47.2753C66.7021 47.2753 65.7929 47.6126 65.066 48.1803C64.9445 48.2745 64.8293 48.3751 64.7182 48.4819C64.6072 48.5888 64.5025 48.7019 64.404 48.8192C64.3328 48.9051 64.2636 48.9931 64.1987 49.0853C63.9368 49.4519 63.7294 49.8604 63.5891 50.2982H62.6192C61.932 50.2982 61.3245 49.9421 60.9663 49.4037C60.9307 49.3492 60.8972 49.2947 60.8658 49.2361C60.7128 48.9491 60.6248 48.6202 60.6248 48.2703V32.6635C60.2038 32.6028 59.7659 32.5441 59.3134 32.4897C59.0872 32.4624 58.8568 32.4352 58.6242 32.4101L58.4418 32.3901L58.4414 32.3901C58.2679 32.371 58.0921 32.3517 57.9141 32.3346V48.2787C57.9141 49.588 58.4357 50.7779 59.2778 51.641C59.3344 51.6996 59.391 51.7541 59.4496 51.8086C59.5544 51.9049 59.6633 51.9971 59.7764 52.0851C60.5662 52.6947 61.5487 53.0571 62.615 53.0571H63.5996C63.7064 53.3818 63.8509 53.6919 64.0269 53.9768C64.0856 54.0731 64.1484 54.1653 64.2134 54.2554C64.2615 54.3224 64.3139 54.3895 64.3663 54.4544C64.471 54.5843 64.5841 54.7079 64.7036 54.8231C65.4787 55.5794 66.5303 56.0465 67.6867 56.0465C68.7257 56.0465 69.6831 55.6694 70.4288 55.0431C70.5357 54.953 70.6383 54.8587 70.7347 54.7603C70.8876 54.6031 71.028 54.4335 71.1558 54.2533C71.2207 54.1632 71.2836 54.071 71.3422 53.9747C71.4449 53.8071 71.5391 53.6311 71.6187 53.4489C71.6983 53.2666 71.7696 53.0781 71.8261 52.8833C71.9392 52.4957 72 52.0851 72 51.6599C72 51.1508 71.912 50.6606 71.7528 50.206L71.7486 50.2102ZM67.6385 53.9014C66.4151 53.9014 65.4242 52.9105 65.4242 51.6871C65.4242 50.4637 66.4151 49.4728 67.6385 49.4728C68.8619 49.4728 69.8528 50.4637 69.8528 51.6871C69.8528 52.9105 68.8619 53.9014 67.6385 53.9014ZM67.32 59.0547C67.4541 59.0987 67.5861 59.1469 67.716 59.2035L67.7223 59.2098C69.1405 59.8194 70.1733 61.181 70.3367 62.8004C70.3513 62.9491 70.3597 63.0979 70.3597 63.2487C70.3597 63.343 70.3576 63.4372 70.3513 63.5294C70.3094 64.1788 70.1293 64.7926 69.8381 65.3352C69.107 66.701 67.6804 67.6312 66.0464 67.6312C65.7698 67.6312 65.4975 67.6018 65.2336 67.5495C65.2014 67.5439 65.1693 67.5364 65.1372 67.529C65.1211 67.5252 65.1051 67.5215 65.089 67.518C64.2804 67.3295 63.5556 66.9147 62.9899 66.3344C62.814 66.1543 62.6527 65.9594 62.5102 65.75C62.2714 65.4022 62.0808 65.0168 61.9488 64.6062H59.326C58.2283 64.6062 57.3317 65.5153 57.3317 66.6319V79.5258C56.6886 79.5887 56.0203 79.6432 55.3248 79.6913C55.0923 79.7081 54.8577 79.7228 54.6209 79.7374V66.6298C54.6209 65.3917 55.0839 64.2647 55.8422 63.4142C55.9428 63.3011 56.0475 63.1942 56.1565 63.0937C56.9923 62.3186 58.1026 61.8451 59.3197 61.8451H61.9509C62.0933 61.4115 62.3028 61.0093 62.5647 60.6469C62.6296 60.5547 62.6988 60.4688 62.77 60.3829C62.8789 60.253 62.9962 60.1336 63.1198 60.0184C63.3209 59.8278 63.5367 59.656 63.7713 59.5093C64.184 59.2496 64.6407 59.0589 65.1288 58.9521C65.4221 58.8872 65.7238 58.8536 66.0359 58.8536L66.0401 58.8578C66.1888 58.8578 66.3355 58.8662 66.48 58.8809C66.7691 58.9102 67.0498 58.9689 67.32 59.0547ZM63.8195 63.2382C63.8195 64.4616 64.8104 65.4525 66.0338 65.4525C67.2572 65.4525 68.2481 64.4616 68.2481 63.2382C68.2481 62.0148 67.2572 61.0239 66.0338 61.0239C64.8104 61.0239 63.8195 62.0148 63.8195 63.2382Z" fill="url(#paint0_linear_406_120)"/>
<defs>
<linearGradient id="paint0_linear_406_120" x1="66.1135" y1="13.2626" x2="10.4787" y2="57.7519" gradientUnits="userSpaceOnUse">
<stop stop-color="#FFCC00"/>
<stop offset="1" stop-color="#FF6633"/>
</linearGradient>
</defs>
</svg>
