<svg width="86" height="86" viewBox="0 0 86 86" fill="none" xmlns="http://www.w3.org/2000/svg">
<path fill-rule="evenodd" clip-rule="evenodd" d="M54.2596 62.64C51.6076 62.1091 34.9516 60.8415 34.9516 60.8415L34.9304 60.8361C34.9304 60.8361 34.5265 42.8566 35.0101 42.4883C35.5175 42.1012 36.445 41.5604 37.5046 40.9425C39.9298 39.5284 43.0468 37.7109 43.4018 36.4103C43.8525 34.7673 48.2813 31.2101 49.6213 30.1339L49.6306 30.1264C50.9592 29.0592 56.396 22.6508 56.396 22.6508C57.2836 20.0993 59.149 17.9379 59.149 17.9379L59.4945 17.9162L59.7496 18.2846C61.7052 18.6915 61.7004 21.5669 61.6998 21.9417C61.6998 21.961 61.6998 21.9737 61.7 21.979C61.8063 24.4113 60.4245 27.8187 60.0897 28.4525C59.7017 29.1892 57.9373 32.9541 57.6397 33.7721C57.3667 34.5273 58.2113 35.5057 58.5704 35.9217C58.6029 35.9594 58.6314 35.9924 58.6548 36.0202C58.9364 36.3561 59.8346 36.7407 60.7168 36.8599C61.3899 36.9508 64.6271 36.6665 66.5492 36.4978C67.1465 36.4453 67.6169 36.404 67.8437 36.3886C68.2924 36.3568 68.6631 36.3747 69.0717 36.3944C69.5681 36.4184 70.1205 36.445 70.9368 36.3886C73.2634 36.2212 73.3171 38.7673 73.3451 40.0974C73.3489 40.2743 73.3521 40.4297 73.3602 40.5544C73.4047 41.274 72.5461 42.1708 71.8093 42.7818C72.6943 42.926 73.4547 44.1997 73.5569 45.809C73.6632 47.4233 73.0679 48.783 72.207 49.043C71.8881 49.1567 71.5427 49.2055 71.5427 49.2055C71.5675 49.2813 71.5875 49.3524 71.6076 49.4234C71.6177 49.4589 71.6277 49.4944 71.6383 49.5305C72.0847 50.0885 72.4036 50.9498 72.4674 51.952C72.5564 53.3447 71.9074 54.1334 71.3445 54.8175C71.2352 54.9503 71.1292 55.0791 71.0325 55.2077C70.5382 55.4514 69.5975 55.5706 69.5975 55.5706C69.9323 60.7981 67.3813 61.8111 67.3813 61.8111C67.3813 61.8111 63.1722 62.8512 62.7364 62.8783C62.3059 62.9054 56.9116 63.1763 54.2596 62.64ZM30.1273 38.6338H20.8589V38.6232C15.418 38.6232 11 42.6665 11 47.6461V54.9772C11 59.9568 15.418 64 20.8589 64H30.1273C31.4348 64 32.4892 63.0318 32.4892 61.8401V40.7938C32.4892 39.6021 31.4348 38.6338 30.1273 38.6338Z" fill="url(#paint0_linear_95_1571)"/>
<defs>
<linearGradient id="paint0_linear_95_1571" x1="67.3265" y1="22.4441" x2="33.3896" y2="68.6066" gradientUnits="userSpaceOnUse">
<stop stop-color="#FFCC00"/>
<stop offset="1" stop-color="#FF6633"/>
</linearGradient>
</defs>
</svg>
