<svg width="86" height="86" viewBox="0 0 86 86" fill="none" xmlns="http://www.w3.org/2000/svg">
<path fill-rule="evenodd" clip-rule="evenodd" d="M57.9889 42.3759V7.86036C57.9889 6.83605 57.1633 6 56.1285 6H24.6549C24.1638 6 23.6931 6.19878 23.3377 6.54373L10.5437 19.3798C10.1988 19.7247 10 20.2053 10 20.697V67.599C10 68.6233 10.8255 69.4594 11.8604 69.4594H32.4314C33.32 69.4594 34.0409 68.7379 34.0409 67.8393V50.3623C34.0409 49.9653 34.135 49.5783 34.2917 49.2438H16.2406C15.5402 49.2438 14.8713 48.7942 14.7041 48.1043C14.4533 47.0906 15.2163 46.1808 16.178 46.1808H34.6899C34.7109 45.9616 34.763 45.7312 34.8466 45.512C35.2126 44.5923 36.0907 43.9966 37.0834 43.9966H56.3793C57.268 43.9966 57.9889 43.2751 57.9889 42.3765V42.3759ZM47.2225 23.2052C44.4419 22.0136 43.3445 20.8847 43.3445 18.4385C43.3445 16.515 44.3478 15.0411 46.1251 14.4979C46.47 14.3933 46.6998 14.0589 46.6998 13.6934V13.3275C46.6998 12.8568 47.0863 12.4704 47.5569 12.4704H48.1112C48.5818 12.4704 48.9683 12.8568 48.9683 13.3275V13.6934C48.9683 14.0594 49.198 14.4044 49.5535 14.5084C51.0169 14.937 51.8009 15.9303 52.0517 17.4247C52.1353 17.9369 51.7278 18.4075 51.2051 18.4075H49.7733C49.3658 18.4075 49.0413 18.1146 48.9373 17.7176C48.7701 17.1113 48.3936 16.7874 47.7352 16.7874C46.9617 16.7874 46.5957 17.2996 46.5957 18.1152C46.5957 18.9308 47.0664 19.4844 48.6134 20.1427C51.1742 21.2092 52.2721 22.4948 52.3762 24.606C52.3762 24.6623 52.3812 24.716 52.3864 24.7708C52.3918 24.8281 52.3973 24.8867 52.3973 24.9509C52.3973 25.0779 52.388 25.1961 52.3782 25.3219L52.3762 25.3479C52.2715 27.2188 51.4039 28.5986 49.5541 29.1113C49.1986 29.2054 48.9688 29.5504 48.9688 29.9263V29.9474C48.9688 30.418 48.5824 30.8045 48.1117 30.8045H47.5575C47.0869 30.8045 46.7004 30.4174 46.7004 29.9474C46.7004 29.5709 46.4496 29.2259 46.0836 29.1318C44.3483 28.6822 43.5333 27.4907 43.2819 25.9858C43.1983 25.4736 43.6058 25.003 44.1285 25.003H45.6545C46.0514 25.003 46.4069 25.2748 46.48 25.6613C46.6261 26.3617 47.0027 26.8218 47.8387 26.8218C48.6748 26.8218 49.0723 26.2471 49.0723 25.4005C49.0723 24.3657 48.6438 23.8325 47.2219 23.2052H47.2225ZM28.3967 64.8283H16.1774C15.3309 64.8283 14.6515 64.1384 14.6515 63.2919C14.6515 62.4453 15.3309 61.7554 16.1774 61.7554H28.3967C29.2433 61.7554 29.9226 62.4453 29.9226 63.2919C29.9226 64.1384 29.2433 64.8283 28.3967 64.8283ZM16.1774 53.9678H28.3967C29.2433 53.9678 29.9226 54.6577 29.9226 55.5043C29.9226 56.3509 29.2433 57.0408 28.3967 57.0408H16.1774C15.3309 57.0408 14.6515 56.3509 14.6515 55.5043C14.6515 54.6577 15.3309 53.9678 16.1774 53.9678ZM14.7977 19.0974L23.0763 10.7977C23.3897 10.4843 23.9124 10.7035 23.9124 11.1426V18.0731C23.9124 19.0974 23.0869 19.9334 22.052 19.9334H15.1426C14.7035 19.9334 14.4843 19.4002 14.7977 19.0974ZM52.3756 40.8395C52.0932 41.2054 51.6647 41.4457 51.163 41.4457H16.2406C15.5402 41.4457 14.8713 40.9961 14.7041 40.3063C14.4533 39.2925 15.2163 38.3827 16.178 38.3827H51.1531C51.6442 38.3827 52.0833 38.623 52.3657 38.989C52.5645 39.2504 52.6791 39.5637 52.6791 39.9087C52.6791 40.2536 52.5534 40.5775 52.3657 40.8283L52.3762 40.8389L52.3756 40.8395ZM39.9822 47.0175H56.2484V47.0169C66.706 47.0169 75.605 55.157 75.6319 65.4282L75.6185 65.4416C75.6448 75.673 67.1989 83.9728 56.781 83.9459C46.3367 83.9196 38.0505 75.1667 38.0505 64.8956V48.9094C38.0505 47.8699 38.9163 47.0175 39.9822 47.0175ZM63.5565 63.7315L66.4663 60.8001V60.7995C67.4825 59.7793 67.5263 58.6526 66.585 57.709C65.6624 56.7847 64.5428 56.7888 63.5425 57.7365C63.5173 57.7599 63.4922 57.7815 63.4677 57.8061L53.3818 67.9469L53.3467 67.9855C53.3456 67.9872 53.2181 68.1106 53.0585 68.1106C52.8749 68.1106 52.734 67.9738 52.7235 67.9632L49.6295 64.8675C48.649 63.8859 47.4996 63.8789 46.5373 64.8429L46.0883 65.3025L46.1321 65.3516C45.5942 66.1952 45.7305 67.1044 46.5402 67.9141L49.6272 71.0023L51.3455 72.9375L51.3718 72.9655C51.8313 73.4251 52.3312 73.6583 52.858 73.6583C53.4163 73.6583 53.9653 73.3929 54.4903 72.8673L63.5565 63.7315Z" fill="url(#paint0_linear_285_220)"/>
<defs>
<linearGradient id="paint0_linear_285_220" x1="69.0837" y1="13.6584" x2="9.80441" y2="63.6653" gradientUnits="userSpaceOnUse">
<stop stop-color="#FFCC00"/>
<stop offset="1" stop-color="#FF6633"/>
</linearGradient>
</defs>
</svg>
