<svg width="86" height="86" viewBox="0 0 86 86" fill="none" xmlns="http://www.w3.org/2000/svg">
<path fill-rule="evenodd" clip-rule="evenodd" d="M80.3491 25.0535C79.0468 19.8232 75.3508 15.3586 69.9417 12.4813C66.8407 10.8352 63.6093 10 60.3381 10C53.9232 10 47.9119 13.3346 44.6505 18.7024C44.6366 18.7251 44.6217 18.7426 44.6108 18.7545C44.3438 19.1525 43.8989 19.3912 43.4184 19.3912C42.9126 19.3912 42.4538 19.1303 42.1903 18.6926C38.9259 13.3315 32.9157 10.0005 26.5059 10.0005C23.2322 10.0005 20.0023 10.8352 16.9074 12.4818C11.4947 15.3596 7.79823 19.8232 6.49802 25.0504C6.00258 27.0378 5.87369 29.1376 6.12528 31.123L6.12734 31.1498C6.17322 33.2115 6.91303 38.8335 12.7361 46.8807C13.0393 46.327 13.3574 45.7485 13.6755 45.1783L13.8203 44.9195C15.0731 42.6754 16.3687 40.3549 17.6715 38.0751C18.3473 36.894 19.05 35.7093 19.7295 34.5637C20.0373 34.0451 20.3533 33.512 20.6621 32.9877C20.9576 32.4866 21.502 32.1752 22.0835 32.1752H22.2392C22.5413 32.1752 22.8378 32.2582 23.096 32.4155L23.3692 32.5816C24.7021 33.3922 26.0737 34.2263 27.4272 35.0504C27.541 35.1199 27.6289 35.1861 27.6892 35.2314L27.6973 35.2376L27.7071 35.2448L27.7122 35.2486L27.7175 35.2527L27.7176 35.2527L27.7177 35.2528C27.7211 35.2555 27.7246 35.2582 27.7282 35.2608C27.7863 35.3007 27.8407 35.3375 27.8904 35.371L27.9195 35.3907L27.9277 35.3963L27.9281 35.3966L27.9281 35.3966C28.3163 35.6574 28.7996 35.9822 28.996 36.6579C29.2197 37.4292 28.8779 38.0282 28.6737 38.386C28.6258 38.47 28.5712 38.5659 28.5119 38.6773L28.4299 38.8309C29.8275 39.9708 31.5737 40.2595 33.5962 40.5936C33.8973 40.6431 34.2087 40.6946 34.5226 40.7498C34.6773 40.7771 34.8247 40.8251 34.9634 40.8936C35.0861 40.7137 35.2083 40.5338 35.33 40.3538C36.4064 38.7665 38.0319 38.3391 39.161 38.155C40.802 37.8885 42.2847 37.6586 43.8159 37.5452C45.1382 37.4467 46.4947 37.3967 47.8474 37.3967C48.2351 37.3967 48.6295 37.4008 49.0203 37.409C51.0165 37.4508 52.8977 37.8498 54.6537 38.2556C54.7742 38.2833 54.8943 38.3114 55.0147 38.3396L55.0831 38.3556L55.1198 38.3644L55.126 38.3658C56.2656 38.6334 57.3421 38.8861 58.3868 38.8861C58.542 38.8861 58.6956 38.8804 58.843 38.8691C59.29 38.8345 59.7648 38.7402 60.2649 38.6345L60.1951 38.5081L60.1071 38.3494C59.8324 37.8555 59.736 37.3559 59.8205 36.8651C59.8906 36.4589 60.1175 35.8815 60.8016 35.4391C61.1143 35.2372 61.4324 35.0286 61.7418 34.8256L61.7421 34.8254L61.8157 34.7772L61.8275 34.7694L61.8656 34.7445L61.8657 34.7444L61.8658 34.7444L61.8659 34.7443L61.866 34.7442L61.8661 34.7441L61.8662 34.7441C62.4661 34.3509 63.0855 33.9449 63.7103 33.5538C64.0612 33.3347 64.4091 33.1454 64.7454 32.9624L64.7548 32.9573C64.994 32.8274 65.2183 32.7052 65.4333 32.5789C65.7941 32.3665 66.1509 32.2634 66.5242 32.2634C66.9376 32.2634 67.712 32.3995 68.2502 33.311C68.5637 33.8425 68.8905 34.3833 69.2066 34.9061L69.2102 34.9123L69.2383 34.9588L69.2383 34.9589C69.7152 35.7486 70.2077 36.5642 70.6779 37.3848C72.4385 40.4564 73.8743 42.9924 75.1771 45.333C79.981 38.1643 80.645 33.1161 80.7053 31.2596L80.7074 31.2338C80.977 29.2222 80.8528 27.0847 80.348 25.054L80.3491 25.0535ZM71.8699 26.9965C71.7173 27.4275 71.3074 27.7173 70.8506 27.7173C70.8228 27.7173 70.796 27.7162 70.7676 27.7142C70.2758 27.675 69.8737 27.3121 69.786 26.8311C69.422 24.8539 68.1987 22.7778 66.4303 21.1358C64.662 19.4964 62.5024 18.4318 60.5046 18.2147C60.0185 18.1616 59.6267 17.7868 59.5524 17.3032C59.4792 16.8186 59.7406 16.3443 60.1881 16.1484C61.0155 15.7865 61.8781 15.556 62.7514 15.4632C63.0556 15.4308 63.3659 15.4143 63.6737 15.4143C68.1332 15.4143 71.8503 18.7622 72.3194 23.2021C72.4555 24.4894 72.304 25.7654 71.8693 26.9955L71.8699 26.9965ZM20.0992 49.9472C20.4054 49.4023 20.7163 48.847 21.0168 48.3098C21.4592 47.519 21.917 46.7008 22.3758 45.8888C22.7841 45.1655 23.2131 44.4138 23.592 43.7503L23.6443 43.6587C23.9584 43.1084 24.2818 42.5419 24.5973 41.9846C24.885 41.4763 25.168 40.9669 25.4676 40.4271L25.6187 40.1553C25.7259 39.9624 25.8355 39.7653 25.948 39.5636C26.0109 39.4512 26.0872 39.3455 26.1759 39.2496L26.216 39.1762C26.2918 39.0374 26.3675 38.8987 26.4425 38.7593C26.5719 38.5201 26.7002 38.2799 26.8281 38.0396C26.8979 37.9078 26.9607 37.7979 27.0117 37.7086L27.0178 37.6978L27.0191 37.6955L27.0191 37.6955C27.0749 37.5977 27.1319 37.4979 27.1534 37.4437C27.1513 37.4416 27.1493 37.44 27.1472 37.438C27.1343 37.4261 27.1173 37.4127 27.0962 37.3967C27.0658 37.3741 27.0271 37.3467 26.9709 37.3081C26.9527 37.2956 26.9336 37.2828 26.9137 37.2694L26.8631 37.2354L26.8128 37.2015L26.8127 37.2015C26.7608 37.1665 26.7039 37.1284 26.6425 37.0859C26.61 37.0632 26.5786 37.0395 26.5471 37.0157C26.5244 36.9982 26.5012 36.9807 26.4775 36.9642C26.4636 36.9544 26.4497 36.9451 26.4352 36.9364C25.034 36.0826 23.6307 35.2294 22.2268 34.3761L22.2145 34.3684C21.9364 34.8401 21.6573 35.3108 21.3782 35.7814L21.3772 35.7831L21.1823 36.112L21.1822 36.1123L21.182 36.1125L21.1819 36.1128L21.1817 36.1131L21.1815 36.1133L21.1814 36.1136L21.1812 36.1139C21.0254 36.3767 20.8695 36.6395 20.7142 36.9023C20.3317 37.5499 19.828 38.4051 19.3274 39.2805C19.0062 39.843 18.6778 40.4209 18.3236 41.0468C17.5972 42.331 16.8786 43.6158 16.3331 44.5912L15.535 46.0198L15.3417 46.3662L15.1778 46.6616L15.0906 46.8189C14.7163 47.4937 14.3498 48.1629 13.9147 48.9605L13.86 49.06C13.6084 49.5203 13.3569 49.9807 13.1037 50.4406C12.7299 51.1196 12.3479 51.8078 11.9778 52.4734C11.868 52.6708 11.7584 52.8682 11.6488 53.0658L11.5035 53.3276V53.5127C11.6458 53.6081 11.788 53.705 11.9267 53.7999L11.9629 53.8245C12.1294 53.938 12.3004 54.0545 12.4701 54.167C12.5418 54.2144 12.6134 54.2613 12.6856 54.3082C12.8408 54.4082 12.9831 54.4969 13.1202 54.5789C13.5419 54.8294 13.9626 55.0702 14.2823 55.2522C14.4684 55.3579 14.6545 55.4636 14.8411 55.5687C15.1711 55.7554 15.5124 55.9487 15.8469 56.141C15.9774 56.2163 16.1073 56.2915 16.2372 56.3668L16.2413 56.3694C16.2472 56.3727 16.253 56.3758 16.2586 56.3787L16.2723 56.3859L16.281 56.39C16.2908 56.3946 16.3001 56.3988 16.3094 56.4029L16.314 56.4049C16.3212 56.4075 16.3285 56.4101 16.3352 56.4122L16.3403 56.4137C16.3455 56.4153 16.3506 56.4163 16.3553 56.4173L16.3609 56.4184L16.3635 56.4184L16.3657 56.4186L16.3697 56.4189L16.3857 56.4173L16.3893 56.4158L16.3917 56.4145L16.3945 56.4132L16.4005 56.4091C16.4031 56.4074 16.4049 56.406 16.4068 56.4044L16.4125 56.4003L16.4161 56.3972L16.4162 56.3972C16.4195 56.3943 16.4231 56.3913 16.4264 56.3879L16.4336 56.3807C16.4388 56.3755 16.4449 56.3681 16.4515 56.3601L16.4532 56.358L16.4584 56.3518C16.4677 56.34 16.4738 56.3312 16.48 56.3219L16.4878 56.3106C16.496 56.2982 16.5037 56.2864 16.5115 56.2735L16.5264 56.2482C16.6968 55.9655 16.8725 55.6808 17.0427 55.4049L17.059 55.3785L17.1371 55.252C17.2051 55.142 17.273 55.032 17.3405 54.9217C17.3848 54.7882 17.4431 54.6567 17.5153 54.5309C17.6421 54.3077 17.7694 54.0829 17.8968 53.8581C18.5505 52.7046 19.1987 51.5498 19.8278 50.4287L19.8283 50.428L19.8299 50.4252L19.8302 50.4246L19.9378 50.2328L20.0981 49.9472H20.0992ZM76.0192 51.126L76.0509 51.185L76.054 51.1866L76.1702 51.4026L76.1714 51.4048C76.4985 52.0132 76.8337 52.6366 77.1656 53.2498C77.1929 53.3008 77.2274 53.3405 77.2594 53.3725V53.5215C77.0991 53.6365 76.9377 53.7499 76.7789 53.8597C76.0216 54.3835 75.2426 54.8794 74.4636 55.3336C74.3661 55.3904 74.2687 55.4465 74.1708 55.5022C73.6011 55.827 73.0237 56.1343 72.4535 56.4158L72.4437 56.4204C72.4282 56.4281 72.4132 56.4348 72.4004 56.44L72.387 56.4446L72.3791 56.4473L72.3653 56.4519L72.3555 56.4539L72.3511 56.4551L72.3473 56.4565H72.3431C72.3421 56.455 72.339 56.4513 72.339 56.4513L72.3364 56.4477C72.3328 56.4431 72.3297 56.439 72.3266 56.4343L72.323 56.4292C72.3201 56.4251 72.3174 56.4208 72.3148 56.4166L72.3147 56.4164L72.3117 56.4116L72.3091 56.4075C72.3034 56.3988 72.2983 56.39 72.2931 56.3812L72.1055 56.0616L71.7278 55.419L71.3502 54.7763C71.3223 54.6588 71.2821 54.5454 71.2301 54.4381C71.2192 54.416 71.2105 54.3984 71.2033 54.3825C71.1816 54.3361 71.1543 54.2778 71.1151 54.2082L69.8824 52.0331L69.8405 51.9592L69.8323 51.9447L69.8293 51.9393L69.8276 51.9364L69.8155 51.9151C68.9429 50.3753 68.0425 48.7864 67.1578 47.222C65.5647 44.4066 64.2408 42.0604 62.9916 39.8379C62.9287 39.726 62.8586 39.6203 62.7823 39.5234C62.6462 39.2716 62.5095 39.0198 62.3729 38.768L62.3699 38.7624C62.1941 38.4381 61.9858 38.0561 61.7775 37.6808L61.7711 37.6688C61.765 37.6575 61.7591 37.6465 61.7538 37.6354C61.7337 37.5947 61.7193 37.5581 61.711 37.5261C61.7064 37.5086 61.7038 37.4926 61.7028 37.4782V37.4612C61.7028 37.4524 61.7048 37.4431 61.7084 37.4328C61.7102 37.4278 61.712 37.4233 61.7138 37.4193C61.7152 37.4162 61.7167 37.4133 61.7182 37.4107C61.7249 37.3993 61.7347 37.3869 61.7466 37.3746C61.7584 37.3622 61.7749 37.3478 61.795 37.3323L61.8048 37.325L61.8205 37.3135L61.834 37.3041L61.8404 37.2998C62.1894 37.074 62.5431 36.8425 62.8844 36.6183L63.0468 36.5121C63.2035 36.4089 63.3602 36.3064 63.517 36.2043C63.7046 36.0816 63.8928 35.9599 64.081 35.8388C64.3264 35.681 64.5311 35.5511 64.7249 35.4299C64.8461 35.3541 64.9791 35.2753 65.1311 35.1887C65.3075 35.0886 65.4895 34.9896 65.6658 34.8938L65.7632 34.8407C65.9653 34.7308 66.1808 34.6128 66.3963 34.486L66.404 34.4813C66.42 34.4715 66.4355 34.4638 66.4499 34.4566L66.4597 34.4519C66.469 34.4473 66.4782 34.4435 66.4863 34.4402L66.4891 34.439L66.4958 34.437C66.4992 34.4357 66.5026 34.4346 66.5065 34.4336L66.5119 34.4323L66.519 34.4308L66.5223 34.4301L66.5242 34.4298L66.5309 34.4344C66.534 34.4375 66.537 34.4401 66.5412 34.4442L66.5448 34.4483L66.5483 34.4521L66.5524 34.4569L66.5566 34.4617L66.5633 34.47C66.568 34.4762 66.5731 34.4834 66.5783 34.4906L66.5855 34.5004C66.5932 34.5123 66.6015 34.5251 66.6097 34.5391C66.7098 34.7087 66.8108 34.8783 66.9118 35.0474C67.1119 35.3827 67.3137 35.7167 67.5156 36.051L67.5158 36.0515L67.5161 36.0519L67.5163 36.0523L67.5166 36.0528L67.5169 36.0532L67.5171 36.0536L67.5795 36.1568L67.8259 36.5652C68.278 37.3148 68.6549 37.9458 69.0246 38.5918C69.6489 39.6806 70.2933 40.8107 70.9408 41.9511C71.5636 43.0476 72.0663 43.9375 72.5236 44.7515C72.9169 45.4522 73.3041 46.1456 73.6748 46.8122C73.797 47.0318 73.9186 47.2519 74.0398 47.4726C74.7073 48.6849 75.3738 49.9251 76.0192 51.126ZM40.0756 69.5689C39.725 69.3426 39.326 69.2106 38.8563 69.1658H38.8501C38.7867 69.1591 38.7218 69.1493 38.6527 69.1353L38.6351 69.1395L38.6219 69.1428L38.6069 69.1467C38.5956 69.1498 38.5843 69.1531 38.5733 69.1565L38.5635 69.1596C38.5434 69.1658 38.5238 69.1725 38.5042 69.1797L38.4882 69.1864L38.4785 69.1901C38.466 69.1949 38.4537 69.1996 38.4418 69.2049L38.4191 69.2158C38.4068 69.2214 38.3939 69.2271 38.381 69.2338C38.3748 69.2369 38.3686 69.24 38.3624 69.2436L38.3578 69.2462C38.3449 69.2529 38.333 69.2596 38.3212 69.2663L38.3108 69.2725C38.3065 69.2752 38.3023 69.2779 38.298 69.2807L38.2863 69.2879L38.2724 69.2968L38.2639 69.3024L38.2523 69.3104L38.2407 69.3184C38.2294 69.3266 38.2186 69.3343 38.2083 69.3426L38.2003 69.3486C38.1953 69.3525 38.1903 69.3566 38.1856 69.3606C38.1748 69.3694 38.1644 69.3782 38.1541 69.3874L38.1479 69.3926C38.1446 69.3953 38.1415 69.3981 38.1384 69.4009L38.132 69.407L38.1163 69.4222L38.1005 69.4375L38.0804 69.4576C38.0696 69.4694 38.0582 69.4818 38.0474 69.4942L38.0304 69.5132C38.0144 69.5323 37.999 69.5519 37.984 69.5725L37.9804 69.5772C37.8792 69.7151 37.7782 69.8506 37.6777 69.9857L37.6061 70.0819L37.5092 70.2123L37.4298 70.3196L37.1267 70.7232L37.0735 70.7933C36.5719 71.4914 36.0744 72.1719 35.5944 72.8164L35.5867 72.8308C35.5712 72.8591 35.5563 72.8875 35.5424 72.9158C35.5197 72.9617 35.5011 73.0014 35.4867 73.037C35.4429 73.1417 35.4094 73.2473 35.3867 73.3515C35.3702 73.4278 35.3588 73.5056 35.3537 73.5819C35.3501 73.6325 35.349 73.6835 35.3506 73.734C35.3521 73.7845 35.3557 73.8356 35.3624 73.8861C35.3753 73.9872 35.398 74.0898 35.43 74.1923C35.446 74.2434 35.465 74.2954 35.4857 74.347C35.4965 74.3733 35.5073 74.3991 35.5192 74.4249C35.5429 74.4769 35.5687 74.5295 35.597 74.5816C35.6398 74.6605 35.6883 74.7404 35.7419 74.8198C35.7955 74.8992 35.8553 74.9801 35.9198 75.0605C35.9656 75.1177 36.0141 75.1724 36.0646 75.224C36.1136 75.274 36.1657 75.3224 36.2198 75.3678C36.2719 75.4116 36.3276 75.4544 36.3853 75.4941C36.6359 75.6684 36.9354 75.8055 37.3267 75.9246H37.7721C37.8613 75.8797 37.9536 75.84 38.0428 75.8019L38.0449 75.801C38.2524 75.7116 38.4483 75.6272 38.5501 75.5034C38.8321 75.1585 39.1213 74.793 39.4332 74.3862C39.6152 74.149 39.8029 73.9005 40.0075 73.6268C40.1658 73.4149 40.323 73.202 40.4793 72.9891L40.4827 72.9818C40.4888 72.9691 40.495 72.9562 40.5019 72.9437C40.5736 72.8066 40.6449 72.6788 40.7139 72.5549L40.7139 72.5549L40.7143 72.5543L40.7144 72.554L40.7257 72.5338C40.7685 72.4575 40.8102 72.3828 40.8499 72.3096C40.936 72.1508 41.0299 71.9688 41.0716 71.825C41.3005 71.0372 40.8829 70.0886 40.0782 69.5689H40.0756ZM64.1779 60.2968C64.3485 60.4551 64.4975 60.5953 64.6337 60.7252L64.6342 60.7257C64.9657 61.0428 65.1611 61.4898 65.1848 61.9842C65.2245 62.8183 64.7899 63.5973 64.1032 63.9226C64.0562 63.9448 64.0026 63.9644 63.9382 63.983C63.7954 64.0237 63.6325 64.0464 63.4747 64.068L63.2597 64.0974C63.236 64.1005 63.2128 64.1036 63.1881 64.1067L63.0432 64.1232L62.9767 64.1294L62.9385 64.133C62.9143 64.1351 62.8901 64.1366 62.8664 64.1381L62.8359 64.1402C62.8147 64.1415 62.7938 64.1426 62.7721 64.1435L62.7318 64.1448H62.7205C62.7087 64.1453 62.6969 64.1455 62.6851 64.1457L62.6587 64.1459L62.6385 64.1459C62.6212 64.1459 62.604 64.1458 62.5868 64.1455C62.5655 64.1451 62.5442 64.1444 62.5225 64.1433C62.4653 64.1407 62.4091 64.1366 62.356 64.1309C62.2905 64.1242 62.2327 64.1155 62.1796 64.1046C62.125 64.0933 62.0745 64.0794 62.0291 64.0634C61.9837 64.0474 61.943 64.0283 61.908 64.0077C60.999 63.4664 60.1128 62.9359 59.3663 62.4884L56.6674 60.8691C55.9591 60.4443 55.2502 60.02 54.5408 59.5962L54.2567 59.4266C53.8953 59.2106 53.5334 58.994 53.1715 58.779C52.974 58.6615 52.756 58.5434 52.5044 58.4176C52.2696 58.3003 52.0288 58.188 51.7952 58.079L51.7574 58.0614L51.6048 57.9902L51.527 57.9539L51.382 57.8856C51.3557 57.8732 51.33 57.8624 51.3042 57.8521C51.297 57.8495 51.2903 57.8469 51.2851 57.8449C51.2744 57.8409 51.264 57.8372 51.254 57.8339C51.2449 57.8308 51.2361 57.8279 51.2276 57.8254C51.2234 57.8241 51.2193 57.8229 51.2153 57.8217C51.212 57.8208 51.2088 57.8199 51.2057 57.8191C51.2018 57.8179 51.1981 57.817 51.1945 57.8162L51.1913 57.8155C51.1665 57.8093 51.1413 57.8041 51.1165 57.8L51.0949 57.7964C51.0691 57.7933 51.0449 57.7913 51.0201 57.7897H51.001C50.9973 57.7897 50.9935 57.7898 50.9897 57.79L50.9773 57.7907C50.9608 57.7912 50.9443 57.7928 50.9294 57.7943C50.9191 57.7954 50.9093 57.7969 50.8995 57.7985C50.8884 57.8 50.8776 57.8022 50.867 57.8046L50.8474 57.8093C50.8371 57.8119 50.8273 57.8144 50.8175 57.8175C50.7979 57.8237 50.7788 57.8309 50.7639 57.8377C50.7567 57.8402 50.7489 57.8433 50.7397 57.848C50.7327 57.8514 50.7258 57.8549 50.7189 57.8586L50.7043 57.8666L50.6929 57.8733L50.6827 57.8796C50.6768 57.8832 50.6711 57.8869 50.6654 57.8908L50.6565 57.8971L50.6515 57.9008L50.6479 57.9036C50.6304 57.917 50.6139 57.9299 50.5974 57.9449C50.5917 57.9506 50.5855 57.9562 50.5768 57.965C50.5709 57.9709 50.565 57.9769 50.5592 57.9832C50.5517 57.9911 50.5443 57.9994 50.5371 58.0078L50.5169 58.0325C50.5046 58.048 50.4927 58.065 50.4788 58.0861L50.4707 58.0986L50.4659 58.1063C50.4588 58.1178 50.452 58.1293 50.4456 58.1407C50.4372 58.1558 50.4294 58.1707 50.4221 58.1856C50.3865 58.2583 50.3602 58.3259 50.3417 58.3924C50.321 58.4671 50.3112 58.5403 50.3112 58.6105C50.3128 58.861 50.4468 59.0708 50.7087 59.2348C51.0892 59.4725 51.4728 59.7204 51.8434 59.9602L52.01 60.0674C52.4276 60.3375 52.8735 60.6242 53.3231 60.899C54.6264 61.6939 56.055 62.5601 57.8192 63.6247L58.0599 63.77C58.7667 64.1964 59.4741 64.6222 60.1814 65.0481C60.2891 65.113 60.3613 65.177 60.4077 65.2492C60.4484 65.3115 60.4711 65.3816 60.4789 65.4688C60.4917 65.6111 60.4995 65.7461 60.5015 65.8709C60.5046 66.0343 60.4979 66.1885 60.4825 66.3287C60.4758 66.3864 60.468 66.4432 60.4582 66.4973C60.434 66.6349 60.3984 66.7649 60.3531 66.8824C60.3345 66.9303 60.3139 66.9773 60.2917 67.0226L60.2916 67.0228L60.2815 67.0429C60.2735 67.0588 60.2653 67.0746 60.2567 67.0902C60.2324 67.135 60.2056 67.1783 60.1773 67.2201C60.0731 67.3732 59.9448 67.5062 59.7844 67.6274C59.6885 67.6995 59.5803 67.7676 59.4627 67.83C59.4364 67.8439 59.4096 67.8578 59.3833 67.8707L59.3575 67.8831L59.3336 67.8949C59.3232 67.8999 59.3127 67.9049 59.3019 67.9099L59.2642 67.9269L59.2372 67.9392L59.222 67.946L59.1879 67.9604L59.17 67.9679L59.1405 67.98L59.106 67.9934C59.0956 67.9975 59.0851 68.0017 59.0746 68.0056L59.059 68.0114L59.0235 68.0243L59.0007 68.0326C58.9928 68.0355 58.9849 68.0382 58.9771 68.0408L58.941 68.0527L58.9409 68.0527L58.9408 68.0528L58.9406 68.0528L58.9405 68.0528C58.9252 68.0579 58.9099 68.063 58.8946 68.0676L58.859 68.0785C58.8435 68.0831 58.8276 68.0878 58.8126 68.0919L58.7765 68.1017C58.7611 68.1058 58.7451 68.1099 58.7281 68.114C58.7188 68.1166 58.7096 68.1187 58.7006 68.1209L58.6945 68.1223C58.6843 68.1249 58.674 68.127 58.6638 68.1292L58.6456 68.1331L58.6115 68.1403C58.5945 68.1439 58.5775 68.147 58.5595 68.1501L58.5291 68.1558C58.5105 68.1589 58.4914 68.162 58.4718 68.1646L58.4466 68.1682C58.3909 68.1754 58.3352 68.1811 58.2795 68.1852L58.2563 68.1862L58.2363 68.1874L58.2177 68.1885L58.1981 68.1893L58.1615 68.1903C58.1518 68.1907 58.142 68.1908 58.1326 68.1908L58.1161 68.1909H58.0965C58.0481 68.1903 58.0042 68.1893 57.9635 68.1862H57.9553C57.9109 68.1836 57.865 68.179 57.8197 68.1738L57.8114 68.1728C57.7877 68.1699 57.7636 68.1665 57.7382 68.1625C57.7187 68.1594 57.6986 68.156 57.6774 68.1522L57.6614 68.1496C57.6207 68.1419 57.5774 68.1326 57.533 68.1218L57.5124 68.1166C57.4717 68.1063 57.4294 68.0939 57.3861 68.0805L57.365 68.0738C57.3216 68.0599 57.2794 68.045 57.2392 68.0295L57.2201 68.0218C57.1737 68.0032 57.1314 67.9857 57.0881 67.9656L57.0778 67.9609C57.0329 67.9398 56.9917 67.9197 56.9525 67.8985L56.9432 67.8939C56.5958 67.7073 56.2328 67.5083 55.8348 67.2861C55.3043 66.9896 54.7831 66.6916 54.2949 66.4122L54.0098 66.2488L53.9166 66.1954C53.4606 65.9342 52.9913 65.6654 52.5271 65.4038C51.2841 64.7042 50.0318 64.0057 48.8048 63.3277L48.7692 63.2566H48.6703L48.6625 63.2531C48.6556 63.2499 48.6484 63.2467 48.6409 63.2437L48.6407 63.2436L48.628 63.2383L48.6192 63.2349L48.6141 63.2328C48.5909 63.2241 48.5682 63.2158 48.545 63.2091L48.5398 63.2076C48.5316 63.205 48.5228 63.2024 48.5146 63.2004C48.4883 63.1937 48.462 63.1885 48.4367 63.1844L48.427 63.1828C48.4235 63.1821 48.4201 63.1816 48.4171 63.1813C48.3898 63.1777 48.3614 63.1756 48.331 63.1741H48.312L48.2997 63.1744L48.2857 63.1751C48.2625 63.1761 48.2393 63.1777 48.2181 63.1803C48.2073 63.1813 48.1965 63.1828 48.1877 63.1844C48.1604 63.189 48.1336 63.1947 48.1093 63.2014C48.1037 63.2024 48.098 63.204 48.0892 63.2066C48.0588 63.2153 48.0289 63.2267 47.997 63.2406C47.9919 63.2427 47.9869 63.2451 47.981 63.248L47.9808 63.2481L47.9807 63.2481L47.9727 63.2519C47.9506 63.2622 47.9289 63.2741 47.9062 63.2875L47.896 63.2935L47.8898 63.2973L47.8815 63.3024C47.8701 63.3097 47.8589 63.3173 47.8477 63.3253C47.8408 63.3302 47.8339 63.3352 47.827 63.3404L47.8145 63.3499C47.8134 63.3504 47.8124 63.3514 47.8124 63.3514L47.801 63.3602C47.7768 63.3798 47.7526 63.4014 47.7268 63.4272C47.7211 63.4329 47.716 63.4386 47.7103 63.4442L47.7067 63.4483C47.6897 63.4664 47.6732 63.4855 47.6536 63.5087L47.6446 63.5197L47.6376 63.5283C47.6149 63.5576 47.5948 63.585 47.5768 63.6123C47.5713 63.6206 47.5663 63.6287 47.5614 63.6368L47.5469 63.6615L47.5422 63.6695C47.5381 63.6752 47.5345 63.6819 47.5304 63.6896L47.5247 63.7015C47.3994 63.9438 47.4371 64.1449 47.4907 64.2712C47.5129 64.3227 47.5417 64.3727 47.5778 64.4207C47.583 64.4279 47.5886 64.4351 47.5948 64.4428C47.6588 64.5217 47.7423 64.5949 47.8444 64.6614C48.628 65.1692 49.3276 65.6075 49.9839 66.0003C50.9711 66.5916 51.9507 67.1737 52.8617 67.7145L54.1516 68.4801L54.4351 68.6485C54.8038 68.8675 55.1723 69.0863 55.5404 69.3055C55.5765 69.3271 55.6121 69.3519 55.6394 69.3709C55.6709 69.3936 55.7023 69.4163 55.7338 69.4395C55.758 69.457 55.7822 69.4746 55.8054 69.4916C56.0575 69.6741 56.1266 69.8617 56.0524 70.1623C56.0194 70.2948 55.9854 70.4144 55.9487 70.5284C55.9266 70.5969 55.9029 70.6639 55.8786 70.7274L55.8687 70.7524L55.8687 70.7524C55.8665 70.7581 55.8642 70.7637 55.862 70.7694C55.859 70.777 55.8559 70.7846 55.8528 70.7922L55.8446 70.8119C55.5946 71.413 55.2239 71.7682 54.6774 71.9291C54.6357 71.9415 54.5934 71.9533 54.5511 71.9641L54.5099 71.9739L54.5012 71.9761C54.4828 71.9807 54.4646 71.9853 54.4463 71.9895L54.4238 71.9946C54.4129 71.9971 54.4026 71.9992 54.3918 72.0013L54.3732 72.0049L54.3511 72.0095L54.3508 72.0095L54.3194 72.016L54.2964 72.0203L54.2593 72.0265L54.2428 72.0291C54.2186 72.0332 54.1943 72.0374 54.1696 72.041C54.1612 72.0424 54.1529 72.0435 54.1446 72.0446L54.1253 72.0471L54.1144 72.0487C54.0907 72.0518 54.067 72.0549 54.0428 72.0575C54.0242 72.0595 54.0051 72.0616 53.9866 72.0631C53.9634 72.0652 53.9402 72.0673 53.9165 72.0688L53.8996 72.0701C53.8865 72.071 53.8736 72.0717 53.8607 72.0724L53.8603 72.0724C53.8371 72.0734 53.8134 72.0745 53.7896 72.075C53.7711 72.0755 53.7525 72.076 53.7345 72.076H53.67C53.6453 72.076 53.6205 72.0755 53.5958 72.0745C53.5775 72.074 53.5597 72.0731 53.5412 72.0722L53.5355 72.0719C53.5125 72.0709 53.4899 72.0691 53.4665 72.0672L53.4612 72.0667C53.4416 72.0652 53.4215 72.0631 53.4019 72.0611L53.3724 72.0577L53.3287 72.0523C53.3086 72.0497 53.289 72.0471 53.2689 72.0441C53.2442 72.0399 53.22 72.0358 53.1952 72.0312L53.1854 72.0296L53.1675 72.0263L53.1478 72.0227L53.1364 72.0203C53.1132 72.0152 53.09 72.01 53.0622 72.0033L53.0436 71.9992L53.0055 71.9899L52.9901 71.9857C52.9705 71.9802 52.9506 71.9743 52.9282 71.9678L52.9065 71.9616L52.8756 71.9523C52.8477 71.943 52.8194 71.9332 52.7905 71.9229L52.7678 71.9152C52.7621 71.9135 52.7567 71.9116 52.751 71.9095L52.7467 71.908C52.7013 71.8909 52.6596 71.8739 52.6188 71.8564L52.5992 71.8476C52.242 71.6919 51.8512 71.5182 51.4063 71.3171C51.015 71.1403 50.5938 70.948 50.0808 70.7114L49.5632 70.4722L48.9265 70.1783L48.6734 70.0618C48.3016 69.8911 47.9243 69.7143 47.5598 69.5431L47.5156 69.5225L47.5149 69.5221C46.9839 69.2735 46.4365 69.0171 45.8925 68.7729L45.8873 68.7708L45.8777 68.7667C45.862 68.7599 45.8467 68.7532 45.8322 68.7477L45.8271 68.7457C45.8222 68.7438 45.8173 68.7418 45.8116 68.7399C45.7981 68.7348 45.7842 68.7296 45.7703 68.725L45.7628 68.7223C45.7581 68.7208 45.7528 68.7192 45.7456 68.7172L45.7404 68.7157C45.7296 68.7121 45.7193 68.709 45.71 68.7064C45.7023 68.7043 45.695 68.7028 45.6873 68.7007L45.676 68.6982C45.6662 68.6956 45.6564 68.6935 45.6476 68.6915C45.6409 68.6899 45.6337 68.6889 45.627 68.6873L45.6177 68.6853C45.6074 68.6832 45.5971 68.6811 45.5883 68.6796C45.5828 68.6786 45.5773 68.6779 45.5714 68.677L45.5605 68.6755L45.5259 68.6708L45.5135 68.6698L45.5012 68.6688L45.478 68.9255L45.494 68.6683L45.4926 68.6681C45.487 68.6675 45.4816 68.6669 45.4763 68.6665L45.4719 68.6663L45.4672 68.6662C45.4599 68.6657 45.4532 68.6652 45.446 68.6652H45.4367H45.4156H45.4017C45.39 68.6654 45.3785 68.6658 45.3672 68.6663C45.3549 68.6669 45.3428 68.6677 45.3311 68.6688C45.3254 68.6693 45.3197 68.6698 45.3135 68.6708C45.2914 68.6734 45.2692 68.6765 45.246 68.6806L45.231 68.6832C45.2058 68.6884 45.181 68.6945 45.1547 68.7023L45.1393 68.7074C45.1176 68.7141 45.097 68.7219 45.0779 68.7296L45.063 68.7358C45.0398 68.7456 45.0171 68.7569 44.9954 68.7688L44.9795 68.7781C44.9599 68.7894 44.9413 68.8013 44.9238 68.8136L44.9119 68.8219C44.8918 68.8363 44.8717 68.8528 44.8531 68.8693C44.849 68.8729 44.8444 68.8771 44.8387 68.8827L44.8238 68.897C44.8178 68.9029 44.8121 68.9087 44.8067 68.9144C44.8021 68.9192 44.7978 68.924 44.7939 68.9286L44.783 68.9405C44.7671 68.9595 44.7521 68.9791 44.7372 69.0013C44.7341 69.0059 44.7304 69.0111 44.7263 69.0178C44.714 69.0364 44.7026 69.0554 44.6923 69.0755L44.6861 69.0874C44.6779 69.1045 44.6701 69.1222 44.6623 69.1416L44.6547 69.1611L44.6485 69.1786C44.6427 69.1948 44.6375 69.2112 44.6329 69.2282L44.6284 69.2457L44.6253 69.2575C44.6196 69.2823 44.615 69.308 44.6114 69.3374C44.6108 69.3441 44.6098 69.3514 44.6093 69.3575C44.6081 69.3694 44.6071 69.3809 44.6063 69.3924L44.6053 69.4064L44.6041 69.4308V69.4416C44.6041 69.4661 44.6051 69.492 44.6074 69.5219L44.6077 69.5266L44.6079 69.5292L44.609 69.5392L44.6098 69.5473C44.6129 69.5792 44.617 69.6065 44.6222 69.6344C44.6294 69.6731 44.6413 69.7128 44.6572 69.7525C44.7542 69.9927 44.9918 70.1999 45.1841 70.2984C45.9781 70.7062 46.7581 71.0985 47.483 71.4615L48.1155 71.778L48.389 71.915C48.8474 72.1446 49.3057 72.3741 49.7632 72.605C49.8828 72.6653 50.0024 72.7266 50.1226 72.789L51.2434 73.3798L51.0005 73.6634L50.6288 74.0583L50.6111 74.0756L50.5981 74.088L50.5979 74.0882L50.5453 74.1392C50.536 74.148 50.5262 74.1568 50.5169 74.1655L50.4865 74.1939C50.4783 74.2016 50.47 74.2094 50.4613 74.2171C50.4499 74.2274 50.4386 74.2377 50.4267 74.248L50.3994 74.2723C50.3922 74.279 50.385 74.2857 50.3767 74.2924L50.3458 74.3186L50.3159 74.3439C50.3076 74.3511 50.2994 74.3583 50.2911 74.365L50.2786 74.3751L50.2659 74.3852L50.2349 74.4104C50.2251 74.4187 50.2148 74.4269 50.2045 74.4352L50.1483 74.478L50.1386 74.4855C50.1312 74.4912 50.1239 74.4968 50.1164 74.5022L50.1103 74.5066L50.1038 74.5112C50.0995 74.5142 50.0952 74.5171 50.0911 74.5202L50.0597 74.5429L50.0272 74.5661L49.9999 74.5847L49.9627 74.6099C49.954 74.6161 49.9457 74.6218 49.937 74.6275L49.9332 74.6299L49.9228 74.6365C49.918 74.6394 49.9132 74.6424 49.9086 74.6455L49.8746 74.6672C49.8653 74.6733 49.8555 74.6795 49.8452 74.6857C49.8344 74.6919 49.8235 74.6986 49.8127 74.7048L49.7771 74.7259C49.7694 74.7311 49.7612 74.7357 49.753 74.7403L49.7529 74.7404C49.7416 74.7466 49.7297 74.7533 49.7178 74.7594L49.6849 74.7775C49.6761 74.7821 49.6673 74.7873 49.658 74.7919L49.6271 74.8074L49.591 74.8254L49.5717 74.8354L49.5616 74.8404L49.5491 74.8462C49.5429 74.8491 49.5366 74.8521 49.5302 74.8548L49.491 74.8729C49.4817 74.8775 49.473 74.8816 49.4632 74.8857L49.4266 74.9007L49.3884 74.9162C49.3802 74.9198 49.3719 74.9234 49.3626 74.927C49.3456 74.9337 49.3286 74.9399 49.3116 74.9461L49.2606 74.9651C49.2516 74.9683 49.2427 74.9713 49.2338 74.9742L49.2173 74.9796L49.1765 74.993L49.1762 74.9931C49.1691 74.9956 49.162 74.9982 49.1549 75.0002C49.1375 75.0057 49.1199 75.0107 49.1024 75.0157L49.0708 75.0244L49.0476 75.0311L49.0187 75.0387L49.002 75.0428L48.9538 75.0543L48.9373 75.0585L48.8977 75.0669L48.8729 75.0719L48.8244 75.0817C48.7089 75.1033 48.5888 75.1188 48.4676 75.1281C48.4037 75.1332 48.3403 75.1368 48.2769 75.1404L48.213 75.1435L48.2111 75.1436C48.1694 75.1456 48.1278 75.1477 48.0861 75.1492L48.0507 75.1503L48.0289 75.1513H48.0114L47.947 75.1529L47.8964 75.1538C47.8701 75.1544 47.8438 75.1544 47.8175 75.1544H47.7062L47.6672 75.1541L47.6567 75.154L47.6278 75.1538L47.6026 75.1535C47.5739 75.1531 47.5452 75.1526 47.5165 75.1518L47.4391 75.1497C47.401 75.1487 47.3633 75.1471 47.3257 75.1456L47.2515 75.1425C47.2107 75.1404 47.1705 75.1384 47.1303 75.1358L47.0648 75.1317L47.0559 75.131C47.0078 75.1276 46.9593 75.1242 46.9117 75.1203L46.8792 75.1177C46.8174 75.1126 46.7555 75.1069 46.6942 75.1007L46.6385 75.0945C46.5952 75.0904 46.5519 75.0858 46.5091 75.0806L46.4379 75.0719L46.4363 75.0717C46.3987 75.0671 46.3611 75.0625 46.3235 75.0574L46.2477 75.0471L46.1379 75.0317L46.0611 75.0203L45.9518 75.0033L45.8755 74.9909L45.8074 74.9795L45.7636 74.9718L45.6914 74.959L45.6306 74.9475L45.5708 74.9363L45.5079 74.9244L45.42 74.9072L45.3762 74.8984L45.3496 74.893L45.3249 74.8878C45.2942 74.8816 45.2635 74.8752 45.2327 74.8687L45.1805 74.8575L45.1424 74.8491L45.0846 74.8363L45.022 74.8221L44.9594 74.8079L44.8887 74.7914C44.8511 74.7821 44.814 74.7734 44.7763 74.7646L44.7011 74.746C44.6831 74.7417 44.6653 74.7372 44.6475 74.7327L44.6472 74.7326C44.6293 74.7281 44.6114 74.7236 44.5933 74.7192L44.517 74.6996C44.4809 74.6904 44.4454 74.6811 44.4087 74.6718L44.3345 74.6522C44.2974 74.6424 44.2603 74.6326 44.2232 74.6223L44.152 74.6032C44.1123 74.5924 44.0726 74.5816 44.0329 74.5702L43.97 74.5527C43.9154 74.5372 43.8607 74.5218 43.805 74.5058L43.7891 74.5012C43.7282 74.4836 43.6679 74.4661 43.6076 74.4481L43.4256 74.3939L42.2574 74.0238C42.1826 73.999 42.1532 73.9768 42.1429 73.9681C42.1429 73.9614 42.145 73.9438 42.1563 73.9109C42.1656 73.8846 42.178 73.8567 42.1929 73.8279C42.2522 73.7132 42.3176 73.5961 42.3811 73.4825L42.3811 73.4825L42.3811 73.4825L42.3811 73.4824L42.3812 73.4824L42.3909 73.4649L42.4397 73.3775L42.476 73.3123C42.6286 73.0355 42.8002 72.7107 42.9023 72.3596C43.2498 71.1656 42.9358 69.8365 42.0625 68.8049C41.9944 68.725 41.9228 68.6461 41.8491 68.5708C41.7753 68.4955 41.698 68.4218 41.6191 68.3527C41.5794 68.3177 41.5392 68.2831 41.498 68.2496C41.416 68.1821 41.3304 68.1177 41.2443 68.0573C41.2005 68.0269 41.1567 67.997 41.1118 67.9681C41.0721 67.9424 41.0319 67.9176 40.9917 67.8934C40.7159 67.7274 40.4205 67.5918 40.1132 67.4902C39.9848 67.4474 39.8518 67.4103 39.7183 67.3789C39.6399 67.3603 39.559 67.3438 39.4708 67.3278L39.4275 67.3201C39.3244 67.3026 39.2198 67.2876 39.1167 67.2763C39.2229 66.9097 39.1992 66.5122 39.0471 66.1601C38.9558 65.4471 38.663 64.7651 38.1995 64.1856C37.6262 63.4685 36.822 62.9462 35.9352 62.7147C35.6579 62.642 35.4104 62.5961 35.1743 62.5735C35.282 61.7393 35.0944 60.8588 34.6381 60.0705C34.1097 59.158 33.2559 58.4419 32.2965 58.1057C31.8593 57.9521 31.4293 57.8743 31.0195 57.8743C30.0683 57.8743 29.2285 58.2779 28.5907 59.0415C28.5335 59.11 28.4768 59.1776 28.4191 59.2461C28.2443 59.4539 28.0654 59.6673 27.8881 59.8921C27.7736 59.6183 27.6267 59.3564 27.4493 59.109C26.99 58.4682 26.3239 57.9423 25.5738 57.6278C25.0835 57.4221 24.5607 57.3133 24.0617 57.3133C23.3662 57.3133 22.7104 57.5227 22.165 57.9186C21.9603 58.0676 21.7701 58.2444 21.5989 58.4444L21.5963 58.4455C21.5937 58.4465 21.5891 58.4481 21.5891 58.4481L21.5778 58.4506L21.5752 58.4496C21.5741 58.4493 21.5731 58.4489 21.5722 58.4484L21.5695 58.447L21.5677 58.4456L21.5659 58.4444L21.5592 58.4398C21.5556 58.4372 21.552 58.4347 21.5468 58.4305L21.5267 58.4135L21.1627 57.9794C20.8715 57.6087 20.5554 57.218 20.1971 56.7849C19.8698 56.3895 19.5393 55.9982 19.2877 55.7017L19.2109 55.611L19.2042 55.603C19.1943 55.591 19.1848 55.5796 19.1763 55.5682C19.1665 55.5553 19.1588 55.5435 19.1531 55.5332C19.1521 55.5311 19.1516 55.5295 19.1501 55.5265C19.1521 55.5187 19.1583 55.5027 19.1738 55.4754L19.3527 55.1599C19.6486 54.6382 19.9435 54.1164 20.2379 53.5942C20.6864 52.7982 21.1339 52.0017 21.5809 51.2051L21.7618 50.8824C21.9971 50.4641 22.2315 50.0455 22.4659 49.6268L22.664 49.2729L22.7733 49.077C23.2182 48.281 23.6209 47.5628 24.0364 46.8271C24.4044 46.1752 24.7812 45.5147 25.1478 44.8717L25.1484 44.8708L25.1489 44.8699L25.1491 44.8696L25.2464 44.6989C25.3985 44.4329 25.55 44.1669 25.7016 43.9009L25.7042 43.8963C25.8884 43.5725 26.0726 43.2487 26.2563 42.9244C26.3115 42.8275 26.3662 42.7306 26.4208 42.6331C26.476 42.5357 26.5306 42.4383 26.5853 42.3403C26.7652 42.0186 26.9467 41.6923 27.1338 41.3551C27.2426 41.1592 27.3534 40.9597 27.4674 40.755C28.3252 41.3984 29.3213 41.8588 30.5787 42.1949C30.7339 42.2362 30.8963 42.2764 31.0752 42.3181C31.1906 42.345 31.3072 42.3707 31.4237 42.3955C31.6603 42.4455 31.9109 42.4945 32.1898 42.545C32.3702 42.5775 32.5615 42.611 32.7914 42.6496C32.9065 42.6692 33.0216 42.6882 33.1369 42.7073L33.1396 42.7077L33.2838 42.7316L33.5498 42.776L33.587 42.7821C33.665 42.795 33.7432 42.808 33.8215 42.8213C33.0492 43.9457 32.2697 45.0722 31.5139 46.1636L30.8674 47.0973C30.174 48.1 29.8647 49.1899 29.9471 50.3359C29.991 50.9499 30.2023 51.4634 30.5756 51.8619C30.8591 52.1646 31.3695 52.5347 32.1918 52.5786C32.3413 52.5868 32.4924 52.5909 32.6414 52.5909C34.3659 52.5909 36.0193 52.0439 37.5556 50.9654C39.011 49.9436 40.2148 48.7315 41.134 47.3623C41.4938 47.2442 41.8573 47.1272 42.2094 47.0143L42.2275 47.0086L42.329 46.9759C42.6178 46.8831 42.9135 46.788 43.206 46.6926C43.34 46.6487 43.4045 46.6441 43.4261 46.6441C43.4328 46.6441 43.4431 46.6441 43.4813 46.6652C44.3881 47.1669 45.312 47.6546 46.2096 48.1278C46.8004 48.4392 47.4113 48.7614 48.0109 49.0847C50.8335 50.6061 53.701 52.4461 57.036 54.8748C58.9342 56.2568 60.8293 57.7292 62.664 59.1546L62.7241 59.2013L63.2128 59.5807C63.3236 59.6666 63.4344 59.7525 63.5451 59.8385L63.7164 59.9715L63.8773 60.0963C63.9743 60.171 64.0748 60.2386 64.1779 60.2968ZM65.4956 48.1598C63.8969 45.3341 62.5725 42.9863 61.3274 40.7715C61.3197 40.7576 61.3115 40.7447 61.3037 40.7323L61.2996 40.7256L61.2942 40.7175L61.2895 40.7108C61.2862 40.7061 61.2828 40.7016 61.2795 40.6973L61.2764 40.6937L61.272 40.6882L61.2657 40.6812L61.262 40.6772L61.2455 40.6627L61.2408 40.6596C61.24 40.6592 61.2392 40.6588 61.2384 40.6585C61.2379 40.6583 61.2374 40.6582 61.2369 40.658L61.2331 40.6571L61.228 40.6555C61.2266 40.6551 61.2253 40.6547 61.2238 40.6545H61.2218C61.2147 40.6534 61.2095 40.6531 61.2048 40.6528L61.1996 40.6524H61.1913C61.1836 40.6524 61.1743 40.6534 61.1645 40.6545H61.1594L61.1386 40.6579C61.1292 40.6595 61.1203 40.6609 61.1109 40.6627L61.0846 40.6684C61.0032 40.6854 60.9212 40.7029 60.8397 40.7205L60.8041 40.728C60.5621 40.7793 60.313 40.8321 60.0654 40.8787C59.9767 40.8952 59.888 40.9112 59.7994 40.9262C59.5055 40.9757 59.2421 41.0092 58.9941 41.0283H58.9869C58.9369 41.0324 58.8868 41.036 58.8368 41.0386L58.7775 41.0411L58.7307 41.0434C58.7152 41.0441 58.6996 41.0447 58.6842 41.0453L58.6069 41.0473L58.569 41.0484L58.5311 41.0494L58.4435 41.0504H58.3878H58.378C58.3017 41.0504 58.2218 41.0489 58.1419 41.0463L58.1017 41.0453C58.0233 41.0427 57.946 41.0391 57.8692 41.0344L57.8259 41.0319C57.7485 41.0272 57.6702 41.0215 57.5923 41.0148L57.5645 41.0123C57.4893 41.0058 57.414 40.9979 57.3384 40.9899L57.3304 40.9891L57.3155 40.9875C57.2386 40.9791 57.1628 40.9692 57.0865 40.9593L57.0773 40.9581L57.0386 40.953C56.9633 40.9427 56.887 40.9318 56.8107 40.92L56.7721 40.9138C56.6927 40.9014 56.6164 40.8891 56.5401 40.8756L56.5112 40.8705C56.4328 40.8566 56.356 40.8427 56.2787 40.8282L56.2684 40.8262C56.1895 40.8112 56.1111 40.7957 56.0328 40.7798L55.9972 40.7725C55.9219 40.7571 55.8467 40.7416 55.7719 40.7256L55.7307 40.7169C55.6559 40.7009 55.5806 40.6844 55.5059 40.6679L55.475 40.6612C55.3981 40.6442 55.3208 40.6266 55.2435 40.6091C55.1599 40.5902 55.081 40.5717 55.0021 40.5532L55.0019 40.5532L55.0014 40.5531L55.001 40.553L55.0007 40.5529L54.4598 40.4261L54.3562 40.4019L54.3139 40.3921L54.2299 40.3725L54.2253 40.3714C53.1632 40.126 52.0254 39.8786 50.8881 39.727L50.817 39.7177C50.6123 39.6909 50.4221 39.6693 50.2349 39.6507C49.9194 39.6193 49.6075 39.5971 49.309 39.5842C49.1982 39.5796 49.0873 39.576 48.9791 39.5734C48.7796 39.5693 48.58 39.5662 48.38 39.5641C48.3403 39.5641 48.3006 39.5636 48.2604 39.5636L48.0913 39.5625C48.0093 39.562 47.9274 39.5615 47.8454 39.5615H47.7742C47.7366 39.5615 47.6995 39.562 47.6624 39.5625H47.6057C47.4685 39.5636 47.3314 39.5646 47.1942 39.5662C47.1321 39.5667 47.0704 39.5677 47.0082 39.5687L47.0045 39.5687C46.8612 39.5708 46.7179 39.5739 46.5746 39.5775L46.4297 39.5806C46.2405 39.5858 46.0518 39.5914 45.8631 39.5986L45.7363 39.6038C45.5878 39.6095 45.4388 39.6162 45.2903 39.6234L45.1032 39.6327C44.9676 39.6399 44.832 39.6471 44.6964 39.6553L44.5222 39.6657C44.333 39.6775 44.1438 39.6904 43.9546 39.7043L43.8937 39.7095C43.6267 39.7301 43.355 39.7543 43.0859 39.7822C42.7343 39.8188 42.3759 39.8611 41.9903 39.9121C41.5836 39.9657 41.1386 40.0302 40.6303 40.109C40.2339 40.1704 39.8358 40.2348 39.4647 40.2951C38.946 40.3797 38.5392 40.49 38.1851 40.6421C38.1284 40.6663 38.0727 40.6921 38.0201 40.7179C37.8964 40.7792 37.7783 40.8473 37.669 40.92C37.6314 40.9452 37.5937 40.9715 37.5582 40.9978C37.5339 41.0159 37.5102 41.0339 37.4865 41.053C37.3653 41.1489 37.2519 41.2556 37.1488 41.3706C37.1277 41.3943 37.1065 41.4185 37.0859 41.4433C37.023 41.518 36.9627 41.5979 36.9065 41.6814C36.5049 42.2738 36.0749 42.9033 35.5125 43.7225L35.4455 43.8199C34.6128 45.0325 33.7622 46.2621 32.9389 47.4509L32.4331 48.182C32.3754 48.2655 32.3192 48.3542 32.2661 48.4454C32.2145 48.5341 32.1661 48.6259 32.1228 48.7187C32.0908 48.7867 32.066 48.8434 32.0449 48.897C32.0124 48.9785 31.9836 49.0615 31.9593 49.1435C31.9346 49.2265 31.9134 49.3115 31.8959 49.3956C31.8707 49.5188 31.8536 49.6466 31.8454 49.7755C31.8418 49.8281 31.8397 49.8761 31.8392 49.9214C31.8377 50.0122 31.8402 50.1055 31.8469 50.1978C31.8485 50.2215 31.8505 50.2436 31.8536 50.2658C31.8892 50.5458 32.0062 50.6252 32.1702 50.6581C32.2068 50.6654 32.2475 50.6705 32.2913 50.6726C32.3455 50.6757 32.3986 50.6777 32.4522 50.6793L32.5043 50.6803C32.5403 50.6813 32.577 50.6819 32.613 50.6819H32.6594C32.7378 50.6819 32.8146 50.6798 32.8873 50.6772L32.9193 50.6757C33.0018 50.6721 33.0775 50.6674 33.1513 50.6612L33.1688 50.6597C33.2539 50.6525 33.3312 50.6442 33.4065 50.6349H33.4132C33.4864 50.6252 33.5627 50.6138 33.6457 50.5999L33.6704 50.5958C33.7405 50.5839 33.8127 50.57 33.8906 50.554L33.922 50.5473C33.9926 50.5324 34.0648 50.5153 34.1365 50.4973L34.171 50.4885C34.2417 50.4705 34.3128 50.4504 34.3824 50.4298L34.4144 50.42C34.4876 50.3978 34.5592 50.3751 34.6273 50.3519L34.6515 50.3437C34.7294 50.3169 34.801 50.2906 34.8701 50.2638L34.8794 50.2601C34.949 50.2328 35.0232 50.2029 35.0975 50.171L35.1067 50.1668C35.1769 50.1364 35.2465 50.105 35.3212 50.0694L35.3475 50.057C35.4114 50.0266 35.4795 49.9926 35.5491 49.9565L35.58 49.9405C35.6455 49.906 35.712 49.8699 35.778 49.8333L35.8105 49.8147C35.8775 49.7766 35.9435 49.7379 36.0064 49.6992L36.0347 49.6817C36.1054 49.6384 36.1698 49.5972 36.2332 49.5559L36.2518 49.5435C36.326 49.4946 36.3935 49.4487 36.4585 49.4028C37.2983 48.813 38.0417 48.1536 38.6681 47.4422C38.8635 47.2205 39.0512 46.989 39.226 46.7549C39.4038 46.5168 39.574 46.2688 39.7312 46.0177C39.7451 45.9955 39.7611 45.9729 39.7797 45.9476L39.7967 45.9249C39.8022 45.918 39.8079 45.9112 39.8136 45.9044C39.8207 45.8961 39.8279 45.8878 39.8353 45.8795C39.8493 45.8641 39.8637 45.8496 39.8786 45.8352C39.8967 45.8182 39.9152 45.8027 39.9338 45.7878C39.9848 45.7476 40.0379 45.7171 40.0916 45.6965C40.0988 45.6934 40.1055 45.6909 40.1122 45.6888C40.6185 45.5192 41.1355 45.3532 41.6356 45.1928L41.7148 45.1674L41.7169 45.1667C42.0157 45.0708 42.3148 44.9747 42.6131 44.8773C42.6502 44.8655 42.6842 44.8546 42.7183 44.8448L42.7518 44.8356C42.777 44.8283 42.8002 44.8222 42.8234 44.816L42.8554 44.8082L42.8652 44.8062C42.8858 44.801 42.9075 44.7959 42.9291 44.7912L42.9357 44.7899C42.9457 44.7878 42.9555 44.7857 42.9652 44.784L42.9735 44.7825C42.9941 44.7783 43.0152 44.7742 43.0359 44.7706L43.075 44.7644L43.0802 44.7634C43.1003 44.7603 43.1209 44.7572 43.1415 44.7546C43.1575 44.7526 43.1725 44.751 43.1879 44.749L43.2493 44.7428C43.2653 44.7412 43.2807 44.7402 43.2962 44.7392C43.3168 44.7376 43.3374 44.7371 43.3581 44.7366C43.373 44.7366 43.389 44.7355 43.4045 44.7355C43.4129 44.7353 43.4197 44.7353 43.4258 44.7353L43.4524 44.7355H43.4581C43.4803 44.7361 43.5024 44.7366 43.5246 44.7376L43.5278 44.7378L43.5589 44.7398L43.5767 44.7412C43.5983 44.7428 43.6205 44.7448 43.6426 44.7474C43.6602 44.7495 43.6777 44.7515 43.6947 44.7541C43.7169 44.7572 43.7391 44.7608 43.7617 44.7644L43.8128 44.7737C43.8246 44.7761 43.8363 44.7786 43.8479 44.7812C43.8591 44.7837 43.8702 44.7864 43.8813 44.7892L43.8991 44.7934C43.9099 44.796 43.9207 44.7985 43.9314 44.8015C43.9551 44.8077 43.9778 44.8149 44.0009 44.8222L44.0128 44.8258C44.0252 44.8299 44.0381 44.8335 44.0504 44.8376C44.0731 44.8454 44.0963 44.8541 44.119 44.8629L44.1329 44.868C44.1448 44.8722 44.1566 44.8768 44.168 44.8814C44.1943 44.8923 44.2211 44.9041 44.2479 44.9165L44.2577 44.9206L44.2579 44.9207C44.2671 44.9248 44.2763 44.9289 44.286 44.9335C44.3268 44.9531 44.3665 44.9737 44.4041 44.9944C45.2955 45.4872 46.2126 45.9713 47.0999 46.4389L47.235 46.5102C47.7882 46.8024 48.357 47.1027 48.9151 47.4035C51.5965 48.8491 54.4006 50.6293 57.4882 52.8466C57.7119 53.0075 57.9352 53.1683 58.1584 53.3307C58.5956 53.6488 59.0554 53.9896 59.6066 54.4026C59.7607 54.518 59.9148 54.6335 60.0685 54.7495C61.3749 55.7358 62.6885 56.756 63.9588 57.7433L64.5733 58.2207L64.6206 58.2575C64.7622 58.3675 64.9041 58.4778 65.0461 58.5873C65.0569 58.596 65.0677 58.6038 65.0781 58.611L65.093 58.6208L65.0969 58.6234C65.1001 58.6256 65.1031 58.6277 65.1064 58.6295L65.1817 58.6615H65.1894L65.2358 58.6527L65.3069 58.6223C65.3159 58.618 65.3239 58.6138 65.332 58.6095L65.3399 58.6053C65.7782 58.3718 66.2045 58.0939 66.6427 57.7562C66.7314 57.6876 66.8227 57.6155 66.9129 57.5417C67.001 57.4696 67.0897 57.3948 67.1774 57.3195L67.2229 57.2801L67.3083 57.2056C67.9177 56.6679 68.5008 56.0657 69.0643 55.4837C69.1864 55.3574 69.3091 55.231 69.4318 55.1047L68.3198 53.1426L68.0718 52.705L68.0692 52.7004L68.0666 52.6958L68.064 52.6911C67.2078 51.1804 66.3514 49.6693 65.4967 48.1577L65.4956 48.1598ZM32.6192 63.6195C32.1042 64.281 31.5969 64.947 31.1685 65.511L31.1669 65.5085L30.9804 65.7544C30.8636 65.9084 30.7473 66.0618 30.6318 66.2143C30.1245 66.8839 29.5997 67.5763 29.0754 68.2568C28.9099 68.4718 28.7645 68.6976 28.6438 68.9276C28.6145 68.958 28.5856 68.9874 28.5583 69.0147L28.5516 69.0214C28.4675 69.1044 28.383 69.1817 28.3 69.2508C28.2752 69.2714 28.2474 69.2921 28.2175 69.3117C28.1886 69.3307 28.1567 69.3498 28.1226 69.3684C28.1056 69.3777 28.0886 69.3864 28.0711 69.3952C28.037 69.4122 28.001 69.4292 27.9607 69.4467C27.9216 69.4643 27.8819 69.4808 27.8417 69.4967C27.7994 69.5138 27.7566 69.5308 27.7138 69.5473L27.704 69.5514V69.5478L27.437 69.5571C27.4248 69.5573 27.4127 69.5574 27.4007 69.5575C27.3922 69.5575 27.3838 69.5575 27.3754 69.5576L27.3509 69.5576L27.3322 69.5573L27.3138 69.5568L27.3029 69.5565L27.3025 69.5565C27.2851 69.556 27.2677 69.5555 27.2508 69.5545C27.2354 69.5535 27.2194 69.5524 27.2034 69.5509C27.1864 69.5498 27.1694 69.5483 27.1524 69.5462L27.106 69.54L27.0554 69.5323L27.0299 69.5276L27.0106 69.5241C26.9969 69.5215 26.9833 69.5186 26.9693 69.5156L26.9606 69.5138C26.9456 69.5107 26.9307 69.5071 26.9157 69.5034C26.8992 69.4998 26.8833 69.4957 26.8668 69.4911C26.8572 69.4887 26.8476 69.4858 26.838 69.483L26.838 69.483L26.8235 69.4787C26.8075 69.4735 26.791 69.4684 26.776 69.4637C26.7616 69.4591 26.7471 69.4539 26.7327 69.4488C26.7172 69.4436 26.7018 69.438 26.6858 69.4318C26.677 69.4285 26.6682 69.425 26.6593 69.4215L26.644 69.4153C26.6286 69.4091 26.6131 69.4024 26.5976 69.3957L26.5831 69.3892L26.5659 69.3814L26.5569 69.3771L26.5115 69.355C26.4981 69.3483 26.4842 69.341 26.4713 69.3343L26.4709 69.3341C26.4561 69.3265 26.4413 69.3188 26.427 69.3106L26.4164 69.3049C26.4066 69.2996 26.3968 69.2942 26.3873 69.2885L26.344 69.2622C26.3311 69.2544 26.3177 69.2462 26.3058 69.2384C26.2914 69.2292 26.2775 69.2199 26.2631 69.2101C26.2502 69.2018 26.2378 69.1931 26.2259 69.1848L26.206 69.1707C26.1987 69.1655 26.1914 69.1601 26.1842 69.1544L26.1638 69.1391L26.1481 69.1271C26.1405 69.1213 26.1329 69.1153 26.1253 69.1092L26.108 69.0952L26.1079 69.0951C26.096 69.0853 26.0842 69.076 26.0728 69.0663C26.0664 69.0608 26.06 69.0553 26.0538 69.05C26.0487 69.0455 26.0436 69.041 26.0386 69.0366L26.0386 69.0366L26.0341 69.0327L26.028 69.0276L25.9996 69.0023C25.9932 68.9964 25.9867 68.9902 25.98 68.9837C25.9738 68.9778 25.9673 68.9716 25.9604 68.9652C25.9501 68.9554 25.9398 68.9456 25.9295 68.9353C25.9231 68.9291 25.9168 68.9228 25.9105 68.9165L25.8934 68.8987L25.8852 68.8905C25.877 68.8823 25.8693 68.8741 25.8616 68.8659L25.8614 68.8657L25.8469 68.8502C25.8439 68.8469 25.8409 68.8436 25.8377 68.8401C25.8339 68.8358 25.83 68.8313 25.8259 68.8265L25.8207 68.8209L25.8121 68.8113L25.812 68.8112C25.8065 68.8051 25.8008 68.7989 25.7955 68.7925C25.7894 68.7856 25.7834 68.7786 25.7771 68.771L25.7614 68.7518L25.7563 68.7456C25.7485 68.7358 25.7403 68.7265 25.7331 68.7172C25.7233 68.7049 25.714 68.693 25.7047 68.6806L25.6923 68.6641L25.6862 68.6562C25.6834 68.6526 25.6807 68.6491 25.678 68.6455C25.6762 68.6432 25.6745 68.6408 25.6728 68.6384C25.663 68.625 25.6532 68.611 25.6418 68.5951L25.6336 68.5832L25.6155 68.5574L25.6153 68.5571C25.6085 68.5468 25.6016 68.5365 25.5947 68.5259L25.5908 68.5198L25.5794 68.5028C25.5732 68.4935 25.5671 68.4837 25.5614 68.4749C25.5546 68.4647 25.5484 68.4544 25.5421 68.4439L25.5382 68.4373L25.5263 68.4182L25.5093 68.3899C25.5021 68.3775 25.4949 68.3646 25.4882 68.3522L25.4753 68.3285C25.4724 68.3239 25.4697 68.3191 25.4671 68.3143L25.4609 68.3027L25.4418 68.2651L25.4284 68.2393L25.416 68.2146C25.4098 68.2022 25.4042 68.1898 25.3985 68.1769L25.3861 68.1507L25.3797 68.137L25.3742 68.1249C25.3686 68.112 25.3629 68.0991 25.3578 68.0862L25.3454 68.0568C25.3433 68.0524 25.3414 68.048 25.3396 68.0435L25.3356 68.0336L25.3201 67.9924L25.3005 67.9408C25.2976 67.9326 25.2948 67.9242 25.292 67.9157L25.2856 67.8965L25.2691 67.8475C25.2651 67.8356 25.2616 67.8236 25.2581 67.8115L25.2521 67.7913L25.2407 67.7532C25.2321 67.7239 25.2248 67.6942 25.2176 67.6649L25.216 67.6583C25.1969 67.5799 25.1845 67.5011 25.1789 67.4242C25.1763 67.3871 25.1752 67.35 25.1752 67.3134C25.1758 67.2778 25.1773 67.2417 25.1804 67.2062C25.1866 67.1381 25.1979 67.068 25.2144 66.9989C25.2227 66.9654 25.232 66.9314 25.2428 66.8974C25.2466 66.885 25.2508 66.8726 25.255 66.86L25.2593 66.8473C25.282 66.7824 25.3098 66.7154 25.3428 66.6468L25.3675 66.5973C25.4743 66.3885 25.616 66.1843 25.7537 65.9951L25.8444 65.8708L25.9346 65.7472L26.0589 65.577C26.5126 65.0079 26.9637 64.4263 27.4246 63.8309C27.6091 63.5917 27.7628 63.3437 27.8824 63.0931L27.9607 62.9874L27.9617 62.9862C28.2748 62.5628 28.588 62.1395 28.9016 61.7166L29.2099 61.3006C29.3285 61.1413 29.461 60.9742 29.6399 60.7577C29.7142 60.668 29.7895 60.5783 29.8643 60.489L29.8812 60.469L29.9606 60.3743L30.0534 60.2633C30.0704 60.2432 30.0874 60.2241 30.1049 60.2045L30.1199 60.1885L30.1319 60.1757C30.1404 60.1667 30.1494 60.1575 30.1596 60.1473L30.173 60.1339C30.1864 60.12 30.2003 60.1071 30.2142 60.0947L30.2245 60.0854C30.2415 60.0705 30.2591 60.056 30.2761 60.0421L30.2895 60.0313C30.2977 60.0247 30.3062 60.0183 30.3147 60.012L30.3292 60.0014L30.3462 59.9895L30.3724 59.972L30.3848 59.9638L30.3993 59.9545C30.4168 59.9437 30.4343 59.9333 30.4519 59.9235L30.4622 59.9179C30.4709 59.9131 30.4795 59.9086 30.4878 59.9044L30.505 59.8957L30.523 59.8869L30.5617 59.8699L30.5787 59.8627C30.5962 59.8555 30.6132 59.8493 30.6323 59.8426L30.6359 59.8411C30.6529 59.8354 30.6705 59.8297 30.6895 59.8246L30.7055 59.8204C30.7189 59.8168 30.7323 59.8138 30.7457 59.8107L30.7457 59.8107L30.7457 59.8106L30.7643 59.8065C30.7792 59.8029 30.7947 59.8003 30.8102 59.7978L30.8225 59.7957C30.8421 59.7926 30.8612 59.79 30.8798 59.788L30.8968 59.7864C30.9112 59.7849 30.9257 59.7838 30.9406 59.7828L30.9612 59.7818C30.9684 59.7813 30.9756 59.7809 30.9832 59.7806C30.9908 59.7804 30.9988 59.7802 31.0071 59.7802H31.0231C31.0447 59.7802 31.0664 59.7807 31.0886 59.7818L31.1035 59.7828C31.1216 59.7838 31.1396 59.7854 31.1587 59.7869L31.1778 59.789C31.1999 59.7916 31.2221 59.7941 31.2396 59.7967L31.2479 59.7978C31.2716 59.8014 31.2948 59.8055 31.319 59.8101L31.3396 59.8143L31.3633 59.819C31.3745 59.8214 31.3859 59.8239 31.3974 59.8266L31.4139 59.8302C31.4386 59.8364 31.4629 59.8426 31.4876 59.8493L31.5056 59.8545C31.5258 59.8601 31.5453 59.8658 31.5655 59.872L31.5876 59.8787C31.6091 59.8853 31.6307 59.8926 31.6525 59.9001L31.6639 59.904L31.6753 59.9081C31.7402 59.9313 31.8047 59.9581 31.8681 59.9875C31.9341 60.0184 31.9995 60.053 32.063 60.0901C32.1258 60.1272 32.1882 60.1674 32.2486 60.2107C32.546 60.4236 32.8012 60.7051 32.9863 61.0253C33.0409 61.1191 33.0894 61.2171 33.1301 61.315C33.1441 61.348 33.1569 61.381 33.1688 61.414C33.1925 61.48 33.2137 61.5475 33.2312 61.614C33.2487 61.6805 33.2631 61.7481 33.2735 61.8146C33.2843 61.8811 33.2915 61.9486 33.2946 62.0141C33.2992 62.1141 33.2961 62.2131 33.2848 62.3085C33.2807 62.343 33.2745 62.3806 33.2657 62.4245C33.2575 62.4667 33.2466 62.5116 33.2332 62.557L33.2276 62.5771C33.2265 62.5817 33.2255 62.5863 33.224 62.591C33.2137 62.624 33.2003 62.6611 33.1838 62.7034C33.1776 62.7199 33.1709 62.7359 33.1642 62.7518C33.1466 62.7941 33.1291 62.8333 33.1105 62.8709C33.093 62.9075 33.0739 62.9436 33.0543 62.9792L33.0441 62.9975C33.0284 63.0256 33.0126 63.0538 32.9961 63.0818C32.9822 63.1055 32.9683 63.1287 32.9538 63.1519C32.8925 63.2509 32.8203 63.3581 32.727 63.4891C32.6899 63.5313 32.6538 63.5752 32.6192 63.6195ZM35.497 69.7138L35.5068 69.7004L35.5668 69.6169C35.7102 69.4175 35.8535 69.2182 35.9955 69.0178C36.2889 68.6059 36.575 68.2001 36.8467 67.8114L36.8557 67.7981C36.859 67.793 36.8622 67.7881 36.8653 67.7831L36.8689 67.7774L36.8766 67.7651L36.8941 67.7372C36.9148 67.7026 36.9354 67.6655 36.9539 67.6269C36.9947 67.5444 37.0333 67.451 37.0756 67.333C37.0961 67.2758 37.1157 67.2178 37.1353 67.1598L37.1353 67.1596L37.155 67.1015C37.1689 67.0597 37.1828 67.0175 37.1973 66.9757L37.2035 66.9572L37.154 66.9365L37.1653 66.753C37.171 66.6623 37.1694 66.5695 37.1617 66.4777C37.1586 66.4411 37.154 66.404 37.1483 66.3643C37.1411 66.3158 37.1318 66.2663 37.1205 66.2174C37.105 66.1493 37.0864 66.0833 37.0653 66.0214C37.0457 65.9637 37.023 65.906 36.9978 65.8503C36.973 65.7946 36.9452 65.7389 36.9153 65.6848C36.8854 65.6312 36.8529 65.5776 36.8184 65.526C36.6101 65.2156 36.3214 64.9543 35.9842 64.7707C35.9285 64.7403 35.8708 64.712 35.8125 64.6857C35.7543 64.6599 35.6945 64.6362 35.6347 64.615C35.6048 64.6042 35.5743 64.5944 35.5434 64.5851C35.513 64.5758 35.4826 64.5671 35.4516 64.5594L35.4321 64.5544C35.4146 64.5499 35.3971 64.5454 35.3795 64.5413L35.3635 64.5377L35.345 64.5334C35.3284 64.5295 35.3112 64.5255 35.2944 64.5217L35.3429 64.2686L35.2892 64.5207L35.2841 64.5197C35.2629 64.515 35.2413 64.5104 35.2202 64.5062L35.2083 64.5042L35.1761 64.4981C35.1638 64.4958 35.1517 64.4938 35.1397 64.4918L35.1258 64.4898C35.114 64.4878 35.1022 64.4861 35.0905 64.4843C35.0828 64.4832 35.0752 64.4822 35.0677 64.4811L35.0598 64.48C35.033 64.4763 35.0103 64.4738 34.9882 64.4717L34.9732 64.4702C34.9521 64.4681 34.9304 64.4665 34.9083 64.4655H34.8995C34.8809 64.4645 34.8613 64.464 34.8423 64.464H34.8278C34.816 64.464 34.8031 64.464 34.7902 64.4645H34.7814L34.7314 64.4676L34.7196 64.4686C34.7077 64.4696 34.6958 64.4707 34.684 64.4722L34.6696 64.4743C34.6639 64.475 34.6586 64.4758 34.6534 64.4766C34.648 64.4775 34.6428 64.4784 34.6376 64.4794L34.6206 64.4825C34.6118 64.4841 34.602 64.4861 34.5922 64.4887L34.5773 64.4923C34.5649 64.4954 34.5525 64.4985 34.5402 64.5021L34.5314 64.5047C34.5263 64.5061 34.5206 64.5079 34.5144 64.51C34.5075 64.5123 34.5001 64.5149 34.4927 64.5176L34.4788 64.5233C34.4695 64.5269 34.4602 64.5305 34.4515 64.5341L34.4376 64.5403L34.4325 64.5426C34.4293 64.5441 34.4259 64.5456 34.4225 64.5473C34.4189 64.549 34.4153 64.5508 34.4118 64.5527L34.3973 64.5599C34.3886 64.564 34.3799 64.5691 34.3711 64.5742L34.3711 64.5743L34.3587 64.581C34.3463 64.5882 34.335 64.5954 34.3236 64.6032L34.3185 64.6068C34.3071 64.6145 34.2953 64.6233 34.2834 64.6326L34.2731 64.6408C34.2638 64.648 34.2551 64.6552 34.2463 64.663L34.2334 64.6743C34.2257 64.6815 34.2174 64.6893 34.2097 64.697L34.1983 64.7083L34.1947 64.712C34.1905 64.7162 34.1863 64.7205 34.1822 64.725C34.1787 64.7287 34.1753 64.7324 34.1721 64.7362L34.1612 64.748C34.1541 64.7564 34.1471 64.7645 34.1404 64.7727C34.1354 64.7787 34.1305 64.7847 34.1257 64.7908C33.7405 65.2858 33.3302 65.8199 32.7961 66.5231L32.1609 67.3608C31.9325 67.6624 31.7036 67.9645 31.4747 68.2656C31.3278 68.4595 31.1803 68.6528 31.0324 68.8461C30.8844 69.0395 30.7364 69.2328 30.588 69.4251C30.5209 69.5122 30.4601 69.6009 30.407 69.6885C30.3555 69.7741 30.3101 69.8607 30.2719 69.9468L30.2632 69.9674C30.1606 70.2067 30.1095 70.4521 30.1116 70.6964C30.1126 70.8052 30.124 70.916 30.1456 71.0269C30.1544 71.0717 30.1657 71.1192 30.1797 71.1718C30.2121 71.2908 30.256 71.4115 30.3106 71.5306C30.3302 71.5739 30.3534 71.6203 30.3802 71.6718C30.4091 71.7265 30.4405 71.7827 30.4746 71.8384C30.5344 71.9368 30.6003 72.0353 30.6715 72.1312C30.6957 72.1637 30.721 72.1961 30.7473 72.2281L30.7591 72.2415L30.7798 72.2652C30.7952 72.2833 30.8107 72.3013 30.8272 72.3183L30.8362 72.3276L30.8452 72.3369L30.871 72.3632C30.8839 72.3766 30.8973 72.39 30.9107 72.4029C30.9145 72.4067 30.9185 72.4104 30.9226 72.414L30.9334 72.4235L30.9576 72.4457L30.9796 72.4654L30.9978 72.4818C31.0061 72.489 31.0143 72.4957 31.0231 72.5024L31.0463 72.5209C31.0602 72.5323 31.0736 72.5431 31.0881 72.5539L31.1067 72.5677L31.1185 72.5761L31.1391 72.5905L31.1808 72.6199C31.1927 72.6282 31.2051 72.6359 31.2175 72.6436L31.2252 72.6483L31.2395 72.6573C31.2522 72.6654 31.2643 72.6731 31.2767 72.6802C31.2817 72.6832 31.2867 72.6861 31.2918 72.6889C31.2945 72.6904 31.2971 72.6918 31.2997 72.6933L31.317 72.7029L31.3221 72.706C31.3396 72.7158 31.3566 72.7251 31.3742 72.7344C31.3896 72.7426 31.4056 72.7498 31.4211 72.7576C31.4386 72.7663 31.4562 72.7746 31.4737 72.7823C31.4897 72.7895 31.5056 72.7962 31.5221 72.8029C31.5397 72.8102 31.5577 72.8174 31.5758 72.8241C31.5917 72.8303 31.6082 72.8359 31.6247 72.8416L31.6392 72.8466C31.6476 72.8494 31.6561 72.8523 31.6645 72.855C31.6693 72.8566 31.6741 72.8582 31.6789 72.8597L31.7037 72.8672L31.7284 72.8746C31.7464 72.8798 31.7644 72.8849 31.783 72.8896C31.7995 72.8937 31.816 72.8978 31.8325 72.9014L31.8474 72.9047L31.8476 72.9047C31.8613 72.9077 31.8746 72.9106 31.8882 72.9133C31.9047 72.9164 31.9212 72.9195 31.9377 72.922C31.9567 72.9251 31.9753 72.9277 31.9939 72.9303L32.0434 72.9365C32.0624 72.9385 32.081 72.9401 32.0996 72.9416C32.1166 72.9432 32.1331 72.9442 32.1501 72.9452C32.1686 72.9463 32.1872 72.9463 32.2063 72.9468L32.2256 72.9469H32.2256C32.2367 72.947 32.2466 72.9471 32.2563 72.9468C32.2723 72.9468 32.2872 72.9463 32.3027 72.9452C32.3211 72.9447 32.339 72.9437 32.3569 72.9427L32.3573 72.9427C32.3657 72.9421 32.374 72.9414 32.3824 72.9406C32.3895 72.94 32.3966 72.9392 32.4037 72.9385C32.4223 72.937 32.4398 72.9349 32.4579 72.9329L32.5043 72.9267C32.5223 72.9241 32.5398 72.921 32.5574 72.9179C32.5728 72.9153 32.5883 72.9122 32.6032 72.9086C32.6187 72.9055 32.6335 72.9021 32.6484 72.8985L32.6488 72.8984L32.6558 72.8968C32.6708 72.8932 32.6862 72.889 32.7017 72.8849C32.7187 72.8803 32.7357 72.8751 32.7533 72.87C32.7677 72.8658 32.7832 72.8607 32.7981 72.8555L32.8162 72.8492L32.8486 72.8375C32.8636 72.8318 32.8785 72.8267 32.8935 72.8205C32.9098 72.8138 32.9262 72.8067 32.9425 72.7995L32.943 72.7993C32.9512 72.7958 32.9595 72.7921 32.9677 72.7883C32.9739 72.7855 32.9801 72.7826 32.9863 72.7797C33.0028 72.772 33.0188 72.7638 33.0342 72.756L33.0394 72.7534L33.0498 72.7482C33.0589 72.7435 33.0681 72.7387 33.077 72.7339C33.0925 72.7251 33.108 72.7163 33.1229 72.7071L33.1332 72.7009C33.1441 72.6947 33.1549 72.6885 33.1652 72.6818C33.1725 72.6772 33.1797 72.6724 33.1869 72.6676L33.2064 72.6545L33.2229 72.6431C33.2322 72.6369 33.2415 72.6307 33.2508 72.624C33.2583 72.6188 33.2655 72.6134 33.2726 72.608L33.2889 72.5952L33.309 72.5797L33.3209 72.5707L33.3343 72.5601C33.3467 72.5498 33.359 72.5395 33.3709 72.5287L33.3936 72.5091C33.4008 72.5029 33.408 72.4967 33.4147 72.4905C33.4271 72.4792 33.4389 72.4673 33.4508 72.4555L33.475 72.4317L33.4807 72.4262C33.4845 72.4226 33.4881 72.419 33.4915 72.4153C33.5058 72.4005 33.5192 72.3852 33.5329 72.3695L33.5348 72.3673L33.5549 72.3446C33.5585 72.341 33.5616 72.3374 33.5653 72.3333C33.59 72.3044 33.6137 72.2745 33.6359 72.2451C33.6857 72.1789 33.7351 72.1125 33.7845 72.0462L33.8787 71.9198L34.0148 71.7368C34.4736 71.1212 34.8809 70.567 35.2599 70.0432C35.2882 70.0041 35.3164 69.9648 35.3446 69.9253L35.3939 69.8566L35.496 69.7143L35.497 69.7138ZM25.9171 62.6621L25.9022 62.6817L25.8986 62.6838C25.7836 62.8328 25.6686 62.9813 25.5531 63.1297C25.1577 63.6386 24.835 64.0495 24.5375 64.4227L24.4633 64.516C24.4549 64.5264 24.4463 64.5367 24.4376 64.5469C24.4298 64.5561 24.4218 64.5653 24.4138 64.5743L24.3968 64.5923C24.3854 64.6047 24.3741 64.6171 24.3627 64.6284L24.3421 64.648C24.3313 64.6583 24.3205 64.6686 24.3096 64.6784L24.288 64.697L24.255 64.7238C24.2473 64.7295 24.24 64.7352 24.2328 64.7408C24.222 64.7496 24.2107 64.7578 24.1993 64.7656L24.1771 64.781C24.1653 64.7893 24.1534 64.7965 24.1411 64.8042L24.121 64.8166C24.1065 64.8254 24.0916 64.8331 24.0776 64.8408L24.0627 64.8491C24.0431 64.8594 24.023 64.8692 24.0055 64.8769L23.9926 64.8826C23.989 64.8841 23.9854 64.8856 23.9818 64.8872C23.9692 64.8925 23.9564 64.8979 23.9436 64.9027L23.923 64.9099L23.9222 64.9102C23.909 64.9147 23.8959 64.9193 23.8823 64.9238L23.8585 64.9311C23.8457 64.9352 23.8333 64.9388 23.8199 64.9424C23.8121 64.9445 23.8039 64.9465 23.7951 64.9486C23.7822 64.9517 23.7694 64.9548 23.7575 64.9574L23.7312 64.9625C23.7213 64.9645 23.7114 64.9662 23.6992 64.9682L23.6874 64.9702L23.6668 64.9733C23.6547 64.9752 23.6422 64.9766 23.63 64.978L23.626 64.9785L23.6023 64.9811C23.5851 64.9825 23.568 64.9835 23.5513 64.9845L23.5487 64.9847L23.5368 64.9857C23.5147 64.9873 23.493 64.9873 23.4719 64.9873H23.4621C23.4306 64.9867 23.3997 64.9857 23.3688 64.9831H23.3564C23.3249 64.9811 23.293 64.9775 23.26 64.9733L23.2435 64.9713C23.212 64.9671 23.1811 64.962 23.1502 64.9558L23.1337 64.9522C23.1012 64.9455 23.0692 64.9383 23.0399 64.9305L23.0321 64.9285L23.0321 64.9285C23.0012 64.9197 22.9702 64.9109 22.9388 64.9006L22.9259 64.8965C22.8955 64.8862 22.8656 64.8754 22.8357 64.864L22.8187 64.8573C22.7893 64.846 22.7599 64.8336 22.7316 64.8207L22.7171 64.814C22.6913 64.8022 22.6656 64.7898 22.6403 64.7769L22.6233 64.7656L22.6104 64.7614C22.465 64.6846 22.3294 64.6011 22.2067 64.5135C22.1557 64.4769 22.1057 64.4387 22.0583 64.4001C21.9871 64.3423 21.9196 64.2815 21.8577 64.2191C21.8371 64.198 21.8165 64.1768 21.7969 64.1557C21.7577 64.1129 21.7195 64.0691 21.6845 64.0247C21.6309 63.9577 21.5819 63.8881 21.5386 63.817C21.3432 63.4984 21.2432 63.1323 21.2411 62.7297C21.2406 62.6317 21.2457 62.5296 21.2566 62.4265C21.2659 62.3394 21.2911 62.2425 21.3313 62.1394C21.3628 62.0595 21.404 61.9739 21.4535 61.8852C21.4726 61.8507 21.4927 61.8172 21.5128 61.7842C21.5334 61.7502 21.5545 61.7178 21.5756 61.6854L21.5757 61.6852C21.5812 61.6768 21.5867 61.6685 21.5922 61.6604C21.5975 61.6524 21.6029 61.6446 21.6082 61.6367C21.7128 61.4826 21.8221 61.3264 21.9412 61.1588C22.0304 61.034 22.1206 60.9098 22.2114 60.7861C22.4614 60.4458 22.7135 60.1143 22.9048 59.8632L22.9909 59.7503C23.0089 59.7271 23.027 59.705 23.0455 59.6833L23.0636 59.6632C23.0765 59.6488 23.0893 59.6348 23.1017 59.6214C23.1079 59.6147 23.1141 59.6086 23.1234 59.5993C23.1275 59.5953 23.1315 59.5914 23.1355 59.5875C23.1437 59.5796 23.1517 59.5718 23.16 59.5642C23.1636 59.5609 23.1673 59.5575 23.1711 59.5542C23.1748 59.5508 23.1785 59.5475 23.1821 59.5441C23.1945 59.5333 23.2074 59.5225 23.2203 59.5116L23.2409 59.4946C23.2559 59.4828 23.2708 59.4714 23.2847 59.4616L23.3007 59.4498C23.3208 59.4358 23.3404 59.4224 23.3636 59.4085L23.3755 59.4018C23.3915 59.3925 23.4069 59.3838 23.4229 59.375L23.4446 59.3637C23.4484 59.3618 23.4522 59.3598 23.456 59.3579C23.4656 59.3529 23.4753 59.348 23.4853 59.3436L23.509 59.3327C23.5157 59.3299 23.5225 59.327 23.5292 59.3242C23.5358 59.3215 23.5423 59.3188 23.5487 59.3162L23.5724 59.307C23.5833 59.3027 23.5941 59.299 23.6052 59.2952C23.6089 59.294 23.6125 59.2928 23.6162 59.2915L23.6369 59.2848C23.657 59.2781 23.6771 59.2724 23.6992 59.2667L23.7044 59.2652C23.7255 59.2595 23.7467 59.2549 23.7673 59.2508L23.7884 59.2472C23.7941 59.2462 23.7998 59.2452 23.8054 59.2442C23.815 59.2424 23.8244 59.2407 23.8338 59.2394L23.8591 59.2358C23.873 59.2338 23.8874 59.2322 23.9013 59.2307L23.9276 59.2281C23.9374 59.227 23.9469 59.2265 23.9564 59.2259C23.9611 59.2256 23.9657 59.2253 23.9704 59.225L23.9952 59.2234C24.0117 59.2224 24.0282 59.2219 24.0436 59.2219H24.0622C24.0921 59.2219 24.1215 59.2229 24.1509 59.2245L24.1699 59.2255L24.1701 59.2255C24.1994 59.2276 24.2288 59.2296 24.2612 59.2337L24.271 59.2348C24.2983 59.2379 24.3251 59.242 24.3529 59.2466L24.3664 59.2487C24.3952 59.2533 24.4241 59.2595 24.453 59.2657L24.471 59.2698C24.4999 59.276 24.5288 59.2832 24.555 59.2905L24.5643 59.293C24.5916 59.3003 24.6179 59.308 24.6447 59.3168L24.6592 59.3214C24.6865 59.3302 24.7133 59.3394 24.7396 59.3492L24.7551 59.3549C24.7819 59.3652 24.8087 59.3755 24.8345 59.3864C24.9118 59.4188 24.9886 59.4554 25.0629 59.4956C25.1634 59.5498 25.2608 59.6111 25.3526 59.6776C25.4222 59.7282 25.4897 59.7823 25.5531 59.839C25.5964 59.8772 25.6382 59.9174 25.6774 59.9576C25.6975 59.9777 25.7171 59.9983 25.7362 60.02C25.7939 60.0839 25.848 60.1509 25.897 60.2195C25.9135 60.2427 25.93 60.2664 25.9455 60.2901C26.0847 60.501 26.1811 60.7294 26.2321 60.9686C26.26 61.0969 26.2739 61.2279 26.2749 61.3573C26.2754 61.4197 26.2728 61.4831 26.2672 61.546L26.2167 62.1368L26.2144 62.1432C26.2115 62.1515 26.2086 62.16 26.2053 62.1682C26.1605 62.2863 26.095 62.4085 26.012 62.5312C25.9831 62.574 25.9511 62.6178 25.9171 62.6621Z" fill="white"/>
</svg>
