<svg width="86" height="86" viewBox="0 0 86 86" fill="none" xmlns="http://www.w3.org/2000/svg">
<path fill-rule="evenodd" clip-rule="evenodd" d="M20.4796 39.0772C18.8713 42.5143 18.0561 46.2672 18.0561 50.1302H18.0487C18.0708 54.735 19.2458 58.9873 21.5005 62.9164H10.3006C9.07413 59.6703 8.33237 56.2553 8.09001 52.6493C7.48045 43.3736 9.96278 35.0085 15.6619 27.6864C21.3242 20.4303 28.7565 15.9577 37.8633 14.4669C53.6239 11.8891 68.6575 20.188 75.4508 34.3769C78.3738 40.4726 79.4754 46.9281 78.8145 53.6481C78.4987 56.8869 77.7789 59.9714 76.67 62.9164H65.4554C67.9965 58.5466 69.1642 53.7803 68.8778 48.654C68.1948 36.4994 59.4185 26.6509 47.8367 24.6165C36.4826 22.6189 25.4076 28.5236 20.4796 39.0772ZM55.8344 34.186C56.275 33.8408 56.7157 33.4957 57.3399 33.011L57.3326 33.0183C56.3998 36.0514 55.5332 38.8643 54.6666 41.6771C54.0504 43.6812 53.4366 45.6853 52.8227 47.6894L52.8223 47.6909L52.8218 47.6924L52.8214 47.6939L52.8209 47.6954C51.899 50.7053 50.977 53.7153 50.0471 56.7253C48.9602 60.2505 45.8977 62.4905 42.299 62.4244C38.8399 62.3583 35.7627 59.9421 34.9181 56.483C34.1396 53.2882 35.0356 50.5342 37.6061 48.4851C42.0249 44.9684 46.4751 41.4947 50.9251 38.0213L50.9264 38.0203C52.5629 36.7429 54.1994 35.4655 55.8344 34.186ZM39.4421 54.5C39.3981 56.1892 40.7641 57.5919 42.4753 57.6066L42.4826 57.5993C44.1938 57.6213 45.5892 56.2479 45.5892 54.5588C45.5819 52.8623 44.1938 51.4742 42.5047 51.4742C40.8596 51.4742 39.4862 52.8329 39.4421 54.5ZM42.3578 36.771C43.0996 36.7857 43.8413 36.7857 44.5758 36.771C45.4571 36.7563 45.9565 36.2789 45.9785 35.4049C45.9932 34.8762 45.9883 34.3474 45.9834 33.8186C45.981 33.5542 45.9785 33.2898 45.9785 33.0254V31.8357C45.9785 31.7035 45.9801 31.5713 45.9818 31.4391V31.4389C45.985 31.1745 45.9883 30.9102 45.9785 30.6459C45.9565 29.7059 45.5011 29.2505 44.5537 29.2211C43.8413 29.2065 43.129 29.2065 42.4166 29.2211C41.4618 29.2432 40.9845 29.6912 40.9771 30.6239C40.9551 32.2102 40.9551 33.7966 40.9771 35.3829C40.9845 36.2716 41.4765 36.7416 42.3578 36.7636V36.771ZM24.5849 49.5353C26.1639 49.5206 27.7502 49.5206 29.3366 49.5353H29.3439C30.2399 49.5426 30.7246 50.02 30.754 50.8939C30.7834 51.6577 30.776 52.4289 30.754 53.1927C30.7246 54.0666 30.2399 54.522 29.3366 54.5367C28.8078 54.5415 28.279 54.5399 27.7502 54.5383C27.4859 54.5375 27.2215 54.5367 26.9571 54.5367C26.6927 54.5367 26.4283 54.5383 26.1639 54.5399H26.1634C25.6348 54.5432 25.1062 54.5464 24.5776 54.5367C23.733 54.522 23.2409 54.0519 23.2115 53.222C23.1822 52.4289 23.1822 51.6357 23.2115 50.8425C23.2409 50.0126 23.733 49.5426 24.5849 49.5353ZM60.5714 49.5353C58.9851 49.5206 57.3987 49.5206 55.8197 49.5353C54.9678 49.5426 54.4757 50.0126 54.4464 50.8425C54.417 51.6357 54.417 52.4289 54.4464 53.222C54.4757 54.0519 54.9678 54.522 55.8124 54.5367C56.341 54.5464 56.8696 54.5432 57.3983 54.5399H57.3987C57.6631 54.5383 57.9275 54.5367 58.1919 54.5367C58.4563 54.5367 58.7207 54.5375 58.9851 54.5383C59.5138 54.5399 60.0426 54.5415 60.5714 54.5367C61.4747 54.522 61.9595 54.0666 61.9888 53.1927C62.0109 52.4289 62.0182 51.6577 61.9888 50.8939C61.9595 50.02 61.4747 49.5426 60.5787 49.5353H60.5714ZM27.9706 34.8248C28.5875 34.2446 29.2706 34.2152 29.8654 34.788L29.8581 34.7807C31.0332 35.9264 32.1862 37.0868 33.3392 38.2545C33.8313 38.7539 33.9561 39.3561 33.4861 39.8922C32.8768 40.5926 32.1939 41.2329 31.5141 41.8704C31.481 41.9014 31.448 41.9323 31.4151 41.9633C31.3106 42.0582 31.1632 42.1041 30.9887 42.1584C30.8933 42.1881 30.7897 42.2203 30.6806 42.2644C30.5928 42.2148 30.498 42.1687 30.4016 42.1219C30.1838 42.0159 29.9578 41.9059 29.7846 41.743C28.661 40.6634 27.5667 39.5544 26.4724 38.4454C25.716 37.6743 25.716 37.1088 26.4577 36.3377C26.9498 35.8236 27.4565 35.3168 27.9706 34.8248Z" fill="url(#paint0_linear_95_2521)"/>
<defs>
<linearGradient id="paint0_linear_95_2521" x1="71.9162" y1="18.8062" x2="36.6741" y2="70.0533" gradientUnits="userSpaceOnUse">
<stop stop-color="#FFCC00"/>
<stop offset="1" stop-color="#FF6633"/>
</linearGradient>
</defs>
</svg>
