<svg width="86" height="86" viewBox="0 0 86 86" fill="none" xmlns="http://www.w3.org/2000/svg">
<path fill-rule="evenodd" clip-rule="evenodd" d="M43.5528 12.2876C43.8808 12.2876 44.1472 12.0211 44.1472 11.6931V6.59448C44.1472 6.26645 43.8808 6 43.5528 6C43.2247 6 42.9583 6.26645 42.9583 6.59448V11.6918C42.9583 12.0198 43.2247 12.2862 43.5528 12.2862V12.2876ZM38.5144 12.5447L38.5197 12.5393C38.6001 12.791 38.8357 12.9517 39.0821 12.9517C39.141 12.9517 39.2053 12.941 39.2642 12.9249C39.5748 12.8231 39.7462 12.4857 39.6444 12.1751L38.7862 9.52672C38.6844 9.21609 38.3524 9.04471 38.0364 9.14647C37.7258 9.24823 37.5544 9.58563 37.6561 9.89626L38.5131 12.5447H38.5144ZM34.7788 15.0525C34.5913 15.0525 34.4146 14.9668 34.2968 14.8061L31.3056 10.6849C31.1182 10.4171 31.1771 10.0476 31.4395 9.85476C31.7073 9.66195 32.0769 9.72622 32.2697 9.98865L35.2608 14.1099C35.4483 14.3776 35.3893 14.7472 35.1269 14.94C35.0198 15.015 34.902 15.0525 34.7788 15.0525ZM28.7336 16.6337L30.9789 18.2685H30.9843C31.0914 18.3435 31.2092 18.381 31.3324 18.381C31.5145 18.381 31.6966 18.2953 31.8144 18.1347C32.0072 17.8669 31.9483 17.4973 31.6805 17.3045L29.4352 15.6697C29.1674 15.4769 28.7978 15.5358 28.605 15.8036C28.4122 16.0714 28.4711 16.4409 28.7336 16.6337ZM24.0594 21.0133L24.054 21.008C23.7434 20.9062 23.572 20.5688 23.6738 20.2582C23.7755 19.9476 24.1129 19.7762 24.4236 19.8779L29.2638 21.4538C29.5744 21.5556 29.7458 21.893 29.644 22.2036C29.5637 22.4554 29.3334 22.616 29.0817 22.616C29.0228 22.616 28.9585 22.6107 28.8996 22.5892L24.0594 21.0133ZM25.4693 26.1468C25.1426 26.1468 24.8748 26.4145 24.8748 26.7412C24.8748 27.0679 25.1426 27.3357 25.4693 27.3357H28.2462C28.5729 27.3357 28.8407 27.0679 28.8407 26.7412C28.8407 26.4145 28.5729 26.1468 28.2462 26.1468H25.4693ZM24.2522 33.6407C24.1933 33.6568 24.129 33.6675 24.0701 33.6675C23.8237 33.6675 23.5881 33.5068 23.5077 33.2551C23.406 32.9445 23.5774 32.6071 23.888 32.5053L28.7282 30.9294C29.0388 30.8276 29.3762 30.999 29.478 31.3096L29.4726 31.315C29.5744 31.6256 29.403 31.963 29.0924 32.0648L24.2522 33.6407ZM31.4971 35.4523H31.4931C31.3003 35.1845 30.9307 35.1309 30.6616 35.3184L28.4162 36.9532C28.1538 37.146 28.0949 37.5156 28.2877 37.7833C28.4055 37.944 28.5823 38.0297 28.7697 38.0297C28.8929 38.0297 29.0107 37.9922 29.1178 37.9172L31.3632 36.2824C31.6256 36.0896 31.6845 35.7201 31.4971 35.4523ZM30.995 43.8567C31.1021 43.9317 31.2199 43.9692 31.3431 43.9692C31.5252 43.9692 31.7073 43.8835 31.8251 43.7228L34.8163 39.6016C35.0091 39.3338 34.9502 38.9643 34.6824 38.7715C34.4146 38.5787 34.0451 38.6376 33.8523 38.9054H33.8576L30.8665 43.0266C30.6737 43.2943 30.7326 43.6639 30.995 43.8567ZM43.5514 15.2839C43.5449 15.2487 43.5155 15.2238 43.4778 15.2238C36.9974 15.2667 31.7609 20.53 31.7609 27.0157C31.7609 30.6857 33.4519 33.9768 36.099 36.1445L43.7737 22.0269C43.8768 21.8341 44.0415 21.6882 44.2369 21.6051C44.3548 21.5556 44.482 21.5288 44.6145 21.5288H53.9843C52.0081 17.7879 48.0783 15.2238 43.5514 15.2238V15.2839ZM48.3608 13.0963L48.3555 13.0909C48.6661 13.1927 49.0035 13.0213 49.1053 12.7107L49.9635 10.0623C50.0653 9.75166 49.8939 9.41425 49.5833 9.31249C49.5243 9.29107 49.4601 9.28572 49.4012 9.28572C49.1495 9.28572 48.9192 9.44639 48.8388 9.6981L47.9806 12.3465C47.8788 12.6571 48.0502 12.9945 48.3608 13.0963ZM53.2533 15.1274C53.0604 15.3952 52.6909 15.4541 52.4231 15.2613C52.1553 15.0685 52.0964 14.699 52.2892 14.4312L55.2804 10.31C55.3982 10.1493 55.5803 10.0636 55.7624 10.0636C55.8856 10.0636 56.0034 10.1011 56.1105 10.1761C56.3729 10.3689 56.4319 10.7384 56.239 11.0062L53.2479 15.1274H53.2533ZM55.6071 18.5792H55.6124C55.8052 18.847 56.1748 18.9005 56.4426 18.7131L58.6879 17.0782C58.9504 16.8854 59.0093 16.5159 58.8165 16.2481C58.6986 16.0874 58.5219 16.0017 58.3345 16.0017C58.2113 16.0017 58.0934 16.0392 57.9863 16.1142L55.741 17.749C55.4785 17.9418 55.4196 18.3114 55.6071 18.5792ZM63.5978 20.7777C63.6995 21.0883 63.5281 21.4257 63.2175 21.5275L63.2108 21.5302H59.3561L62.8533 20.3921C62.9122 20.376 62.9765 20.3653 63.0354 20.3653C63.2818 20.3653 63.5174 20.526 63.5978 20.7777ZM45.837 33.9058C45.8865 33.8764 45.9293 33.8322 45.9575 33.78C45.9293 33.8322 45.8865 33.875 45.837 33.9058ZM80.9355 38.4863C80.898 38.3229 80.8364 38.1609 80.7507 38.0029H80.744L72.989 23.738C72.8859 23.5452 72.7212 23.3993 72.527 23.3176C72.4105 23.2681 72.282 23.2413 72.1495 23.2413H46.1998C46.1556 23.2413 46.1114 23.244 46.0686 23.2507C45.9401 23.2681 45.8169 23.3123 45.7084 23.3765C45.6361 23.4194 45.5692 23.4729 45.5103 23.5332C45.4513 23.5934 45.4005 23.6631 45.359 23.738L43.4845 27.1858L37.6039 38.0016C37.5611 38.0806 37.5236 38.1609 37.4941 38.2412C37.4325 38.4033 37.3951 38.5666 37.3803 38.73C37.2879 39.7087 37.9855 40.6486 39.0192 40.7879C39.1049 40.7999 39.1932 40.8053 39.2843 40.8053H79.0704C79.5229 40.8053 79.9246 40.6553 80.2406 40.4103C80.3035 40.3608 80.3637 40.3085 80.42 40.2523C80.5325 40.1398 80.6302 40.014 80.7119 39.8787C80.752 39.8105 80.7895 39.7408 80.8203 39.6685C80.8591 39.5788 80.8899 39.4864 80.9154 39.3914C80.9515 39.2562 80.9756 39.1169 80.981 38.9736C80.9864 38.813 80.9716 38.6483 80.9341 38.4849L80.9355 38.4863ZM55.0809 25.4278H59.7376C60.1152 25.4278 60.3522 25.8281 60.1701 26.1548L57.6382 30.8062C57.5525 30.9642 57.3825 31.0673 57.2057 31.0673H52.5557C52.225 31.0673 52.0027 30.7607 52.0696 30.4661C52.079 30.4233 52.0951 30.3818 52.1165 30.3416L52.5838 29.4807L52.5865 29.4767L54.643 25.6902C54.7287 25.5322 54.8988 25.4291 55.0809 25.4291V25.4278ZM44.7712 30.4648C44.7805 30.4219 44.7966 30.3804 44.818 30.3403L45.2572 29.5316L46.1717 27.8485L47.1799 25.9914C47.2736 25.8187 47.4129 25.6781 47.5776 25.5804C47.6592 25.5322 47.7489 25.4934 47.8413 25.4679C47.9337 25.4425 48.0315 25.4291 48.1305 25.4291H52.4405C52.4874 25.4291 52.5329 25.4358 52.5744 25.4465C52.6173 25.4586 52.6561 25.4746 52.6922 25.496C52.7645 25.5389 52.8235 25.5991 52.8663 25.6688C52.8877 25.7036 52.9038 25.7424 52.9158 25.7812C52.9506 25.8991 52.9413 26.0316 52.873 26.1548L51.269 29.1031L50.5593 30.4059L50.3411 30.8076C50.3197 30.8464 50.2929 30.8825 50.2621 30.9147C50.1697 31.0097 50.0412 31.0686 49.9086 31.0686H45.2585C44.9278 31.0686 44.7056 30.762 44.7725 30.4675L44.7712 30.4648ZM46.2734 37.8864C46.2306 37.9654 46.1663 38.0297 46.0914 38.0752C46.0539 38.098 46.0137 38.1154 45.9708 38.1274C45.9293 38.1395 45.8852 38.1462 45.841 38.1462H41.5551C41.4198 38.1462 41.2967 38.11 41.1922 38.0484C41.1146 38.0029 41.0463 37.9427 40.9927 37.8717C40.974 37.8489 40.9579 37.8235 40.9432 37.7981C40.8977 37.7217 40.8669 37.6374 40.8521 37.549C40.8428 37.4901 40.8401 37.4299 40.8455 37.3683C40.8535 37.2772 40.8816 37.1848 40.9285 37.0965L43.2783 32.7651C43.3211 32.6861 43.3854 32.6218 43.4604 32.5763C43.4979 32.5535 43.5394 32.5361 43.5822 32.5241C43.6251 32.512 43.6706 32.5053 43.7161 32.5053H48.3729C48.7505 32.5053 48.9874 32.9056 48.8053 33.2323L47.3928 35.8272L46.2721 37.8851L46.2734 37.8864ZM53.4688 38.0752C53.4313 38.098 53.3912 38.1154 53.3483 38.1274C53.3068 38.1395 53.2626 38.1462 53.2184 38.1462H48.5684C48.2858 38.1462 48.081 37.9212 48.0716 37.6709C48.0689 37.5879 48.0863 37.5008 48.1305 37.4192L48.4653 36.8019L50.558 32.9471L50.6557 32.7664C50.7414 32.6084 50.9115 32.5053 51.0936 32.5053H55.7503C56.0329 32.5053 56.2377 32.7302 56.2457 32.9806C56.2471 33.0382 56.2337 33.0984 56.2136 33.156C56.211 33.1632 56.2086 33.1703 56.2061 33.1775L56.206 33.1778C56.1999 33.196 56.1937 33.2142 56.1841 33.2323L53.6522 37.8838C53.6094 37.9628 53.5451 38.027 53.4702 38.0725L53.4688 38.0752ZM63.488 33.2337L63.0488 34.041L61.4314 37.0121L61.1208 37.5825C61.0739 37.6682 61.015 37.7472 60.948 37.8168C60.8476 37.9199 60.7271 38.0029 60.5959 38.0592C60.4633 38.1154 60.3201 38.1462 60.1715 38.1462H55.8735C55.7798 38.1462 55.6941 38.1207 55.6205 38.0792C55.4022 37.952 55.3018 37.6655 55.4344 37.4205L56.8603 34.7949L57.9609 32.7691C57.9823 32.7302 58.0091 32.6941 58.0399 32.662C58.0419 32.66 58.0442 32.6583 58.0465 32.6566L58.0466 32.6566L58.0466 32.6566C58.0489 32.6549 58.0513 32.6533 58.0533 32.6512C58.1135 32.5937 58.1858 32.5495 58.2662 32.5267C58.309 32.5147 58.3545 32.508 58.4001 32.508H63.0568C63.4344 32.508 63.6714 32.9083 63.4893 33.235L63.488 33.2337ZM67.4606 26.2017C67.4525 26.2927 67.4244 26.3851 67.3775 26.4735L65.0157 30.8049C64.93 30.9629 64.7599 31.066 64.5832 31.066H59.9331C59.7912 31.066 59.6694 31.0097 59.5823 30.9227C59.5782 30.9186 59.5751 30.914 59.5721 30.9095L59.5721 30.9094L59.5696 30.9058L59.5663 30.9013C59.4899 30.8156 59.4417 30.7071 59.4364 30.5906C59.4337 30.5076 59.4511 30.4206 59.4953 30.3389L62.0219 25.6875C62.0861 25.5697 62.1973 25.4813 62.3271 25.4452C62.37 25.4331 62.4155 25.4264 62.461 25.4264H66.7523C66.9893 25.4264 67.1874 25.5362 67.3146 25.6996C67.3722 25.7745 67.415 25.8602 67.4391 25.9513C67.4525 26.0008 67.4619 26.0517 67.4632 26.1026V26.1106C67.4632 26.1414 67.4632 26.1709 67.4606 26.2017ZM57.8591 61.8853L57.8694 61.895L57.8792 61.904L57.8779 61.9027C58.0118 62.0299 58.1242 62.1825 58.2046 62.3579C58.6518 63.3367 57.9569 64.4359 56.9018 64.464C57.2138 65.1094 57.3838 65.811 57.3838 66.5273V78.2924C57.3838 79.1507 56.5617 79.8456 55.5495 79.8456H53.0564C52.0442 79.8456 51.2221 79.1507 51.2221 78.2924V76.2425H31.9001V78.2924C31.9001 79.1507 31.078 79.8456 30.0658 79.8456H27.5727C26.5605 79.8456 25.7384 79.1507 25.7384 78.2924V73.1229H25.4197C23.3082 73.1229 21.5944 71.4064 21.5944 69.2935V59.4431C21.5944 58.3331 20.8674 57.3905 19.8645 57.0665V77.8894C19.8645 78.9699 19.0264 79.8456 17.9914 79.8456H7.87315C6.8395 79.8456 6 78.9686 6 77.8894V50.5165C6 49.436 6.83817 48.5603 7.87315 48.5603H17.9901C19.0237 48.5603 19.8632 49.4373 19.8632 50.5165V55.6901C21.6092 56.0449 22.9253 57.5914 22.9253 59.4431V69.2935C22.9253 70.6686 24.0447 71.7893 25.4184 71.7893H25.7371V66.5273C25.7371 65.811 25.9004 65.1094 26.2191 64.4707C25.1787 64.4212 24.4986 63.3286 24.9444 62.3713L24.9591 62.3646C25.2001 61.8331 25.7237 61.4997 26.2981 61.4997H27.6865L29.5142 57.7976C30.4715 55.8615 32.433 54.6417 34.586 54.6417H41.8671H46.177H48.5536C50.6745 54.6417 52.6132 55.8334 53.5786 57.7119C53.586 57.7266 53.5937 57.7407 53.6014 57.7547L53.6139 57.7778C53.6174 57.7843 53.6208 57.7909 53.6241 57.7976L55.4518 61.4997H56.8683C56.9165 61.4997 56.9647 61.5037 57.0116 61.5077L57.0464 61.5117C57.0933 61.5171 57.1401 61.5238 57.1857 61.5345H57.187C57.2325 61.5452 57.2767 61.5572 57.3209 61.572C57.3262 61.574 57.3313 61.5757 57.3363 61.5773L57.3364 61.5774L57.3365 61.5774C57.3414 61.579 57.3464 61.5807 57.3517 61.5827C57.4414 61.6148 57.5271 61.6536 57.6074 61.7005C57.6155 61.7045 57.6248 61.7099 57.6329 61.7152C57.7132 61.7648 57.7895 61.821 57.8591 61.8853ZM16.1022 72.4521C16.872 72.4521 17.4946 71.8027 17.4946 70.998V58.7683C17.4946 57.9663 16.8707 57.3142 16.1022 57.3142H15.3725V56.8148C15.3725 56.3421 15.0043 55.9565 14.5517 55.9565H11.3142C10.8616 55.9565 10.4934 56.3408 10.4934 56.8148V57.3142H9.76371C8.99383 57.3142 8.37123 57.9636 8.37123 58.7683V70.998C8.37123 71.8 8.99517 72.4521 9.76371 72.4521H16.1022ZM28.5796 70.769C28.5796 72.0464 29.6132 73.0814 30.8879 73.0814C32.1625 73.0814 33.1962 72.0464 33.1962 70.769C33.1962 69.4917 32.1625 68.4567 30.8879 68.4567C29.6132 68.4567 28.5796 69.4917 28.5796 70.769ZM37.1273 72.5217H45.8678C46.244 72.5217 46.5479 72.2164 46.5479 71.8415C46.5479 71.4666 46.2427 71.1613 45.8678 71.1613H37.1273C36.751 71.1613 36.4471 71.4666 36.4471 71.8415C36.4471 72.2164 36.7524 72.5217 37.1273 72.5217ZM37.1273 70.3874H45.8678C46.244 70.3874 46.5479 70.0822 46.5479 69.7073C46.5479 69.3324 46.2427 69.0271 45.8678 69.0271H37.1273C36.751 69.0271 36.4471 69.3324 36.4471 69.7073C36.4471 70.0822 36.7524 70.3874 37.1273 70.3874ZM49.7921 70.7704C49.7921 72.0477 50.8258 73.0827 52.1004 73.0827C53.3751 73.0827 54.4087 72.0477 54.4087 70.7704C54.4087 69.493 53.3751 68.4581 52.1004 68.4581C50.8258 68.4581 49.7921 69.493 49.7921 70.7704ZM40.662 65.1536L53.1488 65.104L53.1475 65.1027C54.224 65.1027 54.9242 63.9686 54.4502 62.9966H54.4436L53.9562 62.0071L52.5316 59.1177C52.4847 59.0213 52.4338 58.9289 52.3803 58.8366L52.3725 58.8235L52.3622 58.8058L52.3514 58.7872L52.3441 58.775C52.2919 58.6879 52.2383 58.6036 52.1821 58.5206C52.1687 58.4991 52.154 58.4791 52.1393 58.459C52.0911 58.3907 52.0415 58.3237 51.9906 58.2581L51.9717 58.2324C51.9631 58.2209 51.9543 58.2094 51.9451 58.1979C51.8875 58.1256 51.8273 58.0546 51.7657 57.9863C51.7416 57.9596 51.7175 57.9328 51.6921 57.906C51.6305 57.8404 51.5689 57.7761 51.5046 57.7145C50.5741 56.8175 49.3195 56.2899 47.9859 56.2899H35.1872C33.2538 56.2899 31.4904 57.3892 30.6402 59.1191L28.7282 62.9979C28.2529 63.962 28.9545 65.0974 30.031 65.104L40.662 65.1536ZM14.6628 64.1842L13.3587 63.9325C13.2583 63.9124 13.1954 63.8133 13.2128 63.7116L13.8019 60.3696C13.8407 60.1541 13.5542 60.055 13.4591 60.2505L11.037 65.2487C10.9835 65.3625 11.0491 65.4977 11.1682 65.5205L12.4898 65.7668C12.5969 65.7869 12.6625 65.8994 12.633 66.0051L11.6208 69.7354C11.5619 69.9536 11.8551 70.0755 11.9595 69.8773L14.7954 64.4573L14.79 64.46C14.8503 64.3462 14.7847 64.2056 14.6628 64.1829V64.1842ZM14.7552 57.9796H16.0861C16.5226 57.9796 16.8774 58.3505 16.8774 58.8044V71.0341C16.8774 71.488 16.5213 71.8589 16.0861 71.8589H9.74764C9.31116 71.8589 8.95634 71.488 8.95634 71.0341V58.8044C8.95634 58.3505 9.31249 57.9796 9.74764 57.9796H11.0785V56.8536C11.0785 56.7264 11.1763 56.6247 11.2981 56.6247H14.5356C14.6575 56.6247 14.7552 56.7264 14.7552 56.8536V57.9796ZM15.746 71.2457C15.9964 71.2457 16.1986 71.0341 16.1986 70.773V59.3547C16.1986 59.0936 15.9964 58.8834 15.746 58.8834H10.0891C9.83869 58.8834 9.63651 59.0936 9.63651 59.3547V70.773C9.63651 71.0355 9.83869 71.2457 10.0891 71.2457H15.746ZM76.1595 43.2579L76.1595 43.2578C76.1499 43.2505 76.1403 43.2432 76.1314 43.2354H42.2125C42.2047 43.2419 42.1967 43.248 42.1888 43.2541C42.1737 43.2657 42.1587 43.2771 42.1455 43.2903C42.1027 43.3332 42.0639 43.38 42.0291 43.4309C41.926 43.5822 41.8657 43.7656 41.8657 43.9638V52.9025H46.1757V48.2524C46.1757 47.7248 46.6015 47.3017 47.1317 47.3017H57.2245C57.5499 47.3017 57.835 47.4624 58.0078 47.7088C58.1162 47.8627 58.1805 48.0502 58.1805 48.2537V56.7639C58.1805 56.9942 58.0961 57.2031 57.9596 57.3664C57.9007 57.4374 57.8364 57.5017 57.7601 57.5525C57.6074 57.6543 57.424 57.7145 57.2245 57.7145H55.5227L56.5336 59.7618H56.8683C58.1202 59.7618 59.2663 60.4968 59.7912 61.6389C59.8461 61.7608 59.8943 61.8839 59.9331 62.0098H61.5532C61.6858 62.0098 61.8116 61.983 61.9254 61.9348C62.0085 61.9 62.0821 61.8505 62.1517 61.7956C62.1973 61.7581 62.2401 61.7179 62.2776 61.6737C62.4195 61.5077 62.5092 61.2948 62.5092 61.0592V48.2551C62.5092 47.7275 62.935 47.3044 63.4652 47.3044H71.2202C71.7505 47.3044 72.1762 47.7289 72.1762 48.2551V61.0592C72.1762 61.268 72.2445 61.4595 72.3583 61.6162C72.4079 61.6844 72.4668 61.7434 72.5324 61.7969C72.602 61.8518 72.6757 61.9013 72.7587 61.9362C72.8725 61.9844 72.9997 62.0111 73.1309 62.0111H75.5235C75.7632 62.0111 75.9788 61.9214 76.1461 61.7768C76.2024 61.7286 76.2533 61.6764 76.2961 61.6162C76.3376 61.5586 76.3751 61.497 76.4046 61.43C76.4528 61.3162 76.4795 61.1904 76.4795 61.0592V43.9665C76.4795 43.8353 76.4528 43.7094 76.4046 43.5956C76.3564 43.4818 76.2867 43.3787 76.1997 43.293L76.1984 43.2903C76.1866 43.2786 76.1731 43.2682 76.1595 43.2579ZM41.8671 58.0292H47.9859C49.2405 58.0292 50.4134 58.7589 50.9731 59.8903L52.0174 62.0071H42.823C42.6905 62.0071 42.5646 61.9803 42.4508 61.9321C42.3678 61.8973 42.2928 61.8478 42.2245 61.7929C42.0076 61.6188 41.8671 61.3564 41.8671 61.0565V58.0292Z" fill="url(#paint0_linear_420_463)"/>
<defs>
<linearGradient id="paint0_linear_420_463" x1="73.501" y1="13.2555" x2="16.534" y2="71.2066" gradientUnits="userSpaceOnUse">
<stop stop-color="#FFCC00"/>
<stop offset="1" stop-color="#FF6633"/>
</linearGradient>
</defs>
</svg>
