<svg width="86" height="86" viewBox="0 0 86 86" fill="none" xmlns="http://www.w3.org/2000/svg">
<path fill-rule="evenodd" clip-rule="evenodd" d="M58.1777 67.4407V11.6892C58.1777 9.10321 56.0744 7 53.4884 7H27.9138C25.3278 7 23.2246 9.10321 23.2246 11.6892V27.1591L23.2337 27.167C23.2387 27.1713 23.2449 27.1766 23.2497 27.1804L25.1772 28.9572L25.743 29.4787V11.6892C25.743 10.4899 26.7184 9.51651 27.9158 9.51651H32.0353V9.66136C32.0353 10.7217 32.8947 11.583 33.957 11.583H47.2908C48.3511 11.583 49.2125 10.7236 49.2125 9.66329V9.51651H53.4903C54.6897 9.51651 55.6631 10.4918 55.6631 11.6892V67.4407C55.6631 68.6401 54.6878 69.6134 53.4903 69.6134H27.9138C26.7145 69.6134 25.7411 68.6381 25.7411 67.4407V57.0019C25.6426 57.4886 25.4533 57.9599 25.1752 58.3828C24.9242 58.7652 24.6036 59.1109 24.2134 59.3968H24.2115C23.9044 59.6246 23.5722 59.8004 23.2246 59.9259V67.4407C23.2246 70.0268 25.3278 72.13 27.9138 72.13H53.4884C56.0744 72.13 58.1777 70.0268 58.1777 67.4407ZM20.0707 15.1347L21.9345 16.3321V22.6147L17.2143 19.5845C15.9879 18.7965 15.6306 17.1587 16.4186 15.9304C16.801 15.3375 17.3901 14.9281 18.0796 14.7774C18.769 14.6268 19.4759 14.7523 20.0707 15.1347ZM66.6589 28.22L66.6589 28.2201L66.6588 28.2201C66.3641 29.2428 66.0702 30.2625 65.9126 31.2767L65.9165 31.2728C65.2929 35.2895 66.4366 39.2279 67.5863 43.187C68.5589 46.536 69.5357 49.8998 69.4508 53.3382C69.3523 57.2858 67.8574 61.0422 66.3858 64.6982C65.9686 65.7324 65.5519 66.7672 65.1352 67.8019C64.7186 68.8366 64.3019 69.8713 63.8847 70.9055C62.6255 74.0284 61.1731 77.3831 58.2762 79.0286C56.9397 79.7896 55.4081 80.1082 53.894 80.34C50.8522 80.8054 47.764 80.9638 44.6912 80.8093C43.3393 80.7417 41.9739 80.6104 40.7011 80.143C38.2819 79.2546 36.5249 77.3125 34.753 75.3538L34.7529 75.3537L34.7529 75.3537C34.1597 74.698 33.5649 74.0405 32.943 73.4201H53.4884C56.7852 73.4201 59.4678 70.7375 59.4678 67.4407V25.6218C60.3832 24.2969 61.7545 22.7557 63.6472 22.0044C64.4139 21.6993 65.8605 21.3072 66.5712 21.7282C67.1351 22.0624 67.4963 22.607 67.5272 23.3428C67.5959 24.9691 67.1263 26.5982 66.6589 28.22ZM24.7928 40.4737L25.1752 40.9333L25.7411 41.6131V38.5423C25.5499 38.5308 25.3606 38.5037 25.1752 38.4632C24.534 38.3222 23.9392 38.0151 23.4428 37.5574L23.2246 37.3565V39.3342C23.8291 39.5737 24.366 39.9619 24.7948 40.4756L24.7928 40.4737ZM23.7325 49.6977C23.8562 49.7093 23.9778 49.7151 24.0995 49.7151C24.4664 49.7151 24.8276 49.6629 25.1752 49.5644C25.3684 49.5103 25.5576 49.4408 25.7411 49.3558V55.4492C25.6446 54.9702 25.4572 54.5028 25.1752 54.0721C25.1385 54.0142 25.098 53.9582 25.0574 53.9022L23.3984 51.6425C23.3424 51.5672 23.2826 51.4938 23.2227 51.4223V49.6166C23.3907 49.6533 23.5607 49.6822 23.7325 49.6977ZM18.6338 28.0128C19.1437 27.4623 19.8409 27.1417 20.5922 27.1108V27.1128C21.0634 27.0935 21.5212 27.19 21.9345 27.389C22.1836 27.5087 22.4154 27.6651 22.624 27.8583L23.2246 28.4106L25.1752 30.2106L25.7411 30.7321L27.0293 31.9218L27.9003 32.7252C29.0475 33.7836 29.119 35.5758 28.0626 36.7211C27.7709 37.0378 27.4175 37.2773 27.0293 37.4318C26.7357 37.5477 26.4229 37.6153 26.0984 37.6288C25.9787 37.6346 25.8589 37.6308 25.7411 37.6211C25.548 37.6056 25.3587 37.5689 25.1752 37.5149C24.7677 37.3932 24.3892 37.1808 24.0667 36.8833L23.2227 36.105L21.9345 34.9153L18.7903 32.0145C17.6431 30.9561 17.5716 29.1638 18.6281 28.0186L18.6338 28.0128ZM25.7817 47.8146L25.7875 47.8107C26.9038 46.8779 27.0544 45.2112 26.1254 44.093L25.7392 43.6294L25.1733 42.9496L23.8001 41.2983C23.6321 41.0955 23.437 40.9217 23.2227 40.7788C22.8634 40.5413 22.4501 40.3964 22.0098 40.3558L21.9325 40.35C21.2566 40.3076 20.5999 40.52 20.0765 40.9546L20.0708 40.9584C18.9545 41.8912 18.8038 43.558 19.7328 44.6762L21.9306 47.3202L22.0562 47.4708C22.369 47.8455 22.7688 48.1217 23.2188 48.2781C23.4197 48.3477 23.6302 48.394 23.8465 48.4133C24.3061 48.4558 24.76 48.3786 25.1714 48.1931C25.3703 48.1024 25.5615 47.9865 25.7373 47.8474C25.744 47.8416 25.7513 47.8359 25.7585 47.8301L25.7587 47.8299C25.7659 47.8241 25.7731 47.8184 25.7797 47.8127L25.7817 47.8146ZM23.4532 58.3605L23.4544 58.3596H23.4525C24.6267 57.4982 24.8817 55.8392 24.0203 54.665L23.2265 53.5835L22.3632 52.4054C22.2377 52.2354 22.0948 52.0828 21.9383 51.9496C21.5695 51.6367 21.1214 51.432 20.6328 51.3566C19.9356 51.2504 19.2364 51.4204 18.6686 51.8375C17.4944 52.7008 17.2394 54.3579 18.1008 55.5322L19.7598 57.7918C20.177 58.3615 20.7911 58.7343 21.4903 58.8405C21.6409 58.8637 21.7896 58.8733 21.9383 58.8714C22.3922 58.8637 22.8345 58.7401 23.2265 58.5083C23.3029 58.4625 23.3793 58.4148 23.4519 58.3615L23.833 58.8791L23.4532 58.3605ZM50.3828 38.6486C50.8502 39.0638 51.4702 39.0619 51.8758 38.6428C52.2891 38.216 52.2717 37.567 51.8255 37.1248C50.5064 35.8153 49.0193 34.7319 47.3101 33.996C41.744 31.6031 36.4484 32.1304 31.4636 35.5778C30.8507 36.002 30.3013 36.5233 29.7563 37.0403L29.6347 37.1557C29.5017 37.2806 29.42 37.4604 29.3386 37.6397L29.3386 37.6398C29.3017 37.721 29.2648 37.8021 29.2233 37.878C29.3179 38.3569 29.513 38.6853 29.9147 38.861C30.3434 39.0484 30.722 38.9537 31.0851 38.6544C31.2785 38.4944 31.47 38.3313 31.6616 38.1682L31.6617 38.1681L31.6618 38.168L31.6619 38.1679L31.6619 38.1679L31.6619 38.1679L31.662 38.1679C32.2314 37.6829 32.8011 37.1976 33.4239 36.7945C38.6307 33.4224 45.5661 34.0868 50.0661 38.3492C50.101 38.3821 50.1356 38.4157 50.1703 38.4493C50.2394 38.5163 50.3089 38.5836 50.3809 38.6466L50.3828 38.6486ZM48.8706 40.1067C49.4288 40.6649 49.2607 41.5552 48.5539 41.8372H48.5577C48.0595 42.0361 47.6539 41.8584 47.2869 41.4992C46.0528 40.2941 44.5966 39.4675 42.9106 39.1082C39.5771 38.3994 36.6453 39.1932 34.1481 41.534C33.6286 42.0187 32.9971 42.0458 32.5741 41.6074C32.1357 41.1554 32.1879 40.5065 32.7016 40.014C34.94 37.8664 37.6149 36.7887 40.6876 36.7482C42.0357 36.7559 43.3258 36.9567 44.5734 37.399C46.2092 37.9784 47.6442 38.8803 48.8706 40.1067ZM45.9427 44.57C46.3773 44.12 46.3193 43.4672 45.8037 42.9767C44.3726 41.6247 42.6653 40.972 40.7996 40.9468C38.7582 40.9855 37.0645 41.646 35.6527 42.9979C35.1505 43.4788 35.1042 44.1142 35.531 44.5642C35.9636 45.02 36.5797 45.0026 37.0992 44.5179C39.2082 42.5556 42.2674 42.5556 44.3726 44.5159C44.8882 44.9968 45.5101 45.0161 45.9447 44.5681L45.9427 44.57ZM38.2509 46.5556C38.3048 46.4183 38.3738 46.2424 38.4917 46.1093C39.6138 44.8404 41.8367 44.8423 42.9801 46.0938C43.349 46.4975 43.3606 47.1097 43.0033 47.5056C42.6421 47.9093 42.0415 47.9749 41.5973 47.6601C40.8093 47.1039 40.6857 47.1058 39.8533 47.6736C39.5172 47.9035 39.158 47.9324 38.793 47.7509C38.4164 47.5616 38.2348 47.241 38.1923 46.6945C38.2109 46.6574 38.2297 46.6095 38.2509 46.5556Z" fill="url(#paint0_linear_166_536)"/>
<defs>
<linearGradient id="paint0_linear_166_536" x1="64.1225" y1="14.2576" x2="9.95547" y2="53.5301" gradientUnits="userSpaceOnUse">
<stop stop-color="#FFCC00"/>
<stop offset="1" stop-color="#FF6633"/>
</linearGradient>
</defs>
</svg>
