<svg width="86" height="86" viewBox="0 0 86 86" fill="none" xmlns="http://www.w3.org/2000/svg">
<path d="M79.4204 60.7442H48.7425C48.5049 60.7442 48.3149 60.9353 48.3149 61.1742C48.3149 62.094 47.5786 62.8465 46.664 62.8465H39.336C38.4215 62.8465 37.6851 62.094 37.6851 61.1742C37.6851 60.9353 37.4951 60.7442 37.2576 60.7442H6.57964C5.70075 60.7442 5 61.4609 5 62.3448C5 64.3635 6.62712 66 8.62243 66H77.3776C79.3848 66 81 64.3635 81 62.3448C81 61.4609 80.2874 60.7442 79.4204 60.7442Z" fill="white"/>
<path d="M16.2355 58.9644H69.7645C71.7717 58.9644 73.3989 57.3279 73.3989 55.2973V23.6671C73.3989 21.6484 71.7717 20 69.7645 20H16.2355C14.2283 20 12.6012 21.6365 12.6012 23.6671V55.2973C12.6012 57.316 14.2283 58.9644 16.2355 58.9644ZM43.671 30.8102L42.1627 29.2932C41.6995 28.8274 41.6995 28.0748 42.1627 27.6089C42.6259 27.1431 43.3741 27.1431 43.8373 27.6089L47.3648 31.1685C47.828 31.6343 47.828 32.3869 47.3648 32.8528L43.8373 36.4123C43.6117 36.6512 43.3029 36.7588 42.9941 36.7588C42.6853 36.7588 42.3884 36.6393 42.1508 36.4123C41.6876 35.9465 41.6876 35.194 42.1508 34.7281L43.6473 33.2231C39.7755 33.3067 36.64 36.5079 36.64 40.4258C36.64 44.3438 39.8467 47.6406 43.7899 47.6406C47.733 47.6406 50.9397 44.4035 50.9397 40.4258C50.9397 39.7689 51.4741 39.2313 52.1274 39.2313C52.7806 39.2313 53.315 39.7689 53.315 40.4258C53.315 45.7174 49.0394 50.0296 43.7899 50.0296C38.5403 50.0296 34.2646 45.7174 34.2646 40.4258C34.2646 35.1342 38.469 30.9057 43.6592 30.8341L43.671 30.8102Z" fill="white"/>
</svg>
