<svg width="86" height="87" viewBox="0 0 86 87" fill="none" xmlns="http://www.w3.org/2000/svg">
<path d="M48.0166 20.3521C46.2366 19.8421 44.4866 19.6221 42.7866 19.6221C41.0866 19.6221 39.3366 19.8421 37.5566 20.3521C30.7566 22.2821 25.6165 28.0821 24.4665 35.0621C23.5465 40.6821 25.1566 45.9121 28.3166 49.8321C29.9666 51.8821 31.5466 53.9921 32.7066 56.3721C33.3266 57.6321 33.2666 59.0521 33.3966 60.4421C33.3966 60.5421 33.4965 60.6221 33.5965 60.6221H41.8066C42.2866 60.6221 42.6666 60.2321 42.6666 59.7521L42.6466 49.5921C42.6466 49.2521 42.3566 48.9921 42.0166 49.0221L37.7865 49.4521C37.4065 49.4921 37.0866 49.1521 37.1666 48.7721L41.4466 32.0921C41.5766 31.4421 42.5266 31.4821 42.5866 32.1421L42.5066 42.4021C42.5366 42.7221 42.8166 42.9521 43.1366 42.9121L47.3166 42.5121C47.7066 42.4721 48.0166 42.8321 47.9266 43.2121L44.2366 59.5621C44.1166 60.1021 44.5266 60.6121 45.0766 60.6121H51.9466C52.0566 60.6121 52.1466 60.5221 52.1466 60.4121C52.1466 58.4521 52.6666 56.5221 53.6666 54.8221C54.7066 53.0521 55.9466 51.4121 57.2266 49.8221C60.3966 45.8921 62.0066 40.6621 61.0766 35.0521C59.9266 28.0721 54.7866 22.2721 47.9866 20.3421L48.0166 20.3521Z" fill="url(#paint0_linear_32_2041)"/>
<path d="M43.4166 14.4921C43.9166 14.4921 44.3266 14.0822 44.3266 13.5822V9.86215C44.3266 9.36215 43.9166 8.95215 43.4166 8.95215C42.9166 8.95215 42.5066 9.36215 42.5066 9.86215V13.5822C42.5066 14.0822 42.9166 14.4921 43.4166 14.4921Z" fill="url(#paint1_linear_32_2041)"/>
<path d="M30.2266 17.0222C30.3966 17.3122 30.7066 17.4822 31.0166 17.4822C31.1666 17.4822 31.3266 17.4422 31.4766 17.3622C31.9166 17.1122 32.0666 16.5522 31.8066 16.1122L29.9466 12.8922C29.6966 12.4622 29.1366 12.3022 28.6966 12.5622C28.2566 12.8122 28.1066 13.3722 28.3666 13.8122L30.2266 17.0322V17.0222Z" fill="url(#paint2_linear_32_2041)"/>
<path d="M22.2265 24.5522L19.0066 22.6922C18.5666 22.4322 18.0066 22.5922 17.7566 23.0222C17.5066 23.4622 17.6566 24.0122 18.0866 24.2722L21.3066 26.1322C21.4466 26.2122 21.6066 26.2522 21.7666 26.2522C22.0866 26.2522 22.3866 26.0922 22.5566 25.7922C22.8066 25.3522 22.6565 24.8022 22.2265 24.5422V24.5522Z" fill="url(#paint3_linear_32_2041)"/>
<path d="M18.1566 36.6622H14.4366C13.9366 36.6622 13.5266 37.0722 13.5266 37.5722C13.5266 38.0722 13.9366 38.4822 14.4366 38.4822H18.1566C18.6566 38.4822 19.0666 38.0722 19.0666 37.5722C19.0666 37.0722 18.6566 36.6622 18.1566 36.6622Z" fill="url(#paint4_linear_32_2041)"/>
<path d="M71.1266 37.9221H67.4066C66.9066 37.9221 66.4966 38.3322 66.4966 38.8322C66.4966 39.3322 66.9066 39.7421 67.4066 39.7421H71.1266C71.6266 39.7421 72.0366 39.3322 72.0366 38.8322C72.0366 38.3322 71.6266 37.9221 71.1266 37.9221Z" fill="url(#paint5_linear_32_2041)"/>
<path d="M68.4366 24.1221C68.1866 23.6821 67.6266 23.5321 67.1866 23.7921L63.9665 25.6521C63.5265 25.9021 63.3766 26.4621 63.6366 26.9021C63.8066 27.1921 64.1166 27.3622 64.4266 27.3622C64.5766 27.3622 64.7366 27.3221 64.8866 27.2421L68.1065 25.3821C68.5465 25.1321 68.6966 24.5721 68.4366 24.1321V24.1221Z" fill="url(#paint6_linear_32_2041)"/>
<path d="M55.1866 17.9822C55.3266 18.0622 55.4866 18.1022 55.6466 18.1022C55.9666 18.1022 56.2666 17.9422 56.4366 17.6422L58.2965 14.4222C58.5465 13.9822 58.3965 13.4322 57.9665 13.1722C57.5265 12.9222 56.9665 13.0722 56.7165 13.5022L54.8565 16.7222C54.6065 17.1622 54.7566 17.7122 55.1866 17.9722V17.9822Z" fill="url(#paint7_linear_32_2041)"/>
<path d="M51.5166 63.0222H34.1866C33.5766 63.0222 32.9866 63.3821 32.8066 63.9621C32.4966 64.9221 33.2066 65.8121 34.1266 65.8121H51.4566C52.0666 65.8121 52.6566 65.4521 52.8366 64.8721C53.1466 63.9121 52.4366 63.0222 51.5166 63.0222Z" fill="url(#paint8_linear_32_2041)"/>
<path d="M51.5166 67.4021H34.1866C33.5766 67.4021 32.9866 67.7621 32.8066 68.3421C32.4966 69.3021 33.2066 70.1922 34.1266 70.1922H51.5166C52.2866 70.1922 52.9066 69.5722 52.9066 68.8022C52.9066 68.0322 52.2866 67.4122 51.5166 67.4122V67.4021Z" fill="url(#paint9_linear_32_2041)"/>
<path d="M49.8866 71.7822H35.8166C35.2066 71.7822 34.6166 72.1422 34.4366 72.7222C34.1266 73.6822 34.8366 74.5721 35.7566 74.5721H49.8266C50.4366 74.5721 51.0266 74.2121 51.2066 73.6321C51.5166 72.6721 50.8066 71.7822 49.8866 71.7822Z" fill="url(#paint10_linear_32_2041)"/>
<path d="M47.5666 76.1622H38.1366C37.5266 76.1622 36.9366 76.5221 36.7566 77.1021C36.4466 78.0621 37.1566 78.9521 38.0766 78.9521H47.5066C48.1166 78.9521 48.7066 78.5921 48.8866 78.0121C49.1966 77.0521 48.4766 76.1622 47.5666 76.1622Z" fill="url(#paint11_linear_32_2041)"/>
<defs>
<linearGradient id="paint0_linear_32_2041" x1="72.0366" y1="8.95215" x2="3.14686" y2="66.534" gradientUnits="userSpaceOnUse">
<stop stop-color="#FFCC00"/>
<stop offset="1" stop-color="#FF6633"/>
</linearGradient>
<linearGradient id="paint1_linear_32_2041" x1="72.0366" y1="8.95215" x2="3.14686" y2="66.534" gradientUnits="userSpaceOnUse">
<stop stop-color="#FFCC00"/>
<stop offset="1" stop-color="#FF6633"/>
</linearGradient>
<linearGradient id="paint2_linear_32_2041" x1="72.0366" y1="8.95215" x2="3.14686" y2="66.534" gradientUnits="userSpaceOnUse">
<stop stop-color="#FFCC00"/>
<stop offset="1" stop-color="#FF6633"/>
</linearGradient>
<linearGradient id="paint3_linear_32_2041" x1="72.0366" y1="8.95215" x2="3.14686" y2="66.534" gradientUnits="userSpaceOnUse">
<stop stop-color="#FFCC00"/>
<stop offset="1" stop-color="#FF6633"/>
</linearGradient>
<linearGradient id="paint4_linear_32_2041" x1="72.0366" y1="8.95215" x2="3.14686" y2="66.534" gradientUnits="userSpaceOnUse">
<stop stop-color="#FFCC00"/>
<stop offset="1" stop-color="#FF6633"/>
</linearGradient>
<linearGradient id="paint5_linear_32_2041" x1="72.0366" y1="8.95215" x2="3.14686" y2="66.534" gradientUnits="userSpaceOnUse">
<stop stop-color="#FFCC00"/>
<stop offset="1" stop-color="#FF6633"/>
</linearGradient>
<linearGradient id="paint6_linear_32_2041" x1="72.0366" y1="8.95215" x2="3.14686" y2="66.534" gradientUnits="userSpaceOnUse">
<stop stop-color="#FFCC00"/>
<stop offset="1" stop-color="#FF6633"/>
</linearGradient>
<linearGradient id="paint7_linear_32_2041" x1="72.0366" y1="8.95215" x2="3.14686" y2="66.534" gradientUnits="userSpaceOnUse">
<stop stop-color="#FFCC00"/>
<stop offset="1" stop-color="#FF6633"/>
</linearGradient>
<linearGradient id="paint8_linear_32_2041" x1="72.0366" y1="8.95215" x2="3.14686" y2="66.534" gradientUnits="userSpaceOnUse">
<stop stop-color="#FFCC00"/>
<stop offset="1" stop-color="#FF6633"/>
</linearGradient>
<linearGradient id="paint9_linear_32_2041" x1="72.0366" y1="8.95215" x2="3.14686" y2="66.534" gradientUnits="userSpaceOnUse">
<stop stop-color="#FFCC00"/>
<stop offset="1" stop-color="#FF6633"/>
</linearGradient>
<linearGradient id="paint10_linear_32_2041" x1="72.0366" y1="8.95215" x2="3.14686" y2="66.534" gradientUnits="userSpaceOnUse">
<stop stop-color="#FFCC00"/>
<stop offset="1" stop-color="#FF6633"/>
</linearGradient>
<linearGradient id="paint11_linear_32_2041" x1="72.0366" y1="8.95215" x2="3.14686" y2="66.534" gradientUnits="userSpaceOnUse">
<stop stop-color="#FFCC00"/>
<stop offset="1" stop-color="#FF6633"/>
</linearGradient>
</defs>
</svg>
