<svg width="86" height="86" viewBox="0 0 86 86" fill="none" xmlns="http://www.w3.org/2000/svg">
<path fill-rule="evenodd" clip-rule="evenodd" d="M54.844 13.8763C54.9277 13.9228 54.9934 13.9892 55.0353 14.0689C55.0831 14.1486 55.4836 14.9191 55.0651 15.962C55.0114 16.1081 54.8918 16.2211 54.7484 16.2675C54.7449 16.2686 54.7399 16.2702 54.7333 16.2722C54.4078 16.3736 50.25 17.6691 43.5768 17.6691H43.1823C36.3742 17.6691 32.1781 16.3273 32.0048 16.2675C31.8613 16.2211 31.7418 16.1081 31.688 15.962C31.2756 14.9191 31.6701 14.1486 31.7179 14.0689C31.7657 13.9892 31.8314 13.9228 31.9091 13.8763C32.6264 13.4578 33.4513 13.0659 34.5093 12.6408L37.9641 11.0865C38.0239 11.0599 38.0897 11.04 38.1554 11.04L40.2415 11.0001H46.4997L48.5977 11.04C48.6635 11.0466 48.7292 11.0599 48.789 11.0865L52.2678 12.6475C53.3019 13.0659 54.1327 13.4578 54.844 13.8763ZM46.5595 15.0121V13.5774V13.5707V13.4047C46.5595 13.1579 46.3652 13.0254 46.2839 12.97L46.2785 12.9663C46.1769 12.8999 45.4477 12.4681 43.4154 12.4681C41.3831 12.4681 40.6539 12.8999 40.5523 12.9663C40.4746 13.0128 40.2714 13.1456 40.2714 13.4047V15.0121C40.2714 15.2589 40.4656 15.3914 40.5469 15.4468L40.5523 15.4505C40.6539 15.517 41.3831 15.9487 43.4154 15.9487C45.4477 15.9487 46.1769 15.517 46.2785 15.4505C46.2818 15.4483 46.2853 15.4459 46.2891 15.4434C46.3731 15.3865 46.5595 15.2602 46.5595 15.0121ZM59.578 13.843H66.428C67.2947 13.843 67.994 14.567 67.994 15.4637V68.9017H67.9821C67.9283 69.5859 67.462 70.1704 66.8105 70.3364C66.3921 70.4494 56.3622 73 42.4471 73C34.2642 73 26.4459 72.1033 19.2074 70.3431C18.4961 70.1704 18 69.5128 18 68.7622V15.4704C18 14.5736 18.6993 13.8496 19.566 13.8496H27.1692C26.9898 14.8858 26.9958 16.2209 27.5816 17.7022C28.1375 19.1237 29.2672 20.1997 30.6599 20.6514C31.162 20.8175 35.7824 22.2722 43.1763 22.2722H43.5708C50.9109 22.2722 55.4895 20.844 56.0753 20.6514C57.474 20.1997 58.5917 19.1303 59.1536 17.7221C59.7513 16.2276 59.7633 14.8858 59.578 13.843ZM23.4185 31.3889L23.4334 31.4054C23.1225 31.9169 23.2002 32.4616 23.6724 32.9531L25.4656 34.8196L26.4638 35.9887L26.4818 36.0086C26.7507 36.2876 27.0436 36.4271 27.3485 36.4271C27.6772 36.4271 27.994 36.2677 28.2989 35.9488L33.5708 30.4356L35.2624 28.6688C35.8542 28.051 35.884 27.3735 35.3341 26.8023C34.7962 26.2509 34.1446 26.2509 33.5649 26.8222C33.5529 26.8355 33.523 26.862 33.523 26.862L27.6593 32.9863L27.6414 33.0062C27.6414 33.0062 27.5696 33.0793 27.474 33.0793C27.3664 33.0793 27.2767 32.993 27.2767 32.993L25.4776 31.1265C24.9038 30.5353 24.2403 30.5286 23.6784 31.1132L23.4185 31.3889ZM23.4309 45.571L23.4393 45.5803L23.4334 45.567C23.4325 45.5683 23.4317 45.5696 23.4309 45.571ZM23.4154 45.5537L23.4309 45.571C23.1229 46.0813 23.2015 46.6244 23.6724 47.1147L25.4656 48.9812L26.4638 50.1502L26.4818 50.1702C26.7507 50.4491 27.0436 50.5886 27.3485 50.5886C27.6772 50.5886 27.994 50.4292 28.2989 50.1104L33.5708 44.5972L35.2624 42.8303C35.8542 42.2126 35.884 41.5351 35.3341 40.9638C34.7962 40.4125 34.1446 40.4125 33.5649 40.9837C33.5529 40.997 33.523 41.0236 33.523 41.0236L27.6593 47.1479L27.6414 47.1678C27.6414 47.1678 27.5696 47.2409 27.474 47.2409C27.3664 47.2409 27.2767 47.1545 27.2767 47.1545L25.4776 45.288C24.9038 44.6968 24.2403 44.6902 23.6784 45.2747L23.4154 45.5537ZM28.2989 62.9501L33.5708 57.4369L33.5649 57.4303L35.2564 55.6634C35.8482 55.0457 35.8781 54.3681 35.3282 53.7969C34.7902 53.2389 34.1387 53.2389 33.5589 53.8102C33.5469 53.8235 33.517 53.85 33.517 53.85L27.6533 59.9743L27.6354 59.9942C27.6354 59.9942 27.5637 60.0673 27.468 60.0673C27.3604 60.0673 27.2708 59.981 27.2708 59.981L25.4716 58.1145C24.8978 57.5233 24.2343 57.5166 23.6724 58.1012L23.4094 58.3801L23.4334 58.4067C23.1225 58.9182 23.2002 59.4629 23.6724 59.9544L25.4656 61.8209L26.4638 62.99L26.4818 63.0099C26.7507 63.2889 27.0436 63.4284 27.3485 63.4284C27.6772 63.4284 27.994 63.2689 28.2989 62.9501ZM61.4369 61.7013C62.0227 61.7013 62.5009 61.17 62.5009 60.519V59.9345C62.5009 59.2835 62.0227 58.7521 61.4369 58.7521H36.416C35.8302 58.7521 35.3521 59.2835 35.3521 59.9345V60.519C35.3521 61.17 35.8302 61.7013 36.416 61.7013H61.4369ZM61.4369 48.4896C62.0227 48.4896 62.5009 47.9583 62.5009 47.3073V46.7228C62.5009 46.0718 62.0227 45.5404 61.4369 45.5404H36.416C35.8302 45.5404 35.3521 46.0718 35.3521 46.7228V47.3073C35.3521 47.9583 35.8302 48.4896 36.416 48.4896H61.4369ZM61.4369 34.6137C62.0227 34.6137 62.5009 34.0823 62.5009 33.4314V32.8468C62.5009 32.1959 62.0227 31.6645 61.4369 31.6645H36.416C35.8302 31.6645 35.3521 32.1959 35.3521 32.8468V33.4314C35.3521 34.0823 35.8302 34.6137 36.416 34.6137H61.4369Z" fill="url(#paint0_linear_95_2597)"/>
<defs>
<linearGradient id="paint0_linear_95_2597" x1="63.006" y1="17.0917" x2="16.2389" y2="54.8726" gradientUnits="userSpaceOnUse">
<stop stop-color="#FFCC00"/>
<stop offset="1" stop-color="#FF6633"/>
</linearGradient>
</defs>
</svg>
