<svg width="86" height="86" viewBox="0 0 86 86" fill="none" xmlns="http://www.w3.org/2000/svg">
<path fill-rule="evenodd" clip-rule="evenodd" d="M32.0684 16.0746C31.9983 16.1552 31.9283 16.2359 31.8724 16.3173C31.8122 16.2458 31.7367 16.1744 31.6609 16.1027C31.4921 15.9429 31.3221 15.782 31.3172 15.6177C31.2667 13.9735 31.2667 12.3293 31.3172 10.6923C31.322 10.5316 31.4913 10.3775 31.6607 10.2233L31.6607 10.2233L31.6607 10.2232C31.7422 10.1491 31.8236 10.0749 31.8869 10C31.942 10.0863 32.0123 10.171 32.0823 10.2554L32.0823 10.2554C32.223 10.425 32.3628 10.5935 32.3773 10.7716C32.4236 11.3226 32.4148 11.8773 32.406 12.433L32.406 12.4332C32.4024 12.6557 32.3989 12.8783 32.3989 13.1009C32.3989 13.336 32.4024 13.5711 32.406 13.8059V13.806V13.806V13.806V13.806V13.806V13.8061V13.8061V13.8061C32.4148 14.3927 32.4236 14.9782 32.3773 15.5601C32.3626 15.7359 32.2155 15.9052 32.0684 16.0746ZM21.632 18.8557C21.7459 18.9992 22.016 19.0239 22.2861 19.0485C22.4096 19.0598 22.5331 19.0711 22.6417 19.0937C22.6301 18.997 22.6297 18.893 22.6292 18.7892C22.6281 18.5676 22.6271 18.3468 22.5191 18.1995C21.6104 16.9158 20.6513 15.661 19.6922 14.4134C19.5844 14.2742 19.4374 14.1629 19.2077 13.989L19.2077 13.989L19.2077 13.989C19.0686 13.8837 18.8992 13.7555 18.6898 13.5841C18.6744 13.8148 18.6435 14.0164 18.6169 14.1901C18.5687 14.505 18.5345 14.7283 18.6321 14.8678C19.584 16.2235 20.5864 17.5576 21.632 18.8485V18.8557ZM42.3219 19.4325C43.4181 18.0119 44.5142 16.584 45.5599 15.1273C45.6371 15.0211 45.5755 14.8246 45.5133 14.6262C45.4825 14.5281 45.4516 14.4295 45.4373 14.3412C45.3507 14.359 45.2525 14.3686 45.1542 14.3781C44.9333 14.3996 44.7122 14.4211 44.6224 14.5359C43.5623 15.8773 42.5238 17.233 41.5503 18.6321C41.4454 18.7846 41.4918 19.0348 41.5478 19.3369C41.5765 19.4918 41.6077 19.6604 41.6224 19.8364C41.7807 19.7475 41.9079 19.6854 42.0099 19.6356C42.1729 19.5561 42.2715 19.5079 42.3291 19.4325H42.3219ZM44.0671 28.3893C39.8988 29.1033 35.7306 29.8244 31.5696 30.56V30.5672C31.2595 30.6177 30.8845 30.9134 30.7547 31.1946C29.7557 33.347 28.7658 35.5017 27.776 37.6561L27.7758 37.6565L27.7757 37.6569L27.7755 37.6572L27.7753 37.6576L27.7751 37.658L27.775 37.6584L27.7748 37.6588L27.7746 37.6592L27.7744 37.6596L27.7742 37.66L27.7741 37.6604L27.7739 37.6607L27.7737 37.6611L27.7735 37.6615C27.0066 39.3309 26.2397 41.0002 25.4687 42.6681C21.6466 40.5479 19.0721 36.5599 19.0721 31.9662C19.0649 25.0649 24.7187 19.613 31.8797 19.6274C37.6417 19.6346 42.4878 23.3197 44.0671 28.3893ZM71.9254 25.1808C74.4205 24.7393 74.45 24.7341 76.5764 26.1752V26.168C76.9803 26.4421 77.074 26.6728 76.9082 27.1344C72.9779 38.1463 69.0693 49.1654 65.1679 60.1846C64.966 60.7615 64.7136 60.9922 64.0213 60.9922C60.073 60.9642 56.129 60.9667 52.186 60.9692H52.1848H52.1845H52.1843H52.1841H52.1839H52.1836H52.1834H52.1832H52.1829C51.0569 60.9699 49.931 60.9706 48.805 60.9706H47.7233V76.9368H42.2065V60.9706H41.1609C39.6266 60.9706 38.0924 60.9658 36.5583 60.961H36.5579C32.4677 60.9481 28.3786 60.9352 24.2932 61.0139C22.6707 61.0499 21.4519 60.7687 20.7452 59.3048C20.6154 59.0379 20.5072 58.6485 20.6154 58.4105C24.5745 49.764 28.5552 41.1246 32.5576 32.4997C32.6874 32.2257 33.0624 31.93 33.3725 31.8723C37.8433 31.0773 42.3182 30.3069 46.794 29.5363L46.7952 29.5361L46.7958 29.536L46.7963 29.536L46.7969 29.5359C48.2474 29.2861 49.6981 29.0364 51.1488 28.7858C53.2208 28.427 55.2935 28.0703 57.3663 27.7135L57.3691 27.713L57.3701 27.7128C62.171 26.8864 66.9722 26.06 71.7664 25.2089L71.9254 25.1808ZM70.4641 33.2223L70.4864 33.1598C71.0021 31.7162 71.5177 30.2726 72.0332 28.8291L72.0404 28.8363C72.0839 28.7203 72.1177 28.6011 72.1634 28.4396C72.186 28.3601 72.2114 28.2703 72.2423 28.1656C68.6655 28.7858 65.24 29.3771 61.8073 29.9685L61.7998 29.9698C54.5764 31.2169 47.353 32.4641 40.1296 33.7184C39.659 33.7996 39.1899 33.8859 38.7211 33.9722C37.7316 34.1544 36.7433 34.3363 35.7451 34.4684C35.1249 34.5478 34.8436 34.8074 34.6129 35.3194C32.9775 38.9082 31.3253 42.4915 29.6712 46.079L29.6705 46.0804L29.0095 47.514C28.3026 49.0504 27.5939 50.5886 26.8852 52.1269C26.1769 53.6643 25.4685 55.2018 24.762 56.7375C24.706 56.8587 24.6591 56.9829 24.6037 57.1296C24.5734 57.2099 24.5406 57.2968 24.5024 57.3937C24.6114 57.3988 24.7116 57.4048 24.8056 57.4104H24.8057H24.8058H24.8058H24.8059H24.8059C24.9791 57.4207 25.1317 57.4298 25.2812 57.4298C37.1874 57.4298 49.0935 57.4298 60.9997 57.437C61.5477 57.437 61.8722 57.3577 62.0814 56.7663C64.8586 48.9146 67.6615 41.0681 70.4641 33.2223ZM59.1913 50.012C59.6119 49.9782 60.0336 49.9443 60.4586 49.9298H60.4658C61.2014 49.9082 61.6629 50.5211 61.4249 51.1846C61.0788 52.1581 60.7182 53.1317 60.3576 54.098C60.0836 54.8336 58.5764 55.9009 57.7543 55.9153C56.5716 55.937 55.3889 55.9297 54.2062 55.9153C53.4418 55.9081 52.9875 55.2735 53.2399 54.5884C53.3401 54.3202 53.4381 54.0512 53.5361 53.7824L53.5361 53.7824L53.5361 53.7824L53.5361 53.7823L53.5362 53.7823L53.5362 53.7822L53.5362 53.7822L53.5362 53.7821L53.5362 53.7821L53.5362 53.782L53.5362 53.782L53.5362 53.7819L53.5362 53.7819C53.8754 52.8513 54.2138 51.9227 54.6389 51.0331C54.812 50.6654 55.3529 50.3048 55.7784 50.2255C56.4166 50.109 57.0761 50.085 57.7346 50.061C58.0136 50.0509 58.2923 50.0407 58.5692 50.0235V50.0596C58.7765 50.0453 58.9837 50.0287 59.1913 50.012ZM62.9467 43.2666C62.5536 43.3035 62.1611 43.3414 61.7687 43.3792L61.7686 43.3792L61.7684 43.3792L61.7683 43.3792L61.7681 43.3792L61.768 43.3793L61.7678 43.3793L61.7677 43.3793L61.7675 43.3793L61.7674 43.3793L61.7672 43.3793L61.7671 43.3793L61.7669 43.3793L61.7668 43.3794L61.7666 43.3794L61.7665 43.3794L61.7663 43.3794L61.7662 43.3794L61.766 43.3794L61.7659 43.3794L61.7657 43.3794L61.7656 43.3794L61.7654 43.3795L61.7653 43.3795L61.7651 43.3795L61.765 43.3795L61.7648 43.3795L61.7647 43.3795L61.7645 43.3795L61.7644 43.3795L61.7642 43.3795L61.7641 43.3796L61.764 43.3796L61.7638 43.3796C60.6245 43.4895 59.4871 43.5992 58.3458 43.6849C57.7328 43.7354 57.3217 43.9589 57.1126 44.543C56.8836 45.1698 56.6412 45.7921 56.399 46.4136L56.3989 46.414L56.3987 46.4144L56.3986 46.4147L56.3984 46.4151L56.3983 46.4155L56.3981 46.4159L56.398 46.4163L56.3978 46.4167L56.3977 46.4171L56.3975 46.4175L56.3974 46.4179L56.3972 46.4183L56.3971 46.4186L56.3969 46.419L56.3969 46.4191C56.2051 46.9114 56.0135 47.4032 55.829 47.8964C55.5766 48.5671 55.7496 48.769 56.4924 48.7329C56.8163 48.7159 57.1402 48.6913 57.4656 48.6665C57.6908 48.6494 57.9167 48.6323 58.1438 48.6175V48.6608C58.4644 48.6415 58.7857 48.6271 59.1073 48.6126H59.1074C59.7481 48.5838 60.3899 48.5549 61.0284 48.4877C61.8938 48.394 62.5789 47.9901 62.8818 47.1464C62.9947 46.8388 63.1085 46.5312 63.2222 46.2235C63.4498 45.6081 63.6774 44.9926 63.8986 44.3772C64.1438 43.6777 63.7183 43.1945 62.9539 43.2666H62.9467ZM60.8476 34.9332L60.8477 34.9329L60.8477 34.9328C61.167 34.1096 61.4652 33.3408 61.7423 32.5649L61.7351 32.5721C62.0452 31.6995 62.7303 31.2308 63.5741 31.0433C64.6849 30.7943 65.8128 30.6301 66.9426 30.4656C67.0889 30.4443 67.2353 30.423 67.3817 30.4015C68.1173 30.2933 68.7303 31.0577 68.4923 31.7356C68.4154 31.9519 68.3328 32.1667 68.2503 32.3814C68.0852 32.8109 67.9202 33.2404 67.8 33.6827C67.4899 34.8437 66.6822 35.3702 65.514 35.5144C64.8362 35.5956 64.1585 35.6819 63.4799 35.7684L63.4795 35.7685C62.7719 35.8587 62.0633 35.949 61.3529 36.0336C61.1935 36.0518 61.0313 36.047 60.828 36.041H60.8279C60.7093 36.0375 60.5767 36.0336 60.4226 36.0336C60.5682 35.6534 60.7098 35.2883 60.8476 34.9332ZM65.5861 36.8986L65.1653 36.9481C63.5893 37.1329 62.0144 37.3177 60.4515 37.5693C60.1198 37.6198 59.7088 37.9587 59.5718 38.2688C59.2578 38.9576 58.9895 39.6678 58.7214 40.3774C58.5769 40.76 58.4324 41.1423 58.2809 41.5212C58.0429 42.1125 58.2809 42.3145 58.8794 42.2423C59.335 42.1994 59.7923 42.1641 60.2498 42.1287L60.2503 42.1286C61.4078 42.0391 62.567 41.9494 63.7039 41.7375C64.2953 41.6294 64.9515 41.0597 65.2616 40.526C65.6107 39.9305 65.8246 39.2618 66.0386 38.5929C66.1251 38.3222 66.2117 38.0515 66.3073 37.7857C66.4876 37.2736 66.1558 36.841 65.5861 36.9059V36.8986ZM46.5132 53.4019L46.6271 53.1249C47.3531 51.3605 48.7112 50.4518 50.7016 50.3989C51.2306 50.3848 51.7627 50.3891 52.3343 50.3939C52.6355 50.3963 52.9476 50.3989 53.2761 50.3989C53.0936 50.8689 52.9214 51.3322 52.7518 51.7885L52.7517 51.7889C52.3384 52.901 51.9403 53.9722 51.4444 54.9998C51.2352 55.4325 50.5141 55.8147 49.9804 55.8796C49.126 55.9879 48.249 55.9611 47.3745 55.9344C47.1418 55.9273 46.9094 55.9202 46.6776 55.9157C46.0646 55.9013 45.7329 55.3893 45.942 54.8268C46.1227 54.351 46.3184 53.8753 46.5125 53.4037L46.5126 53.4035L46.5127 53.4032L46.5128 53.403L46.5129 53.4027L46.513 53.4024L46.5131 53.4022L46.5132 53.4019ZM50.337 49.0341L50.3375 49.034C51.2804 48.994 52.2223 48.954 53.1608 48.8701C53.4853 48.8412 53.9396 48.596 54.055 48.3364C54.4903 47.3415 54.8771 46.328 55.2905 45.245C55.4524 44.8208 55.6184 44.386 55.7929 43.9374C55.4595 43.9673 55.1318 43.9962 54.809 44.0246L54.8087 44.0247L54.8087 44.0247L54.8086 44.0247L54.8084 44.0247C53.3376 44.1545 51.9679 44.2753 50.6079 44.435C50.3771 44.4638 50.0815 44.7379 49.9805 44.9686C49.6776 45.6566 49.3981 46.3523 49.1186 47.048L49.1186 47.0482C48.9322 47.512 48.7459 47.9758 48.5526 48.4374C48.3363 48.9494 48.5094 49.1297 49.043 49.1008L49.0358 49.0936C49.4675 49.071 49.8992 49.0527 50.3307 49.0343L50.3311 49.0343L50.3316 49.0343L50.3322 49.0343L50.3327 49.0343L50.3332 49.0342L50.3338 49.0342L50.3343 49.0342L50.3348 49.0342L50.3354 49.0341L50.3359 49.0341L50.3365 49.0341L50.337 49.0341ZM41.0166 51.3076C41.0959 51.1345 41.2762 50.8893 41.4205 50.8821V50.8965C42.5734 50.813 43.7307 50.7595 44.9553 50.703C45.3163 50.6863 45.6831 50.6694 46.0574 50.6513C45.8256 51.2211 45.6035 51.7693 45.3869 52.3038L45.3856 52.3071L45.383 52.3135L45.3826 52.3144C45.0417 53.1561 44.7144 53.9639 44.3844 54.7691C44.0671 55.5335 43.4685 55.9229 42.6103 55.9229C42.3366 55.9229 42.062 55.9245 41.7872 55.9261C41.2367 55.9293 40.6851 55.9325 40.1368 55.9229C39.4084 55.9085 39.1777 55.6056 39.4373 54.971C39.9421 53.7378 40.4757 52.5191 41.0166 51.3076ZM56.4853 42.0911C56.8899 41.1085 57.2715 40.1183 57.6776 39.0646C57.8288 38.6722 57.9835 38.2709 58.1439 37.858C57.6864 37.9118 57.2442 37.9712 56.8121 38.0293C55.855 38.1579 54.9476 38.2798 54.0334 38.3195C52.8796 38.3628 52.3315 38.8748 52.0214 39.8916C51.8147 40.561 51.5374 41.2069 51.2309 41.9209L51.2308 41.9211L51.2307 41.9213L51.2302 41.9224L51.2302 41.9225L51.23 41.9229L51.2295 41.9241L51.2294 41.9244C51.0872 42.2556 50.9388 42.6013 50.7882 42.9709C51.1019 42.9431 51.4093 42.916 51.7113 42.8895L51.7177 42.8889L51.7331 42.8876L51.7384 42.8871C53.2246 42.7564 54.5834 42.6369 55.9372 42.4878C56.1392 42.4661 56.4204 42.2714 56.4925 42.0911H56.4853ZM59.9343 33.2185L59.9341 33.2188C59.5887 34.1205 59.2427 35.0235 58.8793 35.9179H58.8721C58.8072 36.091 58.6269 36.3289 58.4755 36.3506C57.0739 36.5525 55.6674 36.73 54.1673 36.9192C53.846 36.9598 53.5203 37.0009 53.1895 37.0429C53.3591 36.6318 53.515 36.2338 53.6662 35.8477L53.6663 35.8476L53.6663 35.8476C54.0164 34.9538 54.3414 34.124 54.7544 33.3434C54.9995 32.8891 55.5909 32.4564 56.1173 32.3121C57.0358 32.0606 57.9875 31.9324 58.9378 31.8045L58.9382 31.8044C59.1592 31.7746 59.3801 31.7449 59.6005 31.7136C60.1702 31.6343 60.4659 31.8434 60.2351 32.4347C60.1346 32.6957 60.0344 32.9571 59.9343 33.2185ZM46.8289 48.7254C47.2481 47.7888 47.6301 46.8373 48.0363 45.8257C48.1961 45.4275 48.3598 45.02 48.5308 44.6005C48.15 44.6359 47.7813 44.6795 47.4214 44.722L47.4213 44.7221C46.6091 44.8181 45.8411 44.9089 45.0765 44.8889C43.9227 44.8529 43.4612 45.3649 43.1511 46.3384C42.921 47.0488 42.6041 47.7348 42.2751 48.4471L42.2751 48.4472C42.1298 48.7617 41.9822 49.0814 41.8386 49.4105C42.2053 49.3934 42.5611 49.3779 42.9084 49.3627L42.9091 49.3627L42.9095 49.3627L42.9098 49.3627H42.9099H42.9099H42.91H42.9101C44.0234 49.3141 45.0497 49.2694 46.0717 49.187C46.3386 49.1653 46.728 48.949 46.8289 48.7182V48.7254ZM35.0959 51.581C35.1897 51.3935 35.4637 51.17 35.6728 51.1556V51.1411C36.5431 51.0761 37.4168 51.0354 38.3373 50.9925L38.3387 50.9924C38.745 50.9734 39.1604 50.9541 39.5887 50.932C39.3977 51.3684 39.2166 51.7975 39.0384 52.2194L39.0384 52.2195L39.0383 52.2196C38.6042 53.2479 38.188 54.2336 37.692 55.1796C37.5045 55.5401 36.8771 55.807 36.4084 55.8791C35.9028 55.9569 35.3807 55.9396 34.8578 55.9223H34.8577H34.8577H34.8576H34.8576H34.8576H34.8575H34.8575H34.8574H34.8574H34.8574H34.8573H34.8573H34.8572H34.8572H34.8572H34.8571H34.8571H34.857H34.857H34.857H34.8569H34.8569H34.8568H34.8568C34.6044 55.9139 34.3518 55.9056 34.1007 55.9079C33.4373 55.9151 33.257 55.6699 33.531 55.0714C33.7621 54.5687 33.9837 54.0632 34.2052 53.558L34.2052 53.558L34.2052 53.5579L34.2053 53.5579L34.2053 53.5579L34.2053 53.5578L34.2053 53.5578L34.2053 53.5577L34.2054 53.5577L34.2054 53.5576L34.2054 53.5576L34.2054 53.5575L34.2055 53.5575L34.2055 53.5574L34.2055 53.5574L34.2055 53.5574L34.2056 53.5573L34.2056 53.5573L34.2056 53.5572L34.2056 53.5572L34.2056 53.5571L34.2057 53.5571L34.2057 53.557L34.2057 53.557L34.2057 53.5569C34.4956 52.8957 34.7853 52.2349 35.0959 51.581ZM49.2736 42.7401C49.7386 41.6592 50.1834 40.5732 50.6545 39.4229L50.9323 38.745L50.3126 38.8191L50.3113 38.8193L50.3105 38.8194C48.9765 38.979 47.7089 39.1306 46.4467 39.2931C46.3314 39.3075 46.1799 39.4084 46.1294 39.5094C45.6955 40.4791 45.2734 41.4489 44.8308 42.4659L44.8303 42.4671C44.6773 42.8186 44.5219 43.1758 44.3626 43.5406C44.6378 43.5178 44.9082 43.4956 45.1749 43.4738C46.4246 43.3714 47.5895 43.276 48.7544 43.1512C48.9419 43.1296 49.1943 42.9204 49.2664 42.7401H49.2736ZM28.9084 52.2157C29.1103 51.8768 29.4997 51.4513 29.8387 51.4224V51.4152C30.7178 51.3476 31.6045 51.3588 32.515 51.3703H32.5152H32.5155H32.5157H32.516H32.5162H32.5165H32.5168H32.517H32.5173H32.5176H32.5178H32.5181H32.5184H32.5187H32.5189H32.5192H32.5195H32.5198H32.5201H32.5204H32.5207H32.521C32.8706 51.3747 33.2238 51.3792 33.5814 51.3792C33.4336 51.7206 33.2771 52.0724 33.118 52.4302C32.9511 52.8055 32.7812 53.1875 32.6151 53.5715L32.5763 53.6617C32.0516 54.8842 31.8086 55.4503 31.3801 55.7095C31.0105 55.9329 30.5029 55.9282 29.5576 55.9193H29.557H29.5565C29.3503 55.9173 29.1233 55.9152 28.8723 55.9152C27.8411 55.9152 27.43 55.2878 27.8627 54.3719C27.9576 54.17 28.0492 53.9657 28.1408 53.7613L28.1408 53.7613C28.3763 53.2358 28.6124 52.7089 28.9084 52.2157ZM51.7111 36.8266C51.9676 36.227 52.2132 35.6231 52.4586 35.0195L52.4588 35.0193L52.459 35.0185C52.6622 34.5191 52.8652 34.02 53.0741 33.5238C53.2832 33.0262 53.1174 32.7954 52.5765 32.8747C52.4456 32.8939 52.3146 32.9129 52.1836 32.9319C51.2317 33.0699 50.2776 33.2082 49.3458 33.43C48.9996 33.5094 48.603 33.8483 48.4443 34.1656C48.0455 34.9735 47.6938 35.7996 47.3146 36.6901C47.1591 37.0554 46.9989 37.4316 46.829 37.8218C47.1167 37.787 47.3988 37.7531 47.6764 37.7197C48.9504 37.5666 50.1277 37.4251 51.3001 37.2593C51.4587 37.2377 51.6318 36.9997 51.7039 36.8266H51.7111ZM36.3985 48.676L36.3986 48.6759C36.8059 47.7588 37.2234 46.8188 37.6705 45.8915C37.7571 45.7112 38.0816 45.5526 38.3124 45.5309C39.2548 45.4344 40.1973 45.3602 41.2136 45.2803L41.2141 45.2802L41.2144 45.2802L41.2146 45.2802L41.2147 45.2802H41.2147L41.215 45.2802C41.4892 45.2586 41.7688 45.2366 42.0551 45.2136C41.8897 45.5963 41.7292 45.9696 41.5718 46.336C41.1594 47.2952 40.7675 48.207 40.3604 49.115C40.2811 49.2809 40.0648 49.4972 39.9061 49.4972C38.9511 49.5188 37.996 49.5162 37.0199 49.5135H37.0188H37.0177H37.0166H37.0155H37.0144H37.0133H37.0122H37.0111H37.01H37.0089H37.0077H37.0066H37.0055H37.0044H37.0032H37.0021H37.0009H36.9998C36.6779 49.5126 36.3536 49.5117 36.0263 49.5117C36.149 49.2378 36.272 48.9608 36.396 48.6817L36.3979 48.6774L36.3985 48.676ZM40.1368 40.3821C39.7681 41.1729 39.4092 41.9702 39.0315 42.8092L39.0312 42.8098L39.0306 42.8112L39.0296 42.8133C38.8465 43.2201 38.6589 43.6367 38.4637 44.0671C38.7419 44.0432 39.0138 44.0202 39.2808 43.9976L39.2811 43.9976L39.2817 43.9976L39.2822 43.9975C40.3024 43.9112 41.2508 43.831 42.1993 43.7282C42.4228 43.6993 42.7474 43.5479 42.8267 43.3676C43.2754 42.4021 43.6972 41.4231 44.1415 40.392C44.2614 40.1139 44.3829 39.832 44.507 39.5455C44.0707 39.5995 43.6442 39.6507 43.2248 39.701L43.2246 39.701L43.2246 39.701L43.2243 39.701L43.2241 39.7011L43.2239 39.7011L43.2238 39.7011L43.2238 39.7011L43.2235 39.7011L43.2233 39.7012L43.2231 39.7012C42.298 39.8122 41.4068 39.9191 40.519 40.0431C40.3748 40.0648 40.2017 40.2378 40.1368 40.3748V40.3821ZM33.8195 49.7715C32.8604 49.8508 31.9012 49.8941 30.9421 49.9157H30.9349C30.2715 49.9301 30.084 49.6705 30.3436 49.0864L30.4099 48.9385L30.4099 48.9384L30.41 48.9382L30.4101 48.938C30.7344 48.2143 31.0627 47.4816 31.4541 46.7932C31.62 46.5047 31.9734 46.1658 32.2835 46.1153C33.1634 45.9799 34.0509 45.9047 34.9975 45.8245L34.9977 45.8244L34.9978 45.8244L34.9979 45.8244L34.9981 45.8244L34.9986 45.8243L34.9989 45.8243L34.9991 45.8243C35.363 45.7935 35.7356 45.7619 36.12 45.7259C35.9359 46.1335 35.7604 46.5271 35.5896 46.9105L35.5895 46.9107C35.1983 47.7886 34.8312 48.6122 34.4397 49.4253C34.3531 49.5984 34.0431 49.7499 33.8195 49.7715ZM46.3649 35.2431L46.3651 35.2426L46.3655 35.2415L46.3656 35.2414L46.3657 35.2413L46.3657 35.2412L46.3658 35.241L46.3658 35.2409L46.3659 35.2408L46.3659 35.2407L46.366 35.2405L46.3661 35.2404L46.3661 35.2403L46.3662 35.2401L46.3662 35.24L46.3663 35.2399L46.3663 35.2397L46.3664 35.2396L46.3665 35.2395C46.5181 34.8836 46.6696 34.528 46.8217 34.173C46.7965 34.1189 46.7712 34.063 46.746 34.0071C46.7208 33.9512 46.6955 33.8953 46.6703 33.8412C46.298 33.9196 45.925 33.996 45.5519 34.0724C44.6894 34.2491 43.8266 34.4259 42.9708 34.6273C42.7905 34.6705 42.5958 34.8797 42.5093 35.06C42.1088 35.9157 41.7293 36.7797 41.3293 37.6902L41.3292 37.6905C41.2034 37.9769 41.0755 38.2679 40.9444 38.5647C41.2031 38.5341 41.4573 38.5041 41.708 38.4746C42.813 38.3446 43.8486 38.2226 44.889 38.0816C45.0261 38.0599 45.2063 37.9373 45.264 37.8147H45.2568C45.6332 36.9604 45.9987 36.1024 46.3637 35.2459L46.3638 35.2456L46.364 35.2452L46.3642 35.2448L46.3643 35.2443L46.3645 35.2439L46.3647 35.2435L46.3649 35.2431ZM34.4761 44.4604L34.4756 44.4605C34.0985 44.491 33.7211 44.5215 33.3436 44.5573C32.709 44.615 32.6008 44.3266 32.8244 43.8362C32.8957 43.6784 32.9658 43.5195 33.0359 43.3606L33.0359 43.3605C33.299 42.7642 33.563 42.1658 33.8989 41.6079C34.1008 41.2689 34.4975 40.9011 34.8652 40.8218C35.7311 40.6401 36.6168 40.5297 37.5429 40.4142L37.5433 40.4142L37.5436 40.4141C37.8667 40.3738 38.1948 40.3329 38.5287 40.2882C38.3899 40.6026 38.2554 40.9099 38.1234 41.2114L38.1214 41.2159L38.1211 41.2166L38.121 41.2167C37.712 42.1508 37.3271 43.03 36.9133 43.9011C36.8268 44.0886 36.5239 44.2617 36.3003 44.2905C35.6945 44.3618 35.0859 44.4111 34.4763 44.4604L34.4761 44.4604ZM39.3507 38.4853C39.75 37.6319 40.1328 36.7702 40.5178 35.9034L40.5181 35.9028L40.5184 35.9022L40.5186 35.9015L40.5189 35.9009C40.6411 35.6258 40.7635 35.3503 40.8867 35.0743C38.3122 34.3747 35.9974 36.0262 35.0959 39.2785L35.6749 39.2067C36.7943 39.068 37.8597 38.936 38.9252 38.7882C39.0839 38.7665 39.2858 38.6223 39.3507 38.4853ZM15.7259 27.1779C14.0384 26.7092 12.3726 26.1828 10.7211 25.6203C10.57 25.5715 10.4716 25.3875 10.3724 25.2022C10.3249 25.1134 10.2773 25.0243 10.2236 24.9496C10.2983 24.9043 10.378 24.8426 10.4578 24.7809L10.4578 24.7809C10.6321 24.6461 10.8066 24.5111 10.9303 24.5458C12.6971 25.0578 14.4423 25.6275 16.1874 26.2044C16.307 26.2458 16.3972 26.3516 16.5328 26.5106L16.5328 26.5106C16.6099 26.6011 16.7018 26.7089 16.8221 26.8318C16.6627 26.8857 16.5159 26.9513 16.381 27.0116L16.3809 27.0116C16.119 27.1286 15.902 27.2255 15.7259 27.1779ZM16.3317 36.5672C16.3167 36.4375 16.1363 36.3251 15.9643 36.218C15.8876 36.1703 15.8126 36.1235 15.7548 36.0768C15.2761 36.2296 14.8054 36.3787 14.3409 36.5257C12.986 36.9548 11.6837 37.3672 10.3894 37.8076C10.2686 37.851 10.1932 38.0143 10.1175 38.178C10.0802 38.2587 10.0428 38.3395 10 38.4061C10.0904 38.4458 10.1861 38.5009 10.2823 38.5564L10.2823 38.5564L10.2823 38.5564L10.2823 38.5564C10.5009 38.6823 10.7218 38.8095 10.887 38.7595C12.5673 38.2907 14.2331 37.7643 15.8846 37.209C16.1009 37.1369 16.3533 36.7691 16.3317 36.56V36.5672ZM22.2264 45.1454C22.1492 45.2655 22.0786 45.3756 22 45.4804H22.0072C21.7764 45.7869 21.547 46.0943 21.3176 46.4017C20.6294 47.3239 19.9411 48.246 19.2163 49.1439C19.0767 49.3134 18.8267 49.4037 18.5785 49.4933L18.5784 49.4933L18.5784 49.4933C18.4677 49.5333 18.3573 49.5731 18.2572 49.6198C18.2595 49.498 18.2457 49.3658 18.2318 49.2337C18.2023 48.9515 18.1728 48.6694 18.3005 48.4876C19.1947 47.1896 20.161 45.9348 21.149 44.7016C21.3149 44.4925 21.7331 44.4276 22.0432 44.3987C22.106 44.3939 22.185 44.5379 22.2672 44.6877L22.2672 44.6878L22.2672 44.6878L22.2672 44.6878L22.2673 44.6879L22.2673 44.6879L22.2673 44.6879L22.2673 44.688L22.2673 44.688L22.2674 44.688L22.2674 44.6881C22.3078 44.7618 22.349 44.8369 22.3894 44.8963C22.3297 44.9845 22.2767 45.0671 22.2264 45.1454ZM13.5048 31.0793C13.0324 31.1935 12.5712 31.3489 12.1077 31.5049C11.9274 31.5657 11.7467 31.6265 11.5649 31.6851C11.878 31.8147 12.1912 31.946 12.5043 32.0774L12.5044 32.0774L12.5045 32.0775L12.5046 32.0775L12.5047 32.0776L12.5048 32.0776L12.5049 32.0776L12.5059 32.0781C12.8196 32.2097 13.1333 32.3413 13.4471 32.4711C13.4651 32.4315 13.4813 32.3918 13.4976 32.3522C13.5138 32.3125 13.53 32.2728 13.548 32.2332C13.6575 32.2332 13.769 32.2398 13.8803 32.2465C14.1354 32.2617 14.3894 32.2768 14.6153 32.2115C14.8677 32.1358 15.0954 31.9859 15.3231 31.836C15.4207 31.7717 15.5182 31.7075 15.6177 31.649C15.5164 31.592 15.4162 31.5294 15.3159 31.4667C15.0736 31.3153 14.83 31.163 14.5649 31.0865C14.2331 30.9928 13.8365 31 13.4976 31.0793H13.5048ZM17.7451 40.7787C17.9182 40.6705 18.2788 40.7066 18.4879 40.8075H18.4807C18.5961 40.8652 18.6898 41.2979 18.6105 41.3628C17.9236 41.9445 17.2112 42.5006 16.4895 43.0639L16.4895 43.0639L16.4893 43.064L16.4892 43.0641L16.489 43.0642L16.4889 43.0644L16.4888 43.0645C16.2712 43.2343 16.0529 43.4047 15.8341 43.5767C15.7397 43.5169 15.6467 43.4665 15.5628 43.4211C15.3838 43.3242 15.2457 43.2494 15.2211 43.1512C15.1706 42.9421 15.2139 42.5887 15.3653 42.4734C16.1298 41.8748 16.923 41.3051 17.7451 40.7787ZM45.0982 23.0672C45.1858 23.0741 45.2814 23.0928 45.3772 23.1115C45.5811 23.1513 45.7855 23.1913 45.9131 23.1177C46.6992 22.6345 47.4492 22.0864 48.1847 21.5383C48.2843 21.466 48.3469 21.3481 48.4403 21.1724C48.4958 21.0681 48.5621 20.9433 48.6535 20.7956C48.4919 20.7657 48.3372 20.7213 48.1955 20.6807L48.1955 20.6807C47.9262 20.6034 47.7041 20.5397 47.5718 20.6153C46.7424 21.1129 45.9564 21.6754 45.2064 22.2811C45.0973 22.3654 45.1007 22.5793 45.1041 22.7915C45.1057 22.8878 45.1072 22.9838 45.0982 23.0672ZM27.4354 16.6343C27.3367 16.8014 27.2216 16.9962 27.0769 17.0169V17.0097C26.8605 17.0385 26.4639 16.8077 26.3774 16.6058C26.024 15.7693 25.7283 14.9039 25.4904 14.0313C25.4508 13.8831 25.5568 13.701 25.6623 13.5199C25.7108 13.4367 25.7592 13.3536 25.7932 13.2741C25.8738 13.3109 25.9698 13.3419 26.0657 13.3728C26.2704 13.4388 26.4748 13.5047 26.5288 13.6275C26.8128 14.2937 27.043 14.9766 27.2946 15.7229L27.2947 15.723L27.2947 15.7232L27.2948 15.7233L27.2948 15.7234C27.3754 15.9624 27.4582 16.208 27.5456 16.4616C27.5109 16.5065 27.4745 16.5682 27.4354 16.6342L27.4354 16.6343ZM37.6848 17.0672C38.0454 16.0504 38.3915 15.0192 38.6872 13.9807C38.7233 13.8509 38.4132 13.4975 38.2401 13.4831C38.0454 13.4687 37.7209 13.685 37.6488 13.8653C37.317 14.7163 37.0214 15.5817 36.7978 16.4687C36.7533 16.6416 36.8409 16.8485 36.9399 17.0822L36.9399 17.0822C36.9854 17.1896 37.0333 17.3026 37.0718 17.4206C37.1916 17.3555 37.3 17.3074 37.3918 17.2666C37.5543 17.1945 37.6644 17.1456 37.692 17.0672H37.6848ZM18.7824 22.6033C18.5255 22.6811 18.286 22.7537 18.1491 22.6707L18.1419 22.6779C17.2693 22.1442 16.4472 21.5385 15.6467 20.9111C15.5241 20.8101 15.5386 20.4279 15.6251 20.2404C15.6828 20.1106 16.0794 19.988 16.1876 20.0601C17.083 20.6407 17.9581 21.2689 18.826 21.8919L18.826 21.8919L18.826 21.8919L18.9063 21.9495C18.965 21.9902 18.9926 22.0704 19.0387 22.2045L19.0387 22.2045L19.0388 22.2045C19.0663 22.2845 19.1003 22.3836 19.1515 22.5048C19.0307 22.528 18.9046 22.5662 18.7824 22.6033ZM48.3652 27.6468L48.3644 27.6469C48.1988 27.6757 48.0332 27.7045 47.8748 27.7333C47.9469 27.7478 48.0118 27.755 48.0623 27.7405C48.0736 27.7373 48.085 27.734 48.0964 27.7305C48.1355 27.7188 48.1745 27.7063 48.2136 27.6937L48.2137 27.6937C48.2642 27.6774 48.3147 27.6612 48.3652 27.6468Z" fill="url(#paint0_linear_188_1042)"/>
<defs>
<linearGradient id="paint0_linear_188_1042" x1="70.3027" y1="16.5767" x2="18.658" y2="68.3553" gradientUnits="userSpaceOnUse">
<stop stop-color="#FFCC00"/>
<stop offset="1" stop-color="#FF6633"/>
</linearGradient>
</defs>
</svg>
