<svg width="86" height="86" viewBox="0 0 86 86" fill="none" xmlns="http://www.w3.org/2000/svg">
<path d="M14.0712 48.4451H22.599C23.802 48.4451 24.7722 49.3302 24.7722 50.4197V69.6604C24.7722 70.7499 23.802 71.6351 22.599 71.6351H14.0712C9.06505 71.6351 5 67.9387 5 63.3863V56.6841C5 52.1317 9.06505 48.4353 14.0712 48.4353V48.4451Z" fill="url(#paint0_linear_95_1398)"/>
<path d="M29.5455 52.1317H29.7492C31.0784 52.1317 32.359 51.5967 33.3001 50.6434L36.5987 47.3069C37.5009 46.3926 38.7234 45.877 40.004 45.877H55.5074C56.1866 45.877 56.7396 46.5093 56.5843 47.1805C55.9731 49.8263 52.0536 51.1882 50.5498 51.3243L42.7399 52.1317H56.7298C58.806 52.1317 60.8434 51.5481 62.6188 50.4392L73.543 43.5814C75.8811 42.1125 78.9081 42.5405 80.7611 44.593C81.1298 44.9918 81.0619 45.6338 80.6253 45.9548L66.2279 56.616C65.4323 57.1997 64.5689 57.686 63.6472 58.046L41.3525 66.7228C40.3241 67.1216 39.2181 67.3356 38.1121 67.3356H29.5552C28.4298 67.3356 27.5178 66.4115 27.5178 65.2734V54.2134C27.5178 53.0753 28.4298 52.1512 29.5552 52.1512L29.5455 52.1317Z" fill="url(#paint1_linear_95_1398)"/>
<path d="M60.6882 50.1571L70.3317 44.0483C71.1855 43.5133 71.7579 42.6184 71.8937 41.6164C71.9907 40.9355 71.4571 40.3324 70.778 40.3422C67.7219 40.4005 65.51 40.9355 62.6576 45.3128C62.5994 45.4588 61.0471 48.7855 60.4941 49.982C60.4359 50.1084 60.5814 50.2252 60.6979 50.1571H60.6882Z" fill="url(#paint2_linear_95_1398)"/>
<path d="M59.7985 17.5998L29.8496 33.6807C29.4079 33.9178 29.2425 34.467 29.4796 34.9087L34.4731 44.2085C36.9604 42.9944 39.6772 42.4819 42.6026 42.7268C43.3251 42.7864 44.0148 42.7612 44.6825 42.6712C43.5607 41.8798 42.5926 40.8269 41.8971 39.5317C39.507 35.0803 41.1749 29.5304 45.6313 27.1376C50.0876 24.7448 55.6326 26.4154 58.0254 30.8717C59.6028 33.8095 59.3997 37.2176 57.8092 39.8873C57.9068 39.95 58.007 40.0176 58.1076 40.0978C58.4819 40.4019 58.8994 40.8938 59.0031 41.3368C59.1003 41.7322 59.1673 42.1309 59.2012 42.5155L62.0993 40.9594C62.5913 39.7682 63.3364 38.7863 64.4961 38.1956C64.9431 37.9684 65.4895 37.8668 66.0064 37.8769C66.4401 37.887 66.8123 38.0324 67.0989 38.2685L70.0566 36.6804C70.4982 36.4432 70.6637 35.8941 70.4265 35.4524L61.0338 17.9594C60.7993 17.5227 60.2475 17.3523 59.8058 17.5895L59.7985 17.5998Z" fill="url(#paint3_linear_95_1398)"/>
<path d="M50.206 33.6574L48.7031 30.8585C49.0715 30.6991 49.5456 30.713 50.0536 30.8494C50.3888 30.9379 50.626 31.0344 50.9436 30.8638C51.3754 30.632 51.6178 29.7858 51.378 29.3391C51.2315 29.0662 50.8712 28.8952 50.4524 28.794C49.7548 28.6379 48.6805 28.6969 47.7515 29.0743L47.5383 28.6773C47.2132 28.0719 46.9276 27.9567 46.4016 28.2391C45.8756 28.5216 45.7642 28.8499 46.0893 29.4554L46.3211 29.8871C44.6812 31.0361 44.1526 32.8735 45.0159 34.4814C46.0498 36.4069 47.8756 36.4495 49.6279 36.0456L51.2773 39.1174C50.6719 39.3593 49.9891 39.2784 49.6013 39.199C49.2996 39.1372 49.0566 39.1015 48.7837 39.248C48.2725 39.5225 48.174 40.2914 48.3791 40.6736C48.491 40.882 48.6419 41.0439 48.9852 41.1473C49.0309 41.1611 49.074 41.1699 49.1171 41.1788C50.7503 40.4936 52.4516 39.9829 54.2107 39.6393C55.553 38.4838 55.8041 36.8082 55.01 35.3294C54.0268 33.4982 52.1009 33.3048 50.2186 33.657L50.206 33.6574ZM48.5251 34.0037C47.8035 34.1482 47.3116 33.9584 46.9599 33.3034C46.5255 32.4945 46.8741 31.9173 47.2514 31.6316L48.5251 34.0037ZM52.716 38.3321L51.2878 35.6722C52.2028 35.5069 52.7917 35.9131 53.0902 36.4689C53.4925 37.2183 53.2292 37.9543 52.716 38.3321Z" fill="url(#paint4_linear_95_1398)"/>
<path d="M28.5626 31.2836L53.941 17.6568L52.7712 15.4782C52.5341 15.0365 51.9849 14.8711 51.5433 15.1082L21.5894 31.1918C21.1477 31.429 20.9823 31.9782 21.2194 32.4198L29.4104 47.6747C30.2758 46.9287 31.1777 46.2271 32.1268 45.5896L27.08 36.1905C27.0161 36.0714 26.9621 35.947 26.908 35.8226L25.9514 34.041C25.9381 34.0162 25.9275 33.9963 25.9191 33.9689L25.9141 33.9715C25.5118 33.2222 25.7518 32.812 26.4833 32.4001C26.4982 32.3921 26.5081 32.3867 26.523 32.3788L28.5278 31.3022C28.5278 31.3022 28.5477 31.2916 28.5576 31.2863L28.5626 31.2836Z" fill="url(#paint5_linear_95_1398)"/>
<defs>
<linearGradient id="paint0_linear_95_1398" x1="81" y1="15" x2="26.729" y2="87.8275" gradientUnits="userSpaceOnUse">
<stop stop-color="#FFCC00"/>
<stop offset="1" stop-color="#FF6633"/>
</linearGradient>
<linearGradient id="paint1_linear_95_1398" x1="81" y1="15" x2="26.729" y2="87.8275" gradientUnits="userSpaceOnUse">
<stop stop-color="#FFCC00"/>
<stop offset="1" stop-color="#FF6633"/>
</linearGradient>
<linearGradient id="paint2_linear_95_1398" x1="81" y1="15" x2="26.729" y2="87.8275" gradientUnits="userSpaceOnUse">
<stop stop-color="#FFCC00"/>
<stop offset="1" stop-color="#FF6633"/>
</linearGradient>
<linearGradient id="paint3_linear_95_1398" x1="81" y1="15" x2="26.729" y2="87.8275" gradientUnits="userSpaceOnUse">
<stop stop-color="#FFCC00"/>
<stop offset="1" stop-color="#FF6633"/>
</linearGradient>
<linearGradient id="paint4_linear_95_1398" x1="81" y1="15" x2="26.729" y2="87.8275" gradientUnits="userSpaceOnUse">
<stop stop-color="#FFCC00"/>
<stop offset="1" stop-color="#FF6633"/>
</linearGradient>
<linearGradient id="paint5_linear_95_1398" x1="81" y1="15" x2="26.729" y2="87.8275" gradientUnits="userSpaceOnUse">
<stop stop-color="#FFCC00"/>
<stop offset="1" stop-color="#FF6633"/>
</linearGradient>
</defs>
</svg>
