<svg width="261" height="262" viewBox="0 0 261 262" fill="none" xmlns="http://www.w3.org/2000/svg">
<path d="M2.73389 107.189C17.6063 74.5774 45.3827 61.5548 46.8044 60.8981H46.9137L60.2551 56.6302C137.46 32.0076 214.557 60.8981 214.666 60.8981C219.259 45.5774 213.026 29.0529 199.465 20.6264C121.932 -27.5245 19.5747 17.234 2.73389 107.189Z" fill="url(#paint0_linear_352_18)"/>
<path d="M156.051 3.55469C259.83 39.1207 213.025 204.913 135.492 224.94L130.68 226.143L153.864 237.306C174.313 247.155 199.465 244.528 217.4 228.441C297.23 157.091 261.47 24.3471 156.051 3.55469Z" fill="url(#paint1_linear_352_18)"/>
<path d="M130.243 226.253V226.143C41.7739 195.393 46.8043 111.347 46.8043 60.8982C46.8043 60.8982 12.5759 69.3246 3.6087 102.702C1.20287 111.894 0.437378 121.634 0.437378 131.483C0.437378 244.528 135.055 303.404 218.056 228.113C185.14 237.525 130.243 226.253 130.243 226.253Z" fill="url(#paint2_linear_352_18)"/>
<path d="M108.809 47.7661V2.89819C55.2248 11.9812 12.6853 53.8944 2.73389 107.189C18.3718 75.5624 38.9307 53.019 108.809 47.7661Z" fill="url(#paint3_linear_352_18)"/>
<circle cx="130.5" cy="129.5" r="56.5" fill="url(#paint4_linear_352_18)"/>
<mask id="path-6-outside-1_352_18" maskUnits="userSpaceOnUse" x="103" y="102" width="56" height="54" fill="black">
<rect fill="white" x="103" y="102" width="56" height="54"/>
<path fill-rule="evenodd" clip-rule="evenodd" d="M116.578 152.285C117.04 152.8 117.588 153.103 118.146 153.199C118.879 153.946 119.835 154.162 120.696 153.847C121.656 154.198 122.732 153.89 123.487 152.925L156.151 111.194C157.26 109.777 157.26 107.48 156.151 106.063C155.396 105.097 154.32 104.79 153.36 105.14C152.401 104.79 151.325 105.097 150.57 106.063L120.165 144.906L111.327 135.042C110.54 134.165 109.502 133.903 108.587 134.232C107.554 133.866 106.418 134.236 105.684 135.31C104.652 136.819 104.805 139.146 106.025 140.507L116.578 152.285Z"/>
</mask>
<path fill-rule="evenodd" clip-rule="evenodd" d="M116.578 152.285C117.04 152.8 117.588 153.103 118.146 153.199C118.879 153.946 119.835 154.162 120.696 153.847C121.656 154.198 122.732 153.89 123.487 152.925L156.151 111.194C157.26 109.777 157.26 107.48 156.151 106.063C155.396 105.097 154.32 104.79 153.36 105.14C152.401 104.79 151.325 105.097 150.57 106.063L120.165 144.906L111.327 135.042C110.54 134.165 109.502 133.903 108.587 134.232C107.554 133.866 106.418 134.236 105.684 135.31C104.652 136.819 104.805 139.146 106.025 140.507L116.578 152.285Z" fill="#FFFEFE"/>
<path d="M118.146 153.199L119.573 151.798L119.121 151.338L118.486 151.228L118.146 153.199ZM116.578 152.285L115.089 153.62L115.089 153.62L116.578 152.285ZM120.696 153.847L121.382 151.969L120.696 151.718L120.011 151.969L120.696 153.847ZM123.487 152.925L125.062 154.157L125.062 154.157L123.487 152.925ZM156.151 111.194L157.726 112.426L157.726 112.426L156.151 111.194ZM156.151 106.063L157.726 104.83L157.726 104.83L156.151 106.063ZM153.36 105.14L152.675 107.019L153.36 107.269L154.046 107.019L153.36 105.14ZM150.57 106.063L148.995 104.83L148.995 104.83L150.57 106.063ZM120.165 144.906L118.676 146.241L120.269 148.019L121.74 146.139L120.165 144.906ZM111.327 135.042L109.837 136.377L109.837 136.377L111.327 135.042ZM108.587 134.232L107.92 136.117L108.593 136.355L109.264 136.114L108.587 134.232ZM105.684 135.31L107.335 136.439L107.335 136.439L105.684 135.31ZM106.025 140.507L107.514 139.173L107.514 139.173L106.025 140.507ZM118.486 151.228C118.416 151.216 118.261 151.166 118.068 150.951L115.089 153.62C115.819 154.434 116.759 154.99 117.807 155.17L118.486 151.228ZM120.011 151.969C119.95 151.991 119.901 151.991 119.852 151.979C119.801 151.967 119.7 151.927 119.573 151.798L116.719 154.601C117.958 155.862 119.727 156.33 121.382 155.726L120.011 151.969ZM121.912 151.692C121.757 151.89 121.625 151.953 121.562 151.973C121.502 151.993 121.448 151.992 121.382 151.969L120.011 155.726C121.874 156.406 123.834 155.726 125.062 154.157L121.912 151.692ZM154.576 109.961L121.912 151.692L125.062 154.157L157.726 112.426L154.576 109.961ZM154.576 107.295C155.119 107.988 155.119 109.268 154.576 109.961L157.726 112.426C159.402 110.285 159.402 106.971 157.726 104.83L154.576 107.295ZM154.046 107.019C154.112 106.995 154.166 106.995 154.226 107.014C154.289 107.034 154.421 107.097 154.576 107.295L157.726 104.83C156.498 103.261 154.538 102.581 152.675 103.261L154.046 107.019ZM152.144 107.295C152.3 107.097 152.432 107.034 152.495 107.014C152.555 106.995 152.609 106.995 152.675 107.019L154.046 103.261C152.182 102.581 150.223 103.261 148.995 104.83L152.144 107.295ZM121.74 146.139L152.144 107.295L148.995 104.83L118.591 143.674L121.74 146.139ZM109.837 136.377L118.676 146.241L121.655 143.572L112.816 133.708L109.837 136.377ZM109.264 136.114C109.326 136.091 109.387 136.088 109.459 136.108C109.534 136.13 109.672 136.193 109.837 136.377L112.816 133.708C111.551 132.295 109.678 131.714 107.911 132.349L109.264 136.114ZM107.335 136.439C107.489 136.214 107.629 136.138 107.699 136.113C107.765 136.09 107.833 136.086 107.92 136.117L109.254 132.346C107.276 131.646 105.223 132.441 104.033 134.181L107.335 136.439ZM107.514 139.173C106.909 138.497 106.823 137.187 107.335 136.439L104.033 134.181C102.481 136.45 102.701 139.795 104.535 141.842L107.514 139.173ZM118.068 150.951L107.514 139.173L104.535 141.842L115.089 153.62L118.068 150.951Z" fill="white" mask="url(#path-6-outside-1_352_18)"/>
<defs>
<linearGradient id="paint0_linear_352_18" x1="-7.46236" y1="68.395" x2="197.029" y2="25.0195" gradientUnits="userSpaceOnUse">
<stop stop-color="#FFCD05"/>
<stop offset="1" stop-color="#F2673A"/>
</linearGradient>
<linearGradient id="paint1_linear_352_18" x1="214.066" y1="9.63374" x2="189.211" y2="244.553" gradientUnits="userSpaceOnUse">
<stop stop-color="#FFCD05"/>
<stop offset="1" stop-color="#F2673A"/>
</linearGradient>
<linearGradient id="paint2_linear_352_18" x1="175.835" y1="271.541" x2="12.1406" y2="112.718" gradientUnits="userSpaceOnUse">
<stop stop-color="#FFCD05"/>
<stop offset="1" stop-color="#F2673A"/>
</linearGradient>
<linearGradient id="paint3_linear_352_18" x1="-4.26184" y1="69.2758" x2="202.862" y2="19.522" gradientUnits="userSpaceOnUse">
<stop stop-color="#FFCD05"/>
<stop offset="1" stop-color="#F2673A"/>
</linearGradient>
<linearGradient id="paint4_linear_352_18" x1="130.5" y1="73" x2="130.5" y2="186" gradientUnits="userSpaceOnUse">
<stop stop-color="#FF6633"/>
<stop offset="1" stop-color="#FFCC00"/>
</linearGradient>
</defs>
</svg>
