<svg width="261" height="262" viewBox="0 0 261 262" fill="none" xmlns="http://www.w3.org/2000/svg">
<path d="M2.73389 107.189C17.6063 74.5774 45.3827 61.5548 46.8044 60.8981H46.9137L60.2551 56.6302C137.46 32.0076 214.557 60.8981 214.666 60.8981C219.259 45.5774 213.026 29.0529 199.465 20.6264C121.932 -27.5245 19.5747 17.234 2.73389 107.189Z" fill="url(#paint0_linear_352_33)"/>
<path d="M156.051 3.55469C259.83 39.1207 213.026 204.913 135.492 224.94L130.681 226.143L153.864 237.306C174.314 247.155 199.466 244.528 217.4 228.441C297.23 157.091 261.47 24.3471 156.051 3.55469Z" fill="url(#paint1_linear_352_33)"/>
<path d="M130.243 226.253V226.143C41.7741 195.393 46.8044 111.347 46.8044 60.8982C46.8044 60.8982 12.576 69.3246 3.60883 102.702C1.20299 111.894 0.4375 121.634 0.4375 131.483C0.4375 244.528 135.055 303.404 218.056 228.113C185.14 237.525 130.243 226.253 130.243 226.253Z" fill="url(#paint2_linear_352_33)"/>
<path d="M108.809 47.7661V2.89819C55.2248 11.9812 12.6853 53.8944 2.73389 107.189C18.3718 75.5624 38.9307 53.019 108.809 47.7661Z" fill="url(#paint3_linear_352_33)"/>
<circle cx="130.5" cy="130.5" r="56.5" fill="url(#paint4_linear_352_33)"/>
<mask id="path-6-outside-1_352_33" maskUnits="userSpaceOnUse" x="103" y="103" width="56" height="54" fill="black">
<rect fill="white" x="103" y="103" width="56" height="54"/>
<path fill-rule="evenodd" clip-rule="evenodd" d="M116.578 153.285C117.04 153.8 117.588 154.103 118.146 154.199C118.879 154.946 119.835 155.162 120.696 154.847C121.656 155.198 122.732 154.89 123.487 153.925L156.151 112.194C157.26 110.777 157.26 108.48 156.151 107.063C155.396 106.097 154.32 105.79 153.36 106.14C152.401 105.79 151.325 106.097 150.57 107.063L120.165 145.906L111.327 136.042C110.54 135.165 109.502 134.903 108.587 135.232C107.554 134.866 106.418 135.236 105.684 136.31C104.652 137.819 104.805 140.146 106.025 141.507L116.578 153.285Z"/>
</mask>
<path fill-rule="evenodd" clip-rule="evenodd" d="M116.578 153.285C117.04 153.8 117.588 154.103 118.146 154.199C118.879 154.946 119.835 155.162 120.696 154.847C121.656 155.198 122.732 154.89 123.487 153.925L156.151 112.194C157.26 110.777 157.26 108.48 156.151 107.063C155.396 106.097 154.32 105.79 153.36 106.14C152.401 105.79 151.325 106.097 150.57 107.063L120.165 145.906L111.327 136.042C110.54 135.165 109.502 134.903 108.587 135.232C107.554 134.866 106.418 135.236 105.684 136.31C104.652 137.819 104.805 140.146 106.025 141.507L116.578 153.285Z" fill="#FFFEFE"/>
<path d="M118.146 154.199L119.573 152.798L119.121 152.338L118.486 152.228L118.146 154.199ZM116.578 153.285L115.089 154.62L115.089 154.62L116.578 153.285ZM120.696 154.847L121.382 152.969L120.696 152.718L120.011 152.969L120.696 154.847ZM123.487 153.925L125.062 155.157L125.062 155.157L123.487 153.925ZM156.151 112.194L157.726 113.426L157.726 113.426L156.151 112.194ZM156.151 107.063L157.726 105.83L157.726 105.83L156.151 107.063ZM153.36 106.14L152.675 108.019L153.36 108.269L154.046 108.019L153.36 106.14ZM150.57 107.063L148.995 105.83L148.995 105.83L150.57 107.063ZM120.165 145.906L118.676 147.241L120.269 149.019L121.74 147.139L120.165 145.906ZM111.327 136.042L109.837 137.377L109.837 137.377L111.327 136.042ZM108.587 135.232L107.92 137.117L108.593 137.355L109.264 137.114L108.587 135.232ZM105.684 136.31L107.335 137.439L107.335 137.439L105.684 136.31ZM106.025 141.507L107.514 140.173L107.514 140.173L106.025 141.507ZM118.486 152.228C118.416 152.216 118.261 152.166 118.068 151.951L115.089 154.62C115.819 155.434 116.759 155.99 117.807 156.17L118.486 152.228ZM120.011 152.969C119.95 152.991 119.901 152.991 119.852 152.979C119.801 152.967 119.7 152.927 119.573 152.798L116.719 155.601C117.958 156.862 119.727 157.33 121.382 156.726L120.011 152.969ZM121.912 152.692C121.757 152.89 121.625 152.953 121.562 152.973C121.502 152.993 121.448 152.992 121.382 152.969L120.011 156.726C121.874 157.406 123.834 156.726 125.062 155.157L121.912 152.692ZM154.576 110.961L121.912 152.692L125.062 155.157L157.726 113.426L154.576 110.961ZM154.576 108.295C155.119 108.988 155.119 110.268 154.576 110.961L157.726 113.426C159.402 111.285 159.402 107.971 157.726 105.83L154.576 108.295ZM154.046 108.019C154.112 107.995 154.166 107.995 154.226 108.014C154.289 108.034 154.421 108.097 154.576 108.295L157.726 105.83C156.498 104.261 154.538 103.581 152.675 104.261L154.046 108.019ZM152.144 108.295C152.3 108.097 152.432 108.034 152.495 108.014C152.555 107.995 152.609 107.995 152.675 108.019L154.046 104.261C152.182 103.581 150.223 104.261 148.995 105.83L152.144 108.295ZM121.74 147.139L152.144 108.295L148.995 105.83L118.591 144.674L121.74 147.139ZM109.837 137.377L118.676 147.241L121.655 144.572L112.816 134.708L109.837 137.377ZM109.264 137.114C109.326 137.091 109.387 137.088 109.459 137.108C109.534 137.13 109.672 137.193 109.837 137.377L112.816 134.708C111.551 133.295 109.678 132.714 107.911 133.349L109.264 137.114ZM107.335 137.439C107.489 137.214 107.629 137.138 107.699 137.113C107.765 137.09 107.833 137.086 107.92 137.117L109.254 133.346C107.276 132.646 105.223 133.441 104.033 135.181L107.335 137.439ZM107.514 140.173C106.909 139.497 106.823 138.187 107.335 137.439L104.033 135.181C102.481 137.45 102.701 140.795 104.535 142.842L107.514 140.173ZM118.068 151.951L107.514 140.173L104.535 142.842L115.089 154.62L118.068 151.951Z" fill="white" mask="url(#path-6-outside-1_352_33)"/>
<defs>
<linearGradient id="paint0_linear_352_33" x1="109.448" y1="0.984375" x2="109.448" y2="107.189" gradientUnits="userSpaceOnUse">
<stop stop-color="#333399"/>
<stop offset="1" stop-color="#33CCFF"/>
</linearGradient>
<linearGradient id="paint1_linear_352_33" x1="195.774" y1="3.55469" x2="195.774" y2="243.078" gradientUnits="userSpaceOnUse">
<stop stop-color="#333399"/>
<stop offset="1" stop-color="#33CCFF"/>
</linearGradient>
<linearGradient id="paint2_linear_352_33" x1="109.247" y1="60.8982" x2="109.247" y2="261.837" gradientUnits="userSpaceOnUse">
<stop stop-color="#333399"/>
<stop offset="1" stop-color="#33CCFF"/>
</linearGradient>
<linearGradient id="paint3_linear_352_33" x1="55.7716" y1="2.89819" x2="55.7716" y2="107.189" gradientUnits="userSpaceOnUse">
<stop stop-color="#333399"/>
<stop offset="1" stop-color="#33CCFF"/>
</linearGradient>
<linearGradient id="paint4_linear_352_33" x1="130.5" y1="74" x2="130.5" y2="187" gradientUnits="userSpaceOnUse">
<stop stop-color="#333399"/>
<stop offset="1" stop-color="#33CCFF"/>
</linearGradient>
</defs>
</svg>
