<svg width="19" height="19" viewBox="0 0 19 19" fill="none" xmlns="http://www.w3.org/2000/svg">
<path d="M16.415 0.457031C16.9455 0.457031 17.4542 0.667745 17.8293 1.04282C18.2043 1.41789 18.415 1.9266 18.415 2.45703V16.457C18.415 16.9875 18.2043 17.4962 17.8293 17.8712C17.4542 18.2463 16.9455 18.457 16.415 18.457H2.41504C1.88461 18.457 1.3759 18.2463 1.00083 17.8712C0.625753 17.4962 0.415039 16.9875 0.415039 16.457V2.45703C0.415039 1.9266 0.625753 1.41789 1.00083 1.04282C1.3759 0.667745 1.88461 0.457031 2.41504 0.457031H16.415ZM15.915 15.957V10.657C15.915 9.79243 15.5716 8.96323 14.9602 8.35186C14.3488 7.74049 13.5196 7.39703 12.655 7.39703C11.805 7.39703 10.815 7.91703 10.335 8.69703V7.58703H7.54504V15.957H10.335V11.027C10.335 10.257 10.955 9.62703 11.725 9.62703C12.0963 9.62703 12.4524 9.77453 12.715 10.0371C12.9775 10.2996 13.125 10.6557 13.125 11.027V15.957H15.915ZM4.29504 6.01703C4.7406 6.01703 5.16792 5.84003 5.48298 5.52497C5.79804 5.20991 5.97504 4.7826 5.97504 4.33703C5.97504 3.40703 5.22504 2.64703 4.29504 2.64703C3.84682 2.64703 3.41697 2.82508 3.10003 3.14202C2.78309 3.45896 2.60504 3.88882 2.60504 4.33703C2.60504 5.26703 3.36504 6.01703 4.29504 6.01703ZM5.68504 15.957V7.58703H2.91504V15.957H5.68504Z" fill="white"/>
</svg>
