<svg width="86" height="87" viewBox="0 0 86 87" fill="none" xmlns="http://www.w3.org/2000/svg">
<path d="M69.6675 44.4784H15.6811C14.8068 44.4784 14.1033 45.1784 14.1033 46.0484V74.2684C14.1033 75.1384 14.8068 75.8384 15.6811 75.8384H46.6037C47.478 75.8384 48.1815 75.1384 48.1815 74.2684V53.1284C48.1815 52.2584 48.8849 51.5584 49.7593 51.5584H62.5624C63.4368 51.5584 64.1402 52.2584 64.1402 53.1284V74.2684C64.1402 75.1384 64.8437 75.8384 65.718 75.8384H69.6675C70.5418 75.8384 71.2453 75.1384 71.2453 74.2684V46.0484C71.2453 45.1784 70.5418 44.4784 69.6675 44.4784ZM41.0362 67.1784C41.0362 68.0484 40.3327 68.7484 39.4584 68.7484H22.7961C21.9218 68.7484 21.2184 68.0484 21.2184 67.1784V53.1284C21.2184 52.2584 21.9218 51.5584 22.7961 51.5584H39.4584C40.3327 51.5584 41.0362 52.2584 41.0362 53.1284V67.1784Z" fill="url(#paint0_linear_32_1118)"/>
<path d="M78.2901 36.2084L65.4869 12.6584C65.2155 12.1484 64.6829 11.8384 64.1 11.8384H21.2586C20.6757 11.8384 20.143 12.1584 19.8717 12.6584L7.06852 36.2084C5.93291 38.2984 7.45041 40.8384 9.84222 40.8384H75.5264C77.9182 40.8384 79.4357 38.2984 78.3001 36.2084H78.2901ZM35.921 15.4484H43.6089C44.2319 15.4484 44.6239 16.1084 44.3224 16.6484L40.1417 24.3284C40.0011 24.5884 39.7197 24.7584 39.4283 24.7584H31.7503C31.1273 24.7584 30.7353 24.0984 31.0267 23.5584L35.1974 15.8784C35.3381 15.6184 35.6195 15.4484 35.921 15.4484ZM18.9773 23.5584L22.8765 16.3784C23.1881 15.8084 23.791 15.4484 24.4443 15.4484H31.5594C32.1825 15.4484 32.5744 16.1084 32.2729 16.6484L28.0923 24.3284C27.9516 24.5884 27.6702 24.7584 27.3788 24.7584H19.7009C19.0778 24.7584 18.6858 24.0984 18.9773 23.5584ZM20.6656 36.4484H13.5907C12.6963 36.4484 12.1335 35.4984 12.5556 34.7184L16.4348 27.5684C16.5755 27.3084 16.8568 27.1384 17.1583 27.1384H24.8463C25.4694 27.1384 25.8612 27.7984 25.5598 28.3384L21.3791 36.0184C21.2385 36.2784 20.957 36.4484 20.6656 36.4484ZM32.8457 36.4484H25.1679C24.5448 36.4484 24.1528 35.7884 24.4443 35.2484L28.6149 27.5684C28.7556 27.3084 29.0369 27.1384 29.3384 27.1384H37.0264C37.6495 27.1384 38.0414 27.7984 37.7399 28.3384L33.5593 36.0184C33.4186 36.2784 33.1372 36.4484 32.8457 36.4484ZM49.7995 28.3384L45.8902 35.5184C45.5786 36.0884 44.9756 36.4484 44.3224 36.4484H37.2274C36.6043 36.4484 36.2124 35.7884 36.5038 35.2484L40.6744 27.5684C40.8151 27.3084 41.0965 27.1384 41.3979 27.1384H49.0859C49.709 27.1384 50.101 27.7984 49.7995 28.3384ZM56.2211 17.1784L52.3219 24.3284C52.1812 24.5884 51.8998 24.7584 51.6084 24.7584H43.9305C43.3074 24.7584 42.9155 24.0984 43.2069 23.5584L47.3775 15.8784C47.5182 15.6184 47.7996 15.4484 48.1011 15.4484H55.186C56.0805 15.4484 56.6432 16.3984 56.2211 17.1784Z" fill="url(#paint1_linear_32_1118)"/>
<defs>
<linearGradient id="paint0_linear_32_1118" x1="78.6843" y1="11.8384" x2="15.1257" y2="83.3418" gradientUnits="userSpaceOnUse">
<stop stop-color="#FFCC00"/>
<stop offset="1" stop-color="#FF6633"/>
</linearGradient>
<linearGradient id="paint1_linear_32_1118" x1="78.6843" y1="11.8384" x2="15.1257" y2="83.3418" gradientUnits="userSpaceOnUse">
<stop stop-color="#FFCC00"/>
<stop offset="1" stop-color="#FF6633"/>
</linearGradient>
</defs>
</svg>
