<svg width="86" height="87" viewBox="0 0 86 87" fill="none" xmlns="http://www.w3.org/2000/svg">
<path d="M55.205 30.8221C54.435 30.8221 53.815 31.4422 53.815 32.2122V52.0322C53.815 52.8022 53.195 53.4221 52.425 53.4221H12.385C11.615 53.4221 10.995 54.0422 10.995 54.8122V63.2222C10.995 63.9922 11.615 64.6122 12.385 64.6122H14.495C15.185 64.6122 15.765 64.0922 15.865 63.4022C16.455 59.2122 20.035 55.9821 24.375 55.9821C28.715 55.9821 32.305 59.2122 32.885 63.4022C32.985 64.0922 33.555 64.6122 34.255 64.6122H55.145C55.145 59.8522 58.995 55.9821 63.735 55.9821C68.075 55.9821 71.665 59.2122 72.245 63.4022C72.345 64.0922 72.915 64.6122 73.615 64.6122C74.385 64.6122 75.005 63.9922 75.005 63.2222V42.1321C75.005 41.7621 74.865 41.4122 74.605 41.1522L64.825 31.2321C64.565 30.9721 64.205 30.8221 63.835 30.8221H55.205ZM69.705 46.2422H58.525C57.755 46.2422 57.135 45.6221 57.135 44.8521V35.9121C57.135 35.1421 57.755 34.5222 58.525 34.5222H63.535C63.905 34.5222 64.265 34.6722 64.525 34.9322L70.695 41.1922C70.955 41.4522 71.095 41.8021 71.095 42.1721V44.8521C71.095 45.6221 70.475 46.2422 69.705 46.2422Z" fill="url(#paint0_linear_32_1508)"/>
<path fill-rule="evenodd" clip-rule="evenodd" d="M31.185 64.6222C31.185 68.3943 28.1361 71.4521 24.375 71.4521C20.6139 71.4521 17.565 68.3943 17.565 64.6222C17.565 60.8501 20.6139 57.7921 24.375 57.7921C28.1361 57.7921 31.185 60.8501 31.185 64.6222ZM27.315 64.6222C27.315 66.2514 25.9987 67.5721 24.375 67.5721C22.7513 67.5721 21.435 66.2514 21.435 64.6222C21.435 62.9929 22.7513 61.6721 24.375 61.6721C25.9987 61.6721 27.315 62.9929 27.315 64.6222Z" fill="url(#paint1_linear_32_1508)"/>
<path fill-rule="evenodd" clip-rule="evenodd" d="M70.545 64.6222C70.545 68.3943 67.4961 71.4521 63.735 71.4521C59.974 71.4521 56.925 68.3943 56.925 64.6222C56.925 60.8501 59.974 57.7921 63.735 57.7921C67.4961 57.7921 70.545 60.8501 70.545 64.6222ZM66.675 64.6222C66.675 66.2514 65.3587 67.5721 63.735 67.5721C62.1113 67.5721 60.795 66.2514 60.795 64.6222C60.795 62.9929 62.1113 61.6721 63.735 61.6721C65.3587 61.6721 66.675 62.9929 66.675 64.6222Z" fill="url(#paint2_linear_32_1508)"/>
<path d="M50.105 16.4521H12.245C11.555 16.4521 10.995 17.0121 10.995 17.7021V49.7122C10.995 50.4022 11.555 50.9622 12.245 50.9622H50.105C50.795 50.9622 51.355 50.4022 51.355 49.7122V17.7021C51.355 17.0121 50.795 16.4521 50.105 16.4521ZM31.175 46.7021C24.545 46.7021 18.175 40.3321 18.175 33.7021C18.175 27.0721 24.545 20.7021 31.175 20.7021C37.805 20.7021 44.175 27.0721 44.175 33.7021C44.175 40.3321 37.805 46.7021 31.175 46.7021Z" fill="url(#paint3_linear_32_1508)"/>
<path d="M31.175 38.3722C31.175 38.3722 31.185 38.4022 31.205 38.4022C33.785 38.3822 35.875 36.2921 35.875 33.7021C35.875 31.1121 33.775 29.0022 31.175 29.0022V29.0322C31.175 29.0322 31.165 29.0022 31.145 29.0022C28.565 29.0222 26.475 31.1121 26.475 33.7021C26.475 36.2921 28.575 38.4022 31.175 38.4022V38.3722Z" fill="url(#paint4_linear_32_1508)"/>
<path d="M25.225 31.2622C25.165 31.1422 25.055 31.0522 24.925 31.0122L22.785 30.3122C22.655 30.2722 22.515 30.2822 22.395 30.3422C22.275 30.4022 22.185 30.5122 22.145 30.6422C22.105 30.7722 22.115 30.9122 22.175 31.0322C22.235 31.1522 22.345 31.2422 22.475 31.2822L24.615 31.9822C24.665 32.0022 24.725 32.0122 24.775 32.0122C24.995 32.0122 25.195 31.8722 25.265 31.6522C25.305 31.5222 25.295 31.3822 25.235 31.2622H25.225Z" fill="url(#paint5_linear_32_1508)"/>
<path d="M26.385 26.0222C26.225 25.7922 25.895 25.7421 25.665 25.9121C25.435 26.0821 25.385 26.4021 25.555 26.6321L26.875 28.4622C26.975 28.5922 27.125 28.6722 27.285 28.6722C27.395 28.6722 27.495 28.6421 27.585 28.5721C27.695 28.4921 27.765 28.3722 27.795 28.2422C27.815 28.1022 27.785 27.9722 27.705 27.8622L26.385 26.0322V26.0222Z" fill="url(#paint6_linear_32_1508)"/>
<path d="M25.185 35.5322C25.095 35.2622 24.805 35.1122 24.535 35.2022L22.395 35.9022C22.125 35.9922 21.975 36.2822 22.065 36.5522C22.135 36.7622 22.325 36.9022 22.555 36.9022C22.605 36.9022 22.665 36.9022 22.715 36.8722L24.855 36.1722C25.125 36.0822 25.275 35.7922 25.185 35.5222V35.5322Z" fill="url(#paint7_linear_32_1508)"/>
<path d="M31.175 24.1522C30.895 24.1522 30.665 24.3821 30.665 24.6621V26.9322C30.665 27.2122 30.895 27.4422 31.175 27.4422C31.455 27.4422 31.685 27.2122 31.685 26.9322V24.6621C31.685 24.3821 31.455 24.1522 31.165 24.1522H31.175Z" fill="url(#paint8_linear_32_1508)"/>
<path d="M36.885 26.0421C36.655 25.8821 36.325 25.9421 36.175 26.1621L34.855 27.9822C34.775 28.0922 34.745 28.2322 34.765 28.3622C34.785 28.5022 34.855 28.6122 34.965 28.6922C35.055 28.7522 35.155 28.7921 35.265 28.7921C35.295 28.7921 35.315 28.7921 35.345 28.7921C35.475 28.7721 35.595 28.7022 35.675 28.5822L36.995 26.7622C37.165 26.5322 37.115 26.2121 36.875 26.0421H36.885Z" fill="url(#paint9_linear_32_1508)"/>
<path d="M27.015 38.6222C26.885 38.6422 26.765 38.7121 26.685 38.8321L25.365 40.6521C25.285 40.7621 25.255 40.9022 25.275 41.0322C25.295 41.1722 25.365 41.2821 25.475 41.3621C25.565 41.4221 25.665 41.4621 25.775 41.4621C25.935 41.4621 26.095 41.3822 26.195 41.2522L27.525 39.4221C27.685 39.1921 27.635 38.8721 27.405 38.7021C27.295 38.6221 27.165 38.5921 27.025 38.6121L27.015 38.6222Z" fill="url(#paint10_linear_32_1508)"/>
<path d="M39.885 36.1321L37.745 35.4322C37.495 35.3522 37.185 35.4921 37.095 35.7621C37.005 36.0321 37.155 36.3221 37.425 36.4121L39.565 37.1121C39.615 37.1321 39.665 37.1321 39.725 37.1321C39.945 37.1321 40.145 36.9921 40.215 36.7721C40.255 36.6421 40.245 36.5021 40.185 36.3821C40.125 36.2621 40.015 36.1721 39.885 36.1321Z" fill="url(#paint11_linear_32_1508)"/>
<path d="M40.285 30.8722C40.205 30.6122 39.905 30.4522 39.635 30.5422L37.495 31.2422C37.225 31.3322 37.075 31.6222 37.165 31.8922C37.205 32.0222 37.295 32.1322 37.425 32.1922C37.495 32.2322 37.575 32.2522 37.655 32.2522C37.705 32.2522 37.765 32.2522 37.815 32.2222L39.955 31.5222C40.085 31.4822 40.195 31.3922 40.255 31.2622C40.315 31.1322 40.325 31.0022 40.285 30.8722Z" fill="url(#paint12_linear_32_1508)"/>
<path d="M31.185 39.9821C30.905 39.9821 30.675 40.2122 30.675 40.4922V42.7621C30.675 43.0421 30.905 43.2722 31.195 43.2722C31.485 43.2722 31.705 43.0421 31.705 42.7621V40.4922C31.705 40.2122 31.475 39.9821 31.195 39.9821H31.185Z" fill="url(#paint13_linear_32_1508)"/>
<path d="M35.475 38.9621C35.315 38.7421 34.985 38.6821 34.755 38.8521C34.525 39.0221 34.475 39.3421 34.645 39.5721L35.975 41.4022C36.075 41.5422 36.235 41.6121 36.395 41.6121C36.495 41.6121 36.605 41.5821 36.695 41.5121C36.805 41.4321 36.875 41.3121 36.905 41.1821C36.925 41.0421 36.895 40.9121 36.815 40.8021L35.495 38.9722L35.475 38.9621Z" fill="url(#paint14_linear_32_1508)"/>
<defs>
<linearGradient id="paint0_linear_32_1508" x1="75.005" y1="16.4521" x2="20.6319" y2="79.7326" gradientUnits="userSpaceOnUse">
<stop stop-color="#FFCC00"/>
<stop offset="1" stop-color="#FF6633"/>
</linearGradient>
<linearGradient id="paint1_linear_32_1508" x1="75.005" y1="16.4521" x2="20.6319" y2="79.7326" gradientUnits="userSpaceOnUse">
<stop stop-color="#FFCC00"/>
<stop offset="1" stop-color="#FF6633"/>
</linearGradient>
<linearGradient id="paint2_linear_32_1508" x1="75.005" y1="16.4521" x2="20.6319" y2="79.7326" gradientUnits="userSpaceOnUse">
<stop stop-color="#FFCC00"/>
<stop offset="1" stop-color="#FF6633"/>
</linearGradient>
<linearGradient id="paint3_linear_32_1508" x1="75.005" y1="16.4521" x2="20.6319" y2="79.7326" gradientUnits="userSpaceOnUse">
<stop stop-color="#FFCC00"/>
<stop offset="1" stop-color="#FF6633"/>
</linearGradient>
<linearGradient id="paint4_linear_32_1508" x1="75.005" y1="16.4521" x2="20.6319" y2="79.7326" gradientUnits="userSpaceOnUse">
<stop stop-color="#FFCC00"/>
<stop offset="1" stop-color="#FF6633"/>
</linearGradient>
<linearGradient id="paint5_linear_32_1508" x1="75.005" y1="16.4521" x2="20.6319" y2="79.7326" gradientUnits="userSpaceOnUse">
<stop stop-color="#FFCC00"/>
<stop offset="1" stop-color="#FF6633"/>
</linearGradient>
<linearGradient id="paint6_linear_32_1508" x1="75.005" y1="16.4521" x2="20.6319" y2="79.7326" gradientUnits="userSpaceOnUse">
<stop stop-color="#FFCC00"/>
<stop offset="1" stop-color="#FF6633"/>
</linearGradient>
<linearGradient id="paint7_linear_32_1508" x1="75.005" y1="16.4521" x2="20.6319" y2="79.7326" gradientUnits="userSpaceOnUse">
<stop stop-color="#FFCC00"/>
<stop offset="1" stop-color="#FF6633"/>
</linearGradient>
<linearGradient id="paint8_linear_32_1508" x1="75.005" y1="16.4521" x2="20.6319" y2="79.7326" gradientUnits="userSpaceOnUse">
<stop stop-color="#FFCC00"/>
<stop offset="1" stop-color="#FF6633"/>
</linearGradient>
<linearGradient id="paint9_linear_32_1508" x1="75.005" y1="16.4521" x2="20.6319" y2="79.7326" gradientUnits="userSpaceOnUse">
<stop stop-color="#FFCC00"/>
<stop offset="1" stop-color="#FF6633"/>
</linearGradient>
<linearGradient id="paint10_linear_32_1508" x1="75.005" y1="16.4521" x2="20.6319" y2="79.7326" gradientUnits="userSpaceOnUse">
<stop stop-color="#FFCC00"/>
<stop offset="1" stop-color="#FF6633"/>
</linearGradient>
<linearGradient id="paint11_linear_32_1508" x1="75.005" y1="16.4521" x2="20.6319" y2="79.7326" gradientUnits="userSpaceOnUse">
<stop stop-color="#FFCC00"/>
<stop offset="1" stop-color="#FF6633"/>
</linearGradient>
<linearGradient id="paint12_linear_32_1508" x1="75.005" y1="16.4521" x2="20.6319" y2="79.7326" gradientUnits="userSpaceOnUse">
<stop stop-color="#FFCC00"/>
<stop offset="1" stop-color="#FF6633"/>
</linearGradient>
<linearGradient id="paint13_linear_32_1508" x1="75.005" y1="16.4521" x2="20.6319" y2="79.7326" gradientUnits="userSpaceOnUse">
<stop stop-color="#FFCC00"/>
<stop offset="1" stop-color="#FF6633"/>
</linearGradient>
<linearGradient id="paint14_linear_32_1508" x1="75.005" y1="16.4521" x2="20.6319" y2="79.7326" gradientUnits="userSpaceOnUse">
<stop stop-color="#FFCC00"/>
<stop offset="1" stop-color="#FF6633"/>
</linearGradient>
</defs>
</svg>
