<svg width="212" height="186" viewBox="0 0 212 186" fill="none" xmlns="http://www.w3.org/2000/svg">
<path d="M67.7298 158.837C45.775 142.359 32.6883 116.212 32.6883 88.8626C32.6883 88.8626 32.6883 52.4164 32.6883 40.1437C32.6883 38.1698 30.7654 36.7967 28.8713 37.3974L8.66709 43.9486C3.50125 45.6365 0 50.4139 0 55.8208V108.373C0 131.374 10.8483 153.058 29.3305 166.904L51.3427 183.411C55.8197 186.787 62.0187 186.787 66.4958 183.411L80.4148 172.941C81.9645 171.768 81.9645 169.479 80.4148 168.306L67.7298 158.78V158.837Z" fill="white"/>
<path d="M203.333 43.9486L183.129 37.3974C181.235 36.7967 179.312 38.1698 179.312 40.1437C179.312 52.4164 179.312 88.8626 179.312 88.8626C179.312 116.212 166.225 142.359 144.27 158.837L131.585 168.363C130.035 169.536 130.035 171.825 131.585 172.998L145.504 183.468C149.981 186.844 156.18 186.844 160.657 183.468L182.67 166.962C201.123 153.087 212 131.431 212 108.43V55.878C212 50.4711 208.499 45.665 203.333 44.0058V43.9486Z" fill="white"/>
<path d="M159.768 16.7426L110.176 0.665129C107.478 -0.22171 104.551 -0.22171 101.824 0.665129L52.2323 16.7426C46.6934 18.5449 42.9338 23.6657 42.9338 29.4731V85.7158C42.9338 110.347 54.5569 133.548 74.3306 148.367L97.8926 166.046C102.685 169.651 109.315 169.651 114.108 166.046L137.669 148.367C157.443 133.519 169.066 110.318 169.066 85.7158V29.4731C169.066 23.6943 165.307 18.5449 159.768 16.7426ZM106.014 118.872C81.3619 118.872 61.3586 98.9611 61.3586 74.3585C61.3586 49.7559 81.3332 29.845 106.014 29.845C130.696 29.845 150.67 49.7559 150.67 74.3585C150.67 98.9611 130.696 118.872 106.014 118.872Z" fill="white"/>
<path d="M134.139 58.5957L127.94 52.4164C127.453 51.9301 126.706 51.9301 126.219 52.4164L98.6387 79.9085C98.1508 80.3948 97.4046 80.3948 96.9167 79.9085L87.9913 71.0114C87.5035 70.5251 86.7573 70.5251 86.2694 71.0114L80.0704 77.1907C79.5825 77.677 79.5825 78.4208 80.0704 78.9072L96.9167 95.6999C97.4046 96.1862 98.1508 96.1862 98.6387 95.6999L134.139 60.3122C134.627 59.8259 134.627 59.082 134.139 58.5957Z" fill="white"/>
</svg>
