<svg width="86" height="87" viewBox="0 0 86 87" fill="none" xmlns="http://www.w3.org/2000/svg">
<path d="M38.4111 59.0353C38.4111 59.5965 37.9385 60.0396 37.3773 60.01C28.5748 59.4685 21.6038 52.1528 21.6038 43.2026C21.6038 34.2524 28.5748 26.9367 37.3773 26.3952C37.9385 26.3657 38.4111 26.8087 38.4111 27.37V59.0353Z" fill="url(#paint0_linear_32_1481)"/>
<path d="M37.5841 22.7521C37.1312 22.7521 36.757 22.378 36.757 21.925V14.8456C36.757 14.3927 37.1312 14.0186 37.5841 14.0186C38.037 14.0186 38.4111 14.3927 38.4111 14.8456V21.925C38.4111 22.378 38.037 22.7521 37.5841 22.7521Z" fill="url(#paint1_linear_32_1481)"/>
<path d="M37.5841 72.3867C37.1312 72.3867 36.757 72.0125 36.757 71.5596V64.4802C36.757 64.0273 37.1312 63.6531 37.5841 63.6531C38.037 63.6531 38.4111 64.0273 38.4111 64.4802V71.5596C38.4111 72.0125 38.037 72.3867 37.5841 72.3867Z" fill="url(#paint2_linear_32_1481)"/>
<path d="M30.2979 67.8279C30.2093 67.8279 30.1305 67.818 30.0419 67.7885C29.6086 67.6507 29.3723 67.178 29.5102 66.7448L30.7016 63.0722C30.8394 62.639 31.3022 62.4026 31.7453 62.5405C32.1785 62.6783 32.4148 63.151 32.277 63.5842L31.0856 67.2568C30.9674 67.6014 30.6523 67.8279 30.2979 67.8279Z" fill="url(#paint3_linear_32_1481)"/>
<path d="M21.4659 66.7448C21.2985 66.7448 21.1312 66.6956 20.9835 66.5873C20.6192 66.3214 20.5305 65.7996 20.7964 65.4353L24.9514 59.7146C25.2173 59.3503 25.7293 59.2617 26.1034 59.5276C26.4677 59.7934 26.5564 60.3153 26.2905 60.6796L22.1355 66.4002C21.9779 66.6266 21.7219 66.7448 21.4659 66.7448Z" fill="url(#paint4_linear_32_1481)"/>
<path d="M17.8819 58.5036C17.6259 58.5036 17.3798 58.3854 17.2124 58.1589C16.9465 57.7946 17.0253 57.2728 17.3995 57.0069L20.5207 54.7325C20.885 54.4666 21.4068 54.5454 21.6727 54.9196C21.9385 55.2839 21.8597 55.8057 21.4856 56.0716L18.3644 58.346C18.2167 58.4543 18.0493 58.5036 17.8819 58.5036Z" fill="url(#paint5_linear_32_1481)"/>
<path d="M11.3637 52.4285C11.0191 52.4285 10.6942 52.202 10.576 51.8574C10.4382 51.4242 10.6745 50.9614 11.1077 50.8137L17.8228 48.6279C18.256 48.49 18.7188 48.7263 18.8665 49.1595C19.0043 49.5928 18.768 50.0555 18.3348 50.2032L11.6197 52.3891C11.5311 52.4186 11.4523 52.4285 11.3637 52.4285Z" fill="url(#paint6_linear_32_1481)"/>
<path d="M17.1631 43.6555H13.3034C12.8505 43.6555 12.4764 43.2814 12.4764 42.8285C12.4764 42.3755 12.8406 42.0014 13.3034 42.0014H17.1631C17.6161 42.0014 17.9902 42.3755 17.9902 42.8285C17.9902 43.2814 17.6259 43.6555 17.1631 43.6555Z" fill="url(#paint7_linear_32_1481)"/>
<path d="M18.3151 37.098C18.2265 37.098 18.1477 37.0881 18.0591 37.0586L11.344 34.8727C10.9108 34.7349 10.6745 34.2623 10.8123 33.8291C10.9502 33.3958 11.4228 33.1595 11.856 33.2974L18.5711 35.4832C19.0043 35.6211 19.2406 36.0937 19.1028 36.5269C18.9846 36.8715 18.6696 37.098 18.3151 37.098Z" fill="url(#paint8_linear_32_1481)"/>
<path d="M21.4462 31.2198C21.2788 31.2198 21.1114 31.1706 20.9638 31.0623L17.8425 28.7878C17.4782 28.522 17.3896 28.0001 17.6555 27.6358C17.9213 27.2715 18.4333 27.1829 18.8074 27.4487L21.9287 29.7232C22.293 29.989 22.3816 30.5109 22.1157 30.8752C21.9582 31.1017 21.7022 31.2198 21.4462 31.2198Z" fill="url(#paint9_linear_32_1481)"/>
<path d="M26.2315 26.5921C25.9755 26.5921 25.7293 26.474 25.5619 26.2475L21.4069 20.5269C21.141 20.1626 21.2198 19.6407 21.5939 19.3749C21.9681 19.109 22.4801 19.1878 22.7459 19.562L26.901 25.2826C27.1668 25.6469 27.0881 26.1687 26.7139 26.4346C26.5662 26.5429 26.3988 26.5921 26.2315 26.5921Z" fill="url(#paint10_linear_32_1481)"/>
<path d="M32.2081 23.6776C31.8635 23.6776 31.5386 23.4512 31.4204 23.1066L30.229 19.4339C30.0912 19.0007 30.3275 18.5379 30.7607 18.3903C31.194 18.2524 31.6567 18.4887 31.8044 18.9219L32.9958 22.5946C33.1336 23.0278 32.8973 23.4906 32.4641 23.6383C32.3755 23.6678 32.2967 23.6776 32.2081 23.6776Z" fill="url(#paint11_linear_32_1481)"/>
<path d="M63.6962 16.2832C64.1392 16.2832 64.5035 16.6475 64.5035 17.0906V21.0783H69.4069C71.0119 21.0783 72.3214 22.3878 72.3214 23.9927V67.2371C72.3214 68.842 71.0119 70.1614 69.4069 70.1614H46.0419C44.437 70.1614 43.1275 68.8519 43.1275 67.2371V23.9927C43.1275 22.3878 44.437 21.0783 46.0419 21.0783H50.9454V17.0906C50.9454 16.6475 51.3097 16.2832 51.7527 16.2832H63.6962ZM63.6863 14.0678H51.7527C50.0789 14.0678 48.73 15.4266 48.73 17.1004V18.8727H46.0419C43.2062 18.8727 40.9121 21.1767 40.9121 24.0124V67.2568C40.9121 70.0925 43.2062 72.3965 46.0419 72.3965H69.4069C72.2426 72.3965 74.5367 70.0925 74.5367 67.2568V23.9927C74.5367 21.157 72.2426 18.853 69.4069 18.853H66.7189V17.0807C66.7189 15.4069 65.3602 14.0481 63.6962 14.0481L63.6863 14.0678Z" fill="url(#paint12_linear_32_1481)"/>
<path d="M67.6149 54.5159H47.8438C46.6257 54.5159 45.6383 55.5033 45.6383 56.7214V65.455C45.6383 66.673 46.6257 67.6605 47.8438 67.6605H67.6149C68.833 67.6605 69.8204 66.673 69.8204 65.455V56.7214C69.8204 55.5033 68.833 54.5159 67.6149 54.5159Z" fill="url(#paint13_linear_32_1481)"/>
<path d="M67.6149 39.2346H47.8438C46.6257 39.2346 45.6383 40.2221 45.6383 41.4401V49.8094C45.6383 51.0275 46.6257 52.0149 47.8438 52.0149H67.6149C68.833 52.0149 69.8204 51.0275 69.8204 49.8094V41.4401C69.8204 40.2221 68.833 39.2346 67.6149 39.2346Z" fill="url(#paint14_linear_32_1481)"/>
<path d="M67.6149 23.9533H47.8438C46.6257 23.9533 45.6383 24.9408 45.6383 26.1589V34.5281C45.6383 35.7462 46.6257 36.7337 47.8438 36.7337H67.6149C68.833 36.7337 69.8204 35.7462 69.8204 34.5281V26.1589C69.8204 24.9408 68.833 23.9533 67.6149 23.9533Z" fill="url(#paint15_linear_32_1481)"/>
<defs>
<linearGradient id="paint0_linear_32_1481" x1="74.5367" y1="14.0186" x2="16.4047" y2="77.749" gradientUnits="userSpaceOnUse">
<stop stop-color="#FFCC00"/>
<stop offset="1" stop-color="#FF6633"/>
</linearGradient>
<linearGradient id="paint1_linear_32_1481" x1="74.5367" y1="14.0186" x2="16.4047" y2="77.749" gradientUnits="userSpaceOnUse">
<stop stop-color="#FFCC00"/>
<stop offset="1" stop-color="#FF6633"/>
</linearGradient>
<linearGradient id="paint2_linear_32_1481" x1="74.5367" y1="14.0186" x2="16.4047" y2="77.749" gradientUnits="userSpaceOnUse">
<stop stop-color="#FFCC00"/>
<stop offset="1" stop-color="#FF6633"/>
</linearGradient>
<linearGradient id="paint3_linear_32_1481" x1="74.5367" y1="14.0186" x2="16.4047" y2="77.749" gradientUnits="userSpaceOnUse">
<stop stop-color="#FFCC00"/>
<stop offset="1" stop-color="#FF6633"/>
</linearGradient>
<linearGradient id="paint4_linear_32_1481" x1="74.5367" y1="14.0186" x2="16.4047" y2="77.749" gradientUnits="userSpaceOnUse">
<stop stop-color="#FFCC00"/>
<stop offset="1" stop-color="#FF6633"/>
</linearGradient>
<linearGradient id="paint5_linear_32_1481" x1="74.5367" y1="14.0186" x2="16.4047" y2="77.749" gradientUnits="userSpaceOnUse">
<stop stop-color="#FFCC00"/>
<stop offset="1" stop-color="#FF6633"/>
</linearGradient>
<linearGradient id="paint6_linear_32_1481" x1="74.5367" y1="14.0186" x2="16.4047" y2="77.749" gradientUnits="userSpaceOnUse">
<stop stop-color="#FFCC00"/>
<stop offset="1" stop-color="#FF6633"/>
</linearGradient>
<linearGradient id="paint7_linear_32_1481" x1="74.5367" y1="14.0186" x2="16.4047" y2="77.749" gradientUnits="userSpaceOnUse">
<stop stop-color="#FFCC00"/>
<stop offset="1" stop-color="#FF6633"/>
</linearGradient>
<linearGradient id="paint8_linear_32_1481" x1="74.5367" y1="14.0186" x2="16.4047" y2="77.749" gradientUnits="userSpaceOnUse">
<stop stop-color="#FFCC00"/>
<stop offset="1" stop-color="#FF6633"/>
</linearGradient>
<linearGradient id="paint9_linear_32_1481" x1="74.5367" y1="14.0186" x2="16.4047" y2="77.749" gradientUnits="userSpaceOnUse">
<stop stop-color="#FFCC00"/>
<stop offset="1" stop-color="#FF6633"/>
</linearGradient>
<linearGradient id="paint10_linear_32_1481" x1="74.5367" y1="14.0186" x2="16.4047" y2="77.749" gradientUnits="userSpaceOnUse">
<stop stop-color="#FFCC00"/>
<stop offset="1" stop-color="#FF6633"/>
</linearGradient>
<linearGradient id="paint11_linear_32_1481" x1="74.5367" y1="14.0186" x2="16.4047" y2="77.749" gradientUnits="userSpaceOnUse">
<stop stop-color="#FFCC00"/>
<stop offset="1" stop-color="#FF6633"/>
</linearGradient>
<linearGradient id="paint12_linear_32_1481" x1="74.5367" y1="14.0186" x2="16.4047" y2="77.749" gradientUnits="userSpaceOnUse">
<stop stop-color="#FFCC00"/>
<stop offset="1" stop-color="#FF6633"/>
</linearGradient>
<linearGradient id="paint13_linear_32_1481" x1="74.5367" y1="14.0186" x2="16.4047" y2="77.749" gradientUnits="userSpaceOnUse">
<stop stop-color="#FFCC00"/>
<stop offset="1" stop-color="#FF6633"/>
</linearGradient>
<linearGradient id="paint14_linear_32_1481" x1="74.5367" y1="14.0186" x2="16.4047" y2="77.749" gradientUnits="userSpaceOnUse">
<stop stop-color="#FFCC00"/>
<stop offset="1" stop-color="#FF6633"/>
</linearGradient>
<linearGradient id="paint15_linear_32_1481" x1="74.5367" y1="14.0186" x2="16.4047" y2="77.749" gradientUnits="userSpaceOnUse">
<stop stop-color="#FFCC00"/>
<stop offset="1" stop-color="#FF6633"/>
</linearGradient>
</defs>
</svg>
