<svg width="86" height="86" viewBox="0 0 86 86" fill="none" xmlns="http://www.w3.org/2000/svg">
<path fill-rule="evenodd" clip-rule="evenodd" d="M54.9118 10.7586C53.9429 9.04371 52.7643 7.95199 50.3924 9.15578C50.1723 9.98738 49.974 10.7378 49.7558 11.5677C51.2872 12.1113 52.7421 12.6269 54.2703 13.1684C54.3728 12.7836 54.4713 12.4151 54.5698 12.0465C54.6825 11.6253 54.7951 11.2041 54.9135 10.7587L54.9118 10.7586ZM50.6044 13.175L50.6042 13.1749C50.0402 12.9432 49.4888 12.7167 49.3832 12.6773C48.6822 15.3395 47.9832 17.993 47.2844 20.6456L47.2839 20.6476L47.2758 20.6782C46.4015 23.9969 45.5276 27.3143 44.6505 30.6459C44.7644 30.685 45.3745 30.9335 45.9707 31.1763L45.9708 31.1764L45.971 31.1765L45.9725 31.177L45.9727 31.1771L45.9728 31.1772L45.9729 31.1772L45.9747 31.178C46.5398 31.4081 47.0912 31.6327 47.1944 31.6684C48.7756 25.6629 50.3444 19.7051 51.9228 13.712C51.8074 13.6692 51.1994 13.4194 50.6052 13.1753L50.6044 13.175ZM77.398 50.0013L63.285 17.1136C63.0047 16.4589 62.9623 16.4428 62.3697 16.7401C61.6006 17.1271 60.8335 17.5187 60.0665 17.9102C58.1768 18.8749 56.2876 19.8394 54.3702 20.733C53.3564 21.2048 52.8489 21.8737 52.5665 23.052C51.7905 26.2878 50.9189 29.4938 50.0477 32.6983L49.8606 33.3867C49.7277 33.8755 49.4321 34.3201 49.1538 34.7374C49.0403 34.9084 48.8936 35.0511 48.7467 35.194C48.6204 35.317 48.4939 35.4401 48.3881 35.5815C47.9763 36.1323 47.5757 36.6947 47.1749 37.2572C46.9798 37.5311 46.7847 37.805 46.5882 38.0776C46.1232 38.7212 45.556 38.9539 44.9698 38.7267C44.3087 38.4699 44.0347 37.9023 43.9759 37.1703C43.8834 36.035 43.789 34.9013 43.6861 33.7687C43.6619 33.5123 43.6358 33.2395 43.5407 33.0079C43.3035 32.4217 43.318 31.86 43.478 31.267C43.8342 29.9562 44.1767 28.6401 44.5191 27.3246C44.6206 26.9346 44.7221 26.5447 44.8239 26.155C44.8531 26.0419 44.8779 25.9277 44.9064 25.7962C44.9237 25.7162 44.9425 25.6298 44.9644 25.5333L40.0041 28.0304C34.0348 31.0355 28.1005 34.0229 22.1251 37.0324C22.2434 37.3092 22.3379 37.5281 22.4323 37.747C23.3862 39.9704 24.3403 42.1935 25.2944 44.4165L25.3162 44.4673L25.3204 44.4771C26.8928 48.1408 28.4651 51.8044 30.036 55.4685L30.0547 55.5121C30.15 55.7354 30.2464 55.9609 30.3154 56.1953C30.6478 57.2963 30.2823 58.3613 29.3729 58.8905C28.9033 59.1637 28.4147 59.4011 27.9264 59.635C23.866 61.5831 22.7672 67.2027 26.0839 71.2951C28.0433 73.7145 30.9721 74.2709 33.7239 72.8838C40.8525 69.2955 47.9808 65.7067 55.109 62.1178L55.1795 62.0824L55.2502 62.0468L55.3212 62.011L55.3924 61.9752C62.6181 58.3373 69.8437 54.6995 77.0698 51.0621C77.652 50.7693 77.6854 50.671 77.3993 50.005L77.398 50.0013ZM49.935 37.909C49.9486 37.8668 49.9671 37.8251 49.9903 37.7891C50.0252 37.7324 50.0696 37.6838 50.1232 37.6449C50.1411 37.632 50.1605 37.6209 50.1799 37.6099L61.717 31.548C61.7751 31.5168 61.8386 31.5004 61.9011 31.4965C62.0058 31.4908 62.1092 31.521 62.1961 31.5877L68.677 36.5393L68.6803 36.5395C68.7516 36.5924 68.8136 36.6552 68.865 36.7244C68.9164 36.7936 68.9574 36.8674 68.9895 36.9458C69.0174 37.0149 69.0367 37.0869 69.0493 37.1583C69.0585 37.2096 69.0643 37.2606 69.0652 37.3112C69.0668 37.3528 69.065 37.3941 69.0615 37.4372C69.0545 37.5214 69.0377 37.603 69.011 37.682C68.9975 37.7223 68.9826 37.7608 68.9643 37.799C68.8764 37.9884 68.7298 38.1549 68.5279 38.259L67.4825 38.8076L61.1427 42.1404L51.8809 47.0085L50.8407 47.5557C50.8002 47.5776 50.7602 47.5942 50.7186 47.6088C50.2301 47.7848 49.7192 47.5008 49.5526 47.0161C49.524 46.9343 49.506 46.848 49.5 46.7573C49.4971 46.712 49.4959 46.665 49.4981 46.6182L49.8128 40.1164L49.912 38.0442C49.9157 37.9994 49.9228 37.9549 49.9348 37.9108L49.935 37.909ZM44.3745 49.6547C45.0606 49.2839 45.7568 48.9338 46.46 48.6005C46.9551 48.3654 47.3747 48.5553 47.651 49.096C47.7226 49.2367 47.785 49.384 47.8475 49.5315L47.8475 49.5316C47.872 49.5894 47.8965 49.6473 47.9216 49.7048C47.9762 49.8295 48.0293 49.954 48.0824 50.0786L48.0833 50.0806L48.1247 50.1777L48.1625 50.266C48.1609 50.2659 48.159 50.2675 48.1572 50.2692C48.2083 50.3884 48.2609 50.507 48.3135 50.6257C48.4333 50.8963 48.5533 51.1672 48.6565 51.4454C48.8573 51.9835 48.7602 52.4265 48.3102 52.6852C47.5903 53.0983 46.8481 53.4753 46.0929 53.8079C45.62 54.0178 45.2355 53.8308 44.9913 53.309C44.6226 52.5243 44.2773 51.7216 43.9596 50.9105C43.7445 50.3622 43.9014 49.9079 44.3729 49.6528L44.3745 49.6547ZM43.0761 55.3499C42.407 55.7185 41.7264 56.0627 41.0318 56.3733C40.4942 56.6138 40.0743 56.4275 39.8051 55.8423C39.4559 55.0863 39.1278 54.3194 38.8241 53.5418C38.591 52.947 38.764 52.5012 39.2825 52.2067C39.3025 52.1951 39.3224 52.1852 39.3422 52.1752C39.3522 52.1702 39.3621 52.1652 39.3721 52.16C39.5238 52.0841 39.6751 52.0078 39.8264 51.9314C39.9777 51.8551 40.1289 51.7788 40.2805 51.7029C40.3873 51.6493 40.4935 51.5945 40.5997 51.5398C40.8247 51.4237 41.0497 51.3076 41.2799 51.2029C41.7969 50.9678 42.2233 51.0951 42.4903 51.6459C42.8678 52.4259 43.2078 53.2317 43.5169 54.0458C43.7364 54.6215 43.5766 55.0701 43.0746 55.3479L43.0761 55.3499ZM37.3691 35.9126C37.8519 35.6025 38.3712 35.3388 38.9045 35.1501C39.3096 35.0069 39.6601 35.2398 39.8511 35.694C40.0419 36.15 39.9452 36.5462 39.5994 36.8261C39.4458 36.951 39.2703 37.0443 39.0947 37.1376C39.0148 37.1801 38.9348 37.2226 38.8569 37.268L38.8427 37.2362C38.7741 37.271 38.7061 37.3079 38.6382 37.3448C38.4824 37.4294 38.3268 37.5139 38.1627 37.5732C37.7108 37.7343 37.2783 37.5379 37.0937 37.0878C36.9007 36.6172 36.9819 36.1638 37.369 35.9144L37.3691 35.9126ZM32.6137 38.2975C33.0824 37.9953 33.5892 37.7414 34.1056 37.5532C34.5526 37.3917 34.9593 37.6761 35.1201 38.1496C35.2903 38.6508 35.1228 39.0303 34.7499 39.2917C34.6074 39.3908 34.4499 39.4634 34.2923 39.536L34.2922 39.536L34.2922 39.536L34.2922 39.536L34.2921 39.5361L34.2921 39.5361L34.2921 39.5361L34.292 39.5361L34.292 39.5361L34.292 39.5362L34.2919 39.5362L34.2919 39.5362C34.2188 39.5699 34.1457 39.6036 34.074 39.6399C34.074 39.6399 34.0726 39.6362 34.0711 39.6343C34.0024 39.6691 33.9345 39.7063 33.8666 39.7435C33.7106 39.829 33.5545 39.9145 33.3894 39.9712C32.9555 40.1175 32.5908 39.9754 32.3529 39.5191C32.1282 39.0873 32.2071 38.5598 32.6136 38.2993L32.6137 38.2975ZM27.5745 41.8769C27.3735 41.402 27.4592 40.9562 27.8431 40.7029C28.3105 40.397 28.8168 40.1484 29.3321 39.9529C29.7624 39.79 30.1253 40.0149 30.3354 40.4816C30.5356 40.9258 30.4012 41.4126 29.9975 41.6805C29.8391 41.7863 29.6672 41.8661 29.4952 41.946C29.4219 41.9801 29.3485 42.0141 29.2762 42.0502L29.276 42.052C29.2106 42.085 29.1462 42.12 29.0818 42.1551C28.9373 42.2337 28.7932 42.3122 28.64 42.3656C28.1881 42.5249 27.7626 42.3255 27.573 41.875L27.5745 41.8769ZM28.7272 44.5398C28.4143 44.0159 28.5716 43.4155 29.1409 43.1162C29.8101 42.7639 30.4862 42.427 31.1619 42.0903C31.455 41.9443 31.748 41.7983 32.0403 41.6512L32.0404 41.6494C32.3278 41.5048 32.6151 41.3596 32.9025 41.2143L32.9047 41.2132L32.9049 41.2131L32.9052 41.213L32.9055 41.2128L32.9057 41.2127L32.906 41.2126C33.5539 40.8851 34.2022 40.5573 34.8532 40.2367C35.4735 39.9308 35.9552 40.0807 36.192 40.6308C36.4276 41.1753 36.2205 41.6868 35.6083 41.997C33.7365 42.9463 31.8632 43.8919 29.9857 44.828C29.437 45.102 28.9945 44.986 28.7287 44.5418L28.7272 44.5398ZM29.9772 47.2866C29.5734 46.9266 29.5505 46.2282 29.9406 45.86C30.0883 45.7206 30.2732 45.6187 30.4522 45.527C31.9148 44.7864 33.378 44.0507 34.8415 43.3148L35.8014 42.8321L35.8174 42.8241C35.9174 42.774 36.0191 42.7231 36.1229 42.6837C36.6513 42.4929 37.0623 42.6641 37.2768 43.16C37.4855 43.6428 37.3434 44.1416 36.8619 44.4157C36.4607 44.6452 36.0477 44.8505 35.6346 45.056L35.6345 45.056L35.6345 45.056L35.6344 45.056L35.6344 45.056L35.6344 45.0561L35.6343 45.0561L35.6343 45.0561L35.6342 45.0561L35.6342 45.0561L35.6341 45.0562L35.6339 45.0563C35.4713 45.1371 35.3086 45.218 35.1466 45.3003C34.8528 45.4491 34.5591 45.5969 34.2647 45.7451L34.2602 45.7474L34.2592 45.7479L33.8768 45.9404L33.877 45.9386L33.3672 46.195C32.6002 46.5806 31.8324 46.9665 31.0656 47.355C30.6955 47.5427 30.3263 47.5969 29.9755 47.2864L29.9772 47.2866ZM31.4328 49.9854C31.1838 49.8872 30.8782 49.5985 30.8207 49.3393C30.7569 49.0544 30.8913 48.6686 31.0415 48.3977C31.1266 48.2449 31.3154 48.157 31.4952 48.0734C31.5408 48.0522 31.5857 48.0313 31.6282 48.0096C33.6501 46.9889 35.6726 45.9707 37.6947 44.9528L37.6959 44.9522L37.6971 44.9516L37.6983 44.951L37.6994 44.9504L37.7006 44.9498L37.7018 44.9492L37.703 44.9486L37.7041 44.948L37.7053 44.9474L37.7065 44.9469L37.7077 44.9463L37.7159 44.9421C38.6039 44.4951 39.4919 44.0481 40.3798 43.6009C40.4049 43.5883 40.43 43.5753 40.4553 43.5623C40.5357 43.5208 40.6168 43.4789 40.6999 43.4487C41.2392 43.248 41.689 43.4386 41.8922 43.948C42.091 44.4498 41.9135 44.9493 41.3976 45.2133C40.3231 45.7635 39.2453 46.3047 38.168 46.8457L38.1677 46.8458L38.1674 46.846L38.1671 46.8461L38.1668 46.8463L38.1665 46.8464L38.1651 46.8471L38.1636 46.8479L38.162 46.8486C37.684 47.0887 37.2061 47.3287 36.7286 47.5694L36.7284 47.5712C36.3438 47.7647 35.9593 47.9589 35.5748 48.1531L35.5747 48.1531L35.5746 48.1532L35.5745 48.1532L35.5744 48.1533L35.5743 48.1533L35.5742 48.1534L35.5741 48.1534L35.574 48.1535L35.5739 48.1535L35.5738 48.1536L35.5737 48.1536C34.4474 48.7224 33.3208 49.2914 32.1889 49.8459C31.9577 49.9585 31.6459 50.0698 31.4312 49.9835L31.4328 49.9854ZM32.9682 52.532C32.5202 52.6646 32.0915 52.4432 31.9098 51.9988C31.7281 51.5543 31.8625 51.0675 32.2582 50.7953C32.3685 50.7195 32.4878 50.6612 32.6068 50.6029L32.6532 50.5802L32.705 50.5544C34.3579 49.7216 36.0124 48.8889 37.6669 48.0563L37.6909 48.0442L37.7226 48.0282C39.3746 47.1968 41.0266 46.3655 42.6768 45.5357C42.7118 45.5181 42.7467 45.4999 42.7816 45.4816L42.7816 45.4816L42.7817 45.4816C42.8971 45.4213 43.0129 45.3608 43.1349 45.3211C43.5719 45.1786 43.9319 45.3167 44.1715 45.7713C44.4038 46.2146 44.3082 46.6992 43.9287 46.9998C43.8165 47.0893 43.6874 47.1531 43.5594 47.2163L43.5138 47.2389L43.4876 47.252L33.3805 52.3424C33.355 52.3553 33.3295 52.3685 33.3039 52.3817C33.1939 52.4386 33.0826 52.4961 32.9665 52.5319L32.9682 52.532ZM34.6979 58.4977C34.3329 57.7096 33.9821 56.912 33.6697 56.0976C33.4469 55.5199 33.6221 55.0887 34.1242 54.8091C34.3472 54.6844 34.5762 54.5721 34.8048 54.4599L34.8048 54.4599C34.9105 54.4081 35.016 54.3563 35.1207 54.3034L35.1204 54.307C35.2312 54.2512 35.3413 54.1937 35.4514 54.1362L35.4515 54.1361C35.7023 54.0051 35.9529 53.8742 36.2108 53.7639C36.6742 53.5659 37.0962 53.7272 37.3288 54.2264C37.7026 55.0296 38.0533 55.8489 38.3797 56.677C38.563 57.1432 38.4746 57.6014 38.0621 57.8343C37.3093 58.2591 36.5403 58.6556 35.7567 59.0057C35.3099 59.2051 34.9159 58.9704 34.6962 58.4975L34.6979 58.4977ZM40.6052 64.0441C39.9062 64.4283 39.1942 64.7861 38.4741 65.1199C37.9866 65.3447 37.5806 65.174 37.3265 64.6297C36.9666 63.8602 36.6282 63.0762 36.3193 62.2802C36.0825 61.6687 36.2454 61.2438 36.7725 60.9464C36.9955 60.8217 37.2245 60.7094 37.453 60.5972L37.4531 60.5972C37.5587 60.5454 37.6642 60.4936 37.769 60.4407C37.7704 60.4444 37.7717 60.4481 37.7733 60.4501C37.8844 60.3941 37.9945 60.3359 38.1047 60.2777C38.3545 60.1457 38.604 60.0138 38.8635 59.9088C39.3453 59.7123 39.7355 59.8709 39.9722 60.3813C40.3389 61.1695 40.6827 61.9701 41.004 62.7798C41.2223 63.3301 41.0791 63.7802 40.602 64.042L40.6052 64.0441ZM45.7503 61.4586C45.5055 61.5998 45.2524 61.7229 44.9992 61.8461C44.8874 61.9006 44.7755 61.955 44.6642 62.011C44.5719 62.0582 44.4798 62.1064 44.3877 62.1547C44.149 62.2799 43.9101 62.4051 43.6649 62.5111C43.135 62.7397 42.7301 62.5961 42.4703 62.0387C42.1105 61.2692 41.7737 60.4853 41.463 59.691C41.2368 59.1147 41.384 58.656 41.8787 58.3848C42.5635 58.0103 43.2597 57.6601 43.9657 57.3342C44.4515 57.1092 44.8659 57.2608 45.1256 57.7983C45.5082 58.5968 45.8589 59.4161 46.1766 60.2471C46.3753 60.7706 46.2038 61.1984 45.752 61.4588L45.7503 61.4586ZM50.8944 58.8659C50.194 59.2463 49.4834 59.6079 48.7619 59.9379C48.2711 60.1625 47.8688 59.9867 47.6179 59.4445C47.2615 58.6734 46.9229 57.8912 46.614 57.0952C46.3756 56.4836 46.535 56.0602 47.0638 55.7629C47.2984 55.6318 47.54 55.5132 47.7812 55.3948L47.7813 55.3948L47.7813 55.3947L47.7813 55.3947L47.7814 55.3947L47.7814 55.3947L47.7815 55.3947L47.7815 55.3946L47.7815 55.3946L47.7816 55.3946L47.7816 55.3946L47.7816 55.3946C47.89 55.3414 47.9983 55.2882 48.1059 55.2339C48.1059 55.2339 48.1056 55.2375 48.1073 55.2377C48.2123 55.1849 48.3166 55.1306 48.4208 55.0762L48.4214 55.0759L48.4215 55.0758C48.6478 54.9578 48.874 54.8399 49.1065 54.7394C49.5997 54.5276 50.0189 54.6814 50.2629 55.205C50.6298 55.9914 50.9719 56.7919 51.2947 57.6035C51.5116 58.1501 51.366 58.609 50.8944 58.8659ZM71.6854 48.8842C71.6411 48.9924 71.5645 49.0853 71.4574 49.1414L70.3942 49.7012C70.3362 49.7324 70.2743 49.749 70.2135 49.753C70.1695 49.7565 70.1264 49.7494 70.0834 49.7404C70.0439 49.7299 70.0048 49.7158 69.9677 49.6965C69.8843 49.6481 69.8132 49.5737 69.7675 49.4761L67.0448 43.4048C66.9327 43.1555 66.6537 43.0531 66.4182 43.1779L62.9708 44.9891C62.7354 45.1122 62.6364 45.4143 62.7486 45.6636L65.4712 51.7349C65.5208 51.8472 65.5275 51.9687 65.4998 52.08C65.4923 52.1101 65.4831 52.14 65.469 52.1677C65.4504 52.2095 65.4285 52.251 65.3987 52.2864C65.3577 52.3353 65.3071 52.378 65.249 52.4093L56.9221 56.7847C56.8641 56.816 56.8022 56.8325 56.7414 56.8365C56.6974 56.84 56.6543 56.8329 56.6113 56.8239C56.4779 56.7912 56.3594 56.7002 56.2955 56.5578L53.0307 49.2797L52.6605 48.4533C52.6178 48.3596 52.6059 48.2594 52.619 48.163C52.6233 48.1309 52.631 48.0991 52.6402 48.0692L52.6423 48.0632L52.6438 48.0594L52.6462 48.054L52.6522 48.0413L52.6522 48.0413C52.6544 48.0367 52.6567 48.032 52.6588 48.0274L61.2809 43.496L67.7383 40.1026L67.7551 40.1063L67.7637 40.1085C67.7691 40.1099 67.7744 40.1114 67.7795 40.1132C67.8365 40.1342 67.8894 40.1656 67.9346 40.2091C67.9797 40.2525 68.0191 40.3045 68.0474 40.3682L71.6825 48.4726C71.711 48.5345 71.7256 48.6007 71.7286 48.6659C71.7305 48.7039 71.7274 48.7416 71.7193 48.7788C71.7127 48.8179 71.7012 48.8549 71.6866 48.8898L71.6854 48.8842ZM60.6312 46.4518C60.503 46.3762 60.3408 46.3664 60.1967 46.4429L55.709 48.8013C55.4736 48.9244 55.3746 49.2265 55.4868 49.4758L57.2974 53.5103C57.3259 53.5722 57.3634 53.6258 57.4102 53.6694C57.4554 53.7128 57.5082 53.7442 57.5653 53.7652C57.6778 53.807 57.8077 53.8015 57.9255 53.7391L62.4132 51.3807C62.5011 51.3338 62.5707 51.2638 62.6164 51.1792C62.64 51.1378 62.6539 51.0921 62.6662 51.0444C62.6921 50.9347 62.685 50.8168 62.637 50.7064L60.8265 46.6719C60.7839 46.5763 60.7145 46.502 60.6344 46.4539L60.6312 46.4518ZM28.4399 56.1934C28.8062 57.0465 28.8117 57.0614 28.0488 57.4258L28.0471 57.4257C26.745 58.0505 25.4902 58.7531 24.5153 59.9318C23.686 60.9349 23.0801 62.0828 22.7356 63.4021C22.7036 63.5253 22.6701 63.6466 22.6366 63.7679L22.6366 63.7681L22.6365 63.7682L22.6365 63.7683L22.6365 63.7685L22.6364 63.7686L22.6364 63.7687L22.6364 63.7689L22.6363 63.769L22.6363 63.7692L22.5104 63.7876C22.4723 63.6992 22.4341 63.6104 22.396 63.5216L22.3941 63.5173L22.3932 63.515C22.3547 63.4255 22.3163 63.336 22.2779 63.2469C17.9905 53.2571 13.7031 43.2673 9.4174 33.2776C7.71269 29.3042 8.98586 25.3139 12.5256 23.5247C12.9027 23.334 13.2815 23.1434 13.6602 22.9547C13.9389 22.8154 14.1469 22.9011 14.2841 23.2138C14.3066 23.2657 14.3294 23.3174 14.3522 23.369L14.3522 23.3692C14.3893 23.4533 14.4264 23.5373 14.4621 23.6219C19.1212 34.4772 23.7801 45.3343 28.439 56.1914L28.4399 56.1934ZM53.0943 14.0816C53.5007 14.2482 53.9134 14.4174 54.0256 14.4599L54.0239 14.4597C53.2783 17.2926 52.5345 20.1176 51.7902 22.9442L51.7851 22.9638C50.9574 26.107 50.1293 29.2523 49.2975 32.4127C49.1946 32.3776 48.7866 32.2139 48.38 32.0508L48.3795 32.0506C47.9859 31.8926 47.5937 31.7353 47.4812 31.6958C48.2123 28.9182 48.9413 26.1496 49.6705 23.3798L49.6733 23.3694L49.6924 23.2967L49.7592 23.0431L49.76 23.0398L49.7878 22.9345L49.8051 22.8687L49.8797 22.5854L49.8872 22.557C50.6607 19.6191 51.4348 16.6787 52.2126 13.7234C52.3196 13.7641 52.704 13.9217 53.0943 14.0816ZM47.438 34.4526C46.8952 35.3035 46.4543 35.9946 45.4266 36.6806C45.3074 36.7393 44.9897 36.5578 44.7403 32.2808C45.2113 32.4521 45.6427 32.6089 46.0616 32.761C46.7281 33.0032 47.363 33.2338 48.0753 33.4933C47.8306 33.8371 47.6281 34.1546 47.438 34.4526ZM53.1169 41.4977L52.6811 41.7269L51.047 42.5858C51.0259 42.5966 51.0081 42.6096 50.9916 42.6263C50.9751 42.6429 50.9602 42.6598 50.9484 42.6804C50.925 42.72 50.9094 42.7656 50.9073 42.8124L50.7843 45.4148C50.7815 45.4687 50.7892 45.518 50.8056 45.5627C50.8166 45.5925 50.8294 45.6206 50.8474 45.6473C50.8728 45.6855 50.9053 45.7189 50.9403 45.7434C50.953 45.7517 50.9658 45.76 50.9787 45.7665C51.0173 45.7877 51.0599 45.8003 51.105 45.804C51.1651 45.809 51.2265 45.7978 51.2864 45.7649L53.1911 44.7642C53.2105 44.7532 53.2283 44.7402 53.2447 44.7253C53.2611 44.7104 53.2744 44.6917 53.2877 44.673C53.3111 44.6334 53.3267 44.5878 53.3289 44.541L53.3893 43.3029L53.4647 41.743C53.476 41.5455 53.2855 41.4106 53.1184 41.4996L53.1169 41.4977ZM54.3198 39.5945L54.3442 39.0769L54.3445 39.0733L54.4538 36.7981C54.4584 36.7029 54.5128 36.6136 54.5936 36.5715L56.6635 35.4835C56.8305 35.3945 57.0211 35.5293 57.0098 35.7268L56.8739 38.5249C56.8694 38.6201 56.8166 38.7096 56.7377 38.75L56.1806 39.0431L54.6696 39.8364C54.5236 39.9145 54.3582 39.8214 54.3257 39.6654C54.3208 39.6433 54.3178 39.6196 54.3198 39.5945ZM51.098 40.8127L51.0746 41.298C51.0725 41.3231 51.0756 41.3468 51.0805 41.3688C51.113 41.5249 51.2784 41.618 51.4243 41.5398L52.3749 41.0411L53.4924 40.4534C53.5505 40.4221 53.5956 40.3645 53.6163 40.2977C53.6232 40.2748 53.6268 40.2516 53.6287 40.2283L53.6402 39.9875L53.6782 39.204L53.7644 37.4321C53.7688 37.3585 53.7439 37.2933 53.7042 37.2449C53.6904 37.2293 53.6748 37.2154 53.659 37.2033C53.6257 37.1788 53.5865 37.1648 53.5448 37.1613C53.5247 37.1597 53.5027 37.1615 53.4823 37.1652C53.4618 37.1689 53.4392 37.1778 53.4181 37.1887L51.5028 38.1958C51.4589 38.2192 51.4178 38.2483 51.3831 38.2815C51.3468 38.3146 51.3167 38.3536 51.2896 38.3964C51.2373 38.4805 51.2054 38.5807 51.2002 38.6849L51.1464 39.8009L51.098 40.8127ZM56.7178 39.8832C56.7307 39.9096 56.7382 39.9408 56.7406 39.9735L56.7421 39.9754C56.7443 39.9901 56.7464 40.0047 56.7452 40.019L56.6094 42.817C56.6072 42.8638 56.5917 42.9094 56.5682 42.949C56.5549 42.9677 56.5416 42.9864 56.5252 43.0013C56.5089 43.0162 56.491 43.0292 56.4716 43.0402L54.4035 44.1266C54.2771 44.1919 54.1391 44.1336 54.0815 44.0169C54.0612 43.9774 54.0516 43.9315 54.0539 43.8829L54.0711 43.5127L54.1822 41.1962L54.1878 41.0884C54.1923 40.9931 54.2468 40.9038 54.3276 40.8618L56.3975 39.7737C56.5223 39.7065 56.6619 39.7667 56.7178 39.8832ZM57.6263 38.0044C57.6537 38.059 57.6975 38.0987 57.7494 38.121C57.7544 38.1214 57.7574 38.1253 57.7606 38.1274C57.8177 38.1483 57.8851 38.1467 57.9466 38.1139L60.0147 37.0275C60.0937 36.9871 60.1465 36.8977 60.151 36.8024L60.2793 34.1968C60.2821 34.1429 60.2744 34.0936 60.2579 34.0489C60.2524 34.034 60.2469 34.0191 60.2396 34.0059C60.2396 34.0059 60.239 34.0051 60.2386 34.0041C60.2384 34.0035 60.2382 34.0028 60.2382 34.0022C60.2268 33.9778 60.2118 33.9567 60.195 33.9354C60.1645 33.8986 60.1268 33.8666 60.0865 33.8453C59.9946 33.798 59.8842 33.7924 59.7788 33.8469L57.8706 34.8491C57.8496 34.8599 57.8317 34.8729 57.8152 34.8896C57.7658 34.9378 57.7351 35.0038 57.7309 35.0757L57.5969 37.872C57.5946 37.9206 57.6042 37.9665 57.6245 38.006L57.6263 38.0044ZM59.6446 38.0668C59.8117 37.9778 60.0022 38.1126 59.9909 38.3102L59.9907 38.312L59.9674 38.7972L59.88 40.5834L59.8634 40.9267C59.8607 40.9788 59.8514 41.0303 59.8357 41.0777C59.813 41.1498 59.7771 41.2172 59.7304 41.2747C59.6836 41.3322 59.6274 41.3817 59.5607 41.4158L57.6507 42.4197C57.6086 42.4415 57.5658 42.4506 57.5241 42.4471C57.4005 42.4369 57.2938 42.3252 57.301 42.1778L57.3761 40.5999L57.435 39.3815C57.4369 39.3582 57.4405 39.335 57.4474 39.3121C57.4488 39.3098 57.45 39.3083 57.4508 39.3064C57.4512 39.3055 57.4514 39.3046 57.4515 39.3034C57.4649 39.263 57.4882 39.2253 57.5193 39.1954C57.5358 39.1787 57.5537 39.1657 57.5747 39.1549L59.6446 38.0668Z" fill="url(#paint0_linear_289_114)"/>
<defs>
<linearGradient id="paint0_linear_289_114" x1="73.3101" y1="16.9479" x2="17.7348" y2="66.8697" gradientUnits="userSpaceOnUse">
<stop stop-color="#FFCC00"/>
<stop offset="1" stop-color="#FF6633"/>
</linearGradient>
</defs>
</svg>
