<svg width="86" height="87" viewBox="0 0 86 87" fill="none" xmlns="http://www.w3.org/2000/svg">
<path d="M17.4551 42.5156C17.4551 42.5156 17.4551 29.7756 17.4551 25.4856C17.4551 24.7956 16.7851 24.3156 16.1251 24.5256L9.08506 26.8156C7.28506 27.4056 6.06506 29.0756 6.06506 30.9656V49.3356C6.06506 57.3756 9.84506 64.9556 16.2851 69.7956L23.9551 75.5656C25.5151 76.7456 27.6751 76.7456 29.2351 75.5656L34.0851 71.9056C34.6251 71.4956 34.6251 70.6956 34.0851 70.2856L29.6651 66.9556C22.0151 61.1956 17.4551 52.0556 17.4551 42.4956V42.5156Z" fill="url(#paint0_linear_32_1260)"/>
<path d="M68.545 42.5156C68.545 42.5156 68.545 29.7756 68.545 25.4856C68.545 24.7956 69.215 24.3156 69.875 24.5256L76.915 26.8156C78.715 27.4056 79.935 29.0756 79.935 30.9656V49.3356C79.935 57.3756 76.155 64.9556 69.715 69.7956L62.045 75.5656C60.485 76.7456 58.325 76.7456 56.765 75.5656L51.915 71.9056C51.375 71.4956 51.375 70.6956 51.915 70.2856L56.335 66.9556C63.985 61.1956 68.545 52.0556 68.545 42.4956V42.5156Z" fill="url(#paint1_linear_32_1260)"/>
<path d="M61.735 17.3056L44.455 11.6856C43.515 11.3756 42.495 11.3756 41.545 11.6856L24.265 17.3056C22.335 17.9356 21.025 19.7256 21.025 21.7556V41.4156C21.025 50.0256 25.075 58.1356 31.965 63.3156L40.175 69.4956C41.845 70.7556 44.155 70.7556 45.825 69.4956L54.035 63.3156C60.925 58.1256 64.975 50.0156 64.975 41.4156V21.7556C64.975 19.7356 63.665 17.9356 61.735 17.3056ZM49.665 32.9456C48.075 32.9456 47.425 33.6456 47.035 34.6556L43.685 34.2156C44.155 32.0656 44.885 26.9856 45.165 24.6456H55.565L55.045 27.6756H48.185C48.085 28.5856 47.795 30.2156 47.665 30.9156C48.315 30.3956 49.275 30.0056 50.755 30.0056C54.135 30.0056 56.035 32.4456 56.035 35.6856C56.035 38.9256 54.215 42.0156 49.585 42.0156C46.205 42.0156 43.735 40.2756 43.345 37.2456H47.065C47.405 38.4156 48.205 39.1656 49.665 39.1656C51.435 39.1656 52.295 37.8656 52.295 36.0056C52.295 34.1456 51.645 32.9456 49.665 32.9456ZM34.015 49.8456C33.995 49.8956 33.965 49.9256 33.965 50.0756V52.5856H32.435V50.0956C32.435 50.0256 32.425 49.9556 32.375 49.8656L29.935 45.5456H31.665C32.205 46.6056 32.915 48.0156 33.275 48.7856C33.585 48.0456 34.355 46.5556 34.885 45.5456H36.485L34.015 49.8456ZM42.065 52.5856H37.035V45.5456H42.045V46.7956H38.525V48.2956H41.905V49.5556H38.525V51.3456H42.255L42.075 52.5956L42.065 52.5856ZM42.105 41.7156H30.015V41.4856C30.015 38.5056 31.345 36.0956 35.055 33.3956C37.475 31.6356 38.205 31.0356 38.205 29.5356C38.205 28.0356 37.475 27.2256 36.045 27.2256C34.355 27.2256 33.755 28.2656 33.525 29.7356H29.935C30.165 26.8056 32.095 24.3456 36.045 24.3456C40.435 24.3456 41.945 26.9656 41.945 29.5056C41.945 32.0456 40.855 33.1856 37.705 35.3956C35.595 36.8756 34.745 37.8556 34.455 38.6356H42.565L42.095 41.7256L42.105 41.7156ZM48.085 52.5856L47.505 50.9656H44.925L44.385 52.5856H42.875L45.275 45.5456H47.195L49.705 52.5856H48.085ZM55.925 50.8956V51.2456C55.925 51.7156 55.925 52.2556 56.025 52.5856H54.565C54.445 52.2756 54.425 51.7456 54.425 51.0056V50.9056C54.425 50.1356 54.235 49.7756 53.095 49.7756H52.095V52.5956H50.595V45.5556H53.695C55.235 45.5556 56.065 46.3956 56.065 47.4856C56.065 48.4256 55.555 48.9356 55.045 49.1556C55.395 49.2856 55.925 49.6456 55.925 50.9156V50.8956Z" fill="url(#paint2_linear_32_1260)"/>
<path d="M46.165 46.6256C45.995 47.3156 45.645 48.4256 45.245 49.7056H47.175C46.675 48.2156 46.355 47.2656 46.185 46.6256H46.165Z" fill="url(#paint3_linear_32_1260)"/>
<path d="M53.405 46.7356H52.095V48.5356H53.375C54.205 48.5356 54.535 48.2156 54.535 47.6356C54.535 47.0556 54.155 46.7356 53.405 46.7356Z" fill="url(#paint4_linear_32_1260)"/>
<defs>
<linearGradient id="paint0_linear_32_1260" x1="79.935" y1="11.4531" x2="15.466" y2="84.7224" gradientUnits="userSpaceOnUse">
<stop stop-color="#FFCC00"/>
<stop offset="1" stop-color="#FF6633"/>
</linearGradient>
<linearGradient id="paint1_linear_32_1260" x1="79.935" y1="11.4531" x2="15.466" y2="84.7224" gradientUnits="userSpaceOnUse">
<stop stop-color="#FFCC00"/>
<stop offset="1" stop-color="#FF6633"/>
</linearGradient>
<linearGradient id="paint2_linear_32_1260" x1="79.935" y1="11.4531" x2="15.466" y2="84.7224" gradientUnits="userSpaceOnUse">
<stop stop-color="#FFCC00"/>
<stop offset="1" stop-color="#FF6633"/>
</linearGradient>
<linearGradient id="paint3_linear_32_1260" x1="79.935" y1="11.4531" x2="15.466" y2="84.7224" gradientUnits="userSpaceOnUse">
<stop stop-color="#FFCC00"/>
<stop offset="1" stop-color="#FF6633"/>
</linearGradient>
<linearGradient id="paint4_linear_32_1260" x1="79.935" y1="11.4531" x2="15.466" y2="84.7224" gradientUnits="userSpaceOnUse">
<stop stop-color="#FFCC00"/>
<stop offset="1" stop-color="#FF6633"/>
</linearGradient>
</defs>
</svg>
